<svg width="60" height="66" viewBox="0 0 60 66" fill="none" xmlns="http://www.w3.org/2000/svg">
<path d="M30.0557 0.00101202C29.8173 -0.00774713 29.5803 0.0404553 29.3643 0.14162L7.0487 10.5554C6.70506 10.6603 6.41048 10.885 6.21856 11.1888C6.02664 11.4925 5.95012 11.8551 6.00293 12.2105V13.5902C2.71913 13.5901 0.00366175 16.2769 0.00366175 19.5777V37.4964C0.00366175 39.7345 -0.0395119 41.1977 0.170634 42.5173C0.38078 43.8369 0.966084 44.9975 1.90187 46.012L1.81985 45.9183C1.81985 45.9183 10.1124 56.5598 12.0022 59.0094V63.2042C12.0022 64.3142 12.7658 65.3378 13.4932 65.6854C14.2206 66.0329 14.8518 65.993 15.0018 65.993H25.5005C26.5354 65.993 27.5808 65.5731 28.0784 64.7919C28.5759 64.0108 28.5002 63.3158 28.5002 62.9933V55.4942C28.5002 55.3986 28.4945 55.2276 28.4797 55.0461C28.4354 53.0672 27.9809 51.3172 27.3753 49.6678L29.0216 50.655C29.2787 50.87 29.6005 50.9928 29.9356 51.0036C29.9687 51.0047 30.002 51.0047 30.0352 51.0036C30.0596 51.0032 30.084 51.0022 30.1084 51.0006C30.4278 50.9812 30.7327 50.8601 30.9784 50.655L32.6247 49.6678C32.0191 51.3172 31.5646 53.0672 31.5203 55.0461C31.5055 55.2276 31.4998 55.3986 31.4998 55.4942V62.9933C31.4998 63.3158 31.4241 64.0108 31.9216 64.7919C32.4192 65.5731 33.4646 65.993 34.4995 65.993H44.9982C45.1482 65.993 45.7794 66.0329 46.5068 65.6854C47.2342 65.3378 47.9978 64.3142 47.9978 63.2042V59.0094C49.8876 56.5598 58.1802 45.9183 58.1802 45.9183L58.0981 46.012C59.0339 44.9975 59.6192 43.8369 59.8294 42.5173C60.0395 41.1977 59.9963 39.7345 59.9963 37.4964V19.5777C59.9963 16.2769 57.2809 13.5901 53.9971 13.5902V12.2163C54.0018 12.1881 54.0057 12.1598 54.0088 12.1314C54.0132 12.0817 54.0152 12.0318 54.0146 11.982C54.0152 11.9321 54.0132 11.8822 54.0088 11.8326C54.0035 11.7824 53.9957 11.7326 53.9854 11.6832C53.9447 11.4867 53.865 11.3005 53.751 11.1354C53.7217 11.0948 53.6904 11.0557 53.6573 11.0182C53.5604 10.9033 53.4469 10.8035 53.3204 10.7224C53.2777 10.6958 53.2337 10.6713 53.1886 10.6491C53.1447 10.6264 53.0997 10.6059 53.0538 10.5876C53.021 10.5767 52.9878 10.5669 52.9542 10.5583L30.6357 0.14162C30.4537 0.0563731 30.2565 0.00855756 30.0557 0.00101202ZM30 3.1559L49.1432 12.0874L30 22.2961L10.8568 12.0874L30 3.1559ZM9.00256 14.4983L28.5002 24.8974V46.8469L24.3757 44.3716C24.2771 44.3118 24.1719 44.2637 24.0622 44.228C23.4036 43.4053 22.8682 42.4195 22.1582 41.7059L15.5174 34.57C13.8155 32.7418 11.1474 32.5616 9.00256 33.7176V15.2247V14.4983ZM50.9974 14.5012V15.2247V33.7176C48.8526 32.5616 46.1845 32.7418 44.4826 34.57L37.8447 41.703L37.8418 41.7059C37.1324 42.4189 36.596 43.403 35.9378 44.2251C35.828 44.2617 35.7228 44.3108 35.6243 44.3716L31.4998 46.8469V24.8974L50.9974 14.5012ZM6.00293 16.6045V29.9974V35.9966V37.4964C5.99977 37.7486 6.06022 37.9974 6.17869 38.22C6.16196 39.3827 6.4226 40.5592 7.1688 41.5536L13.8008 50.3943C14.0393 50.7128 14.3946 50.9235 14.7885 50.9801C15.1824 51.0367 15.5826 50.9345 15.9011 50.696C16.2197 50.4575 16.4304 50.1022 16.487 49.7083C16.5436 49.3144 16.4414 48.9142 16.2029 48.5957L9.57085 39.752C9.56988 39.752 9.5689 39.752 9.56792 39.752C8.74668 38.6577 8.96489 37.1524 10.0601 36.3306L10.063 36.3247C11.0734 35.5669 12.4604 35.6909 13.3204 36.6147L19.9934 43.7828C20.0049 43.7947 20.0167 43.8064 20.0286 43.8179C22.98 46.7837 25.3906 50.3164 25.4859 55.1486C25.487 55.2015 25.4909 55.2543 25.4976 55.3068C25.4955 55.2894 25.5005 55.3743 25.5005 55.4942V62.9933H15.0018V58.4939C15.0019 58.1633 14.8927 57.842 14.6913 57.5799C13.123 55.5396 4.18674 44.0728 4.18674 44.0728C4.16071 44.0404 4.13335 44.0091 4.10472 43.979C3.4357 43.2537 3.27075 42.9158 3.13219 42.0457C2.99362 41.1756 3.0033 39.7578 3.0033 37.4964V19.5777C3.0033 17.9016 4.3403 16.6062 6.00293 16.6045ZM53.9971 16.6045C55.6597 16.6063 56.9967 17.9016 56.9967 19.5777V37.4964C56.9967 39.7578 57.0063 41.1756 56.8678 42.0457C56.7292 42.9158 56.5643 43.2537 55.8953 43.979C55.8666 44.0091 55.8393 44.0404 55.8133 44.0728C55.8133 44.0728 46.877 55.5396 45.3087 57.5799C45.1073 57.842 44.9981 58.1633 44.9982 58.4939V62.9933H34.4995V55.4942C34.4995 55.3743 34.5045 55.2894 34.5024 55.3068C34.5091 55.2543 34.513 55.2015 34.5141 55.1486C34.6094 50.3164 37.02 46.7837 39.9714 43.8179C39.9833 43.8064 39.9951 43.7947 40.0066 43.7828L46.6796 36.6147C47.5396 35.6909 48.9266 35.5669 49.937 36.3247L49.9399 36.3306C51.0351 37.1524 51.2533 38.6577 50.4321 39.752C50.4311 39.752 50.4301 39.752 50.4291 39.752L43.7971 48.5957C43.5586 48.9142 43.4564 49.3144 43.513 49.7083C43.5696 50.1022 43.7803 50.4575 44.0989 50.696C44.4174 50.9345 44.8176 51.0367 45.2115 50.9801C45.6054 50.9235 45.9607 50.7128 46.1992 50.3943L52.8312 41.5536V41.5506C53.5763 40.5567 53.838 39.3818 53.8213 38.22C53.9398 37.9974 54.0002 37.7486 53.9971 37.4964V35.9966V16.6045Z" fill="#2AB346"/>
</svg>
