<svg width="60" height="60" viewBox="0 0 60 60" fill="none" xmlns="http://www.w3.org/2000/svg">
<path d="M12.7672 0C8.20344 0 5.0161 1.55352 3.02988 3.14249C1.04367 4.73146 0.169551 6.44819 0.169551 6.44819C0.0863243 6.61458 0.0366875 6.79572 0.0234759 6.98129C0.0102642 7.16686 0.0337365 7.35321 0.0925518 7.52971C0.151367 7.7062 0.244373 7.86938 0.366259 8.00993C0.488145 8.15048 0.636524 8.26564 0.802921 8.34884C0.969318 8.43204 1.15047 8.48165 1.33604 8.49483C1.52161 8.50801 1.70796 8.4845 1.88445 8.42566C2.06093 8.36681 2.2241 8.27378 2.36463 8.15187C2.50515 8.02996 2.62029 7.88156 2.70346 7.71515C2.70346 7.71515 3.24568 6.59921 4.8003 5.35551C6.21076 4.22715 8.53397 3.18417 11.8626 2.97928L29.8628 48.6754C29.9989 49.0192 30.264 49.2961 30.6015 49.447C30.9391 49.5979 31.3222 49.6109 31.6692 49.4832L58.5795 39.5688C58.7614 39.5104 58.9296 39.4157 59.0739 39.2906C59.2183 39.1654 59.3358 39.0123 59.4194 38.8406C59.5031 38.6688 59.5512 38.4819 59.5607 38.2911C59.5702 38.1003 59.5411 37.9095 59.475 37.7303C59.4089 37.551 59.3072 37.387 59.1761 37.2481C59.0449 37.1091 58.887 36.9981 58.7119 36.9218C58.5368 36.8455 58.348 36.8054 58.157 36.8039C57.9659 36.8024 57.7765 36.8396 57.6002 36.9132L31.99 46.3462L14.0839 0.896274C13.9796 0.632079 13.7983 0.405348 13.5635 0.24552C13.3287 0.0856918 13.0512 0.000149685 12.7672 0ZM49.8325 8.498C49.6672 8.49904 49.5034 8.529 49.3484 8.58653L25.0246 17.5465C24.8477 17.6118 24.6856 17.7118 24.5479 17.8406C24.4101 17.9694 24.2995 18.1244 24.2225 18.2965C24.1454 18.4686 24.1035 18.6544 24.0992 18.8429C24.0949 19.0314 24.1283 19.2189 24.1974 19.3944L32.9416 41.5938C33.0778 41.9375 33.3429 42.2144 33.6804 42.3653C34.0179 42.5163 34.4011 42.5292 34.748 42.4015L59.0719 33.4415C59.249 33.3765 59.4114 33.2767 59.5494 33.148C59.6874 33.0193 59.7984 32.8644 59.8757 32.6922C59.953 32.5201 59.9951 32.3342 59.9996 32.1456C60.0041 31.9569 59.9708 31.7693 59.9018 31.5937L51.1548 9.39428C51.0502 9.1292 50.868 8.90187 50.6321 8.74197C50.3962 8.58207 50.1175 8.49704 49.8325 8.498ZM49.0275 11.7235L56.7344 31.2838L35.0689 39.2645L27.3621 19.7042L49.0275 11.7235ZM43.9487 19.0016C43.7737 19.001 43.6002 19.0329 43.4369 19.0956L36.109 21.7955C35.9345 21.8598 35.7743 21.9578 35.6376 22.0841C35.501 22.2103 35.3905 22.3621 35.3126 22.531C35.2346 22.6999 35.1907 22.8825 35.1833 23.0684C35.1759 23.2543 35.2052 23.4398 35.2695 23.6143C35.3338 23.7889 35.4318 23.9491 35.558 24.0857C35.6842 24.2224 35.8361 24.3328 36.005 24.4108C36.1739 24.4888 36.3565 24.5327 36.5424 24.5401C36.7282 24.5475 36.9137 24.5182 37.0883 24.4539L44.4162 21.754C44.7312 21.643 44.9968 21.4243 45.1662 21.1364C45.3356 20.8486 45.3978 20.5101 45.3419 20.1808C45.286 19.8516 45.1155 19.5526 44.8606 19.3369C44.6056 19.1211 44.2827 19.0023 43.9487 19.0016ZM21.2652 42.49C19.0227 42.49 17.1605 43.382 15.9567 44.7362C14.7529 46.0905 14.1835 47.8406 14.1835 49.5717C14.1835 51.3028 14.7529 53.0529 15.9567 54.4072C17.1605 55.7614 19.0227 56.6534 21.2652 56.6534C23.5077 56.6534 25.3699 55.7614 26.5737 54.4072C27.7775 53.0529 28.3469 51.3028 28.3469 49.5717C28.3469 47.8406 27.7775 46.0905 26.5737 44.7362C25.3699 43.382 23.5077 42.49 21.2652 42.49ZM21.2652 56.6534H1.43651C1.24883 56.6507 1.06249 56.6854 0.888324 56.7554C0.71416 56.8254 0.555642 56.9293 0.421983 57.061C0.288324 57.1928 0.182189 57.3499 0.109747 57.523C0.0373049 57.6962 0 57.882 0 58.0697C0 58.2574 0.0373049 58.4432 0.109747 58.6164C0.182189 58.7895 0.288324 58.9466 0.421983 59.0784C0.555642 59.2101 0.71416 59.314 0.888324 59.384C1.06249 59.454 1.24883 59.4887 1.43651 59.486H58.0899C58.2776 59.4887 58.4639 59.454 58.6381 59.384C58.8122 59.314 58.9707 59.2101 59.1044 59.0784C59.2381 58.9466 59.3442 58.7895 59.4166 58.6164C59.4891 58.4432 59.5264 58.2574 59.5264 58.0697C59.5264 57.882 59.4891 57.6962 59.4166 57.523C59.3442 57.3499 59.2381 57.1928 59.1044 57.061C58.9707 56.9293 58.8122 56.8254 58.6381 56.7554C58.4639 56.6854 58.2776 56.6507 58.0899 56.6534H21.2652ZM21.2652 45.3227C22.7995 45.3227 23.7701 45.8471 24.4547 46.6173C25.1393 47.3875 25.5142 48.4701 25.5142 49.5717C25.5142 50.6733 25.1393 51.7559 24.4547 52.5261C23.7701 53.2963 22.7995 53.8207 21.2652 53.8207C19.7308 53.8207 18.7603 53.2963 18.0757 52.5261C17.391 51.7559 17.0162 50.6733 17.0162 49.5717C17.0162 48.4701 17.391 47.3875 18.0757 46.6173C18.7603 45.8471 19.7308 45.3227 21.2652 45.3227Z" fill="#2AB346"/>
</svg>
