<svg width="102" height="60" viewBox="0 0 102 60" fill="none" xmlns="http://www.w3.org/2000/svg">
<path d="M87.8179 0C86.9534 0 86.5799 0.384929 86.2729 0.653783C85.9658 0.922636 85.7295 1.20067 85.505 1.48026C85.0558 2.03946 84.6394 2.64001 84.4688 2.84334V2.84642C83.8537 3.58308 82.448 4.13612 81.1382 5.61883C79.9689 6.94335 79.6094 8.48231 79.3064 9.72656C79.0033 10.9708 78.7419 11.9291 78.2517 12.5391C78.142 12.6755 78.2466 12.6183 77.6997 12.6748C77.1527 12.7312 75.9379 12.8398 75.0722 13.8096L75.0691 13.8127C74.3037 14.6737 74.1191 15.4951 74.0144 15.7956C73.9883 15.7969 74.0435 15.7895 74.0021 15.7895C73.2858 15.7895 72.6027 15.716 71.7817 15.8172C70.9607 15.9184 69.9838 16.3185 69.2683 17.0755C68.0538 18.3618 67.8944 19.8879 67.8898 20.8686C67.676 20.4261 67.4773 19.9686 67.014 19.6012C66.4154 19.1264 65.6271 18.9474 64.9231 18.9474C63.6293 18.9474 62.8384 19.7399 62.3944 20.1347C61.9503 20.5294 61.853 20.5263 61.9626 20.5263C61.6864 20.5263 61.4253 20.4973 61.1269 20.4893C61.3412 20.067 61.5679 19.6286 61.5679 19.1447C61.5685 18.8762 61.5005 18.6119 61.3705 18.3769C60.7952 17.3409 59.7325 17.0978 59.1316 17.0076C58.6428 16.9342 58.4425 16.9062 58.3915 16.9151C58.3143 16.8572 58.1981 16.7771 58.0461 16.6375C57.688 16.3086 56.9858 15.7895 56.0416 15.7895C55.0226 15.7895 54.193 16.5831 53.8952 17.0569C53.5989 17.5283 53.4492 17.8054 53.5128 17.7354H53.5097V17.7385C53.3161 17.9532 53.1002 18.0396 52.5136 18.1856C51.9248 18.3322 51.0026 18.4726 50.0804 19.1447C49.4951 19.5713 49.1887 20.1243 49.0226 20.4431C48.8566 20.7618 48.7941 20.8504 48.8006 20.844L48.7975 20.847C48.726 20.866 48.4084 20.9039 47.9464 21.0413C46.9761 21.331 46.6252 21.9686 46.4414 22.1978C46.3588 22.3009 46.3353 22.3209 46.3736 22.2903C46.113 22.3324 45.8949 22.4259 45.6612 22.5093C45.6764 22.3537 45.7784 22.2691 45.7784 22.1053C45.7784 21.4377 45.6355 20.7529 45.2048 20.1223C44.7746 19.4924 43.9327 18.9663 43.0492 18.9474H43.0461C42.3836 18.9346 41.7412 19.2175 41.316 19.5734C40.8902 19.9299 40.6204 20.3349 40.4001 20.7391C40.1428 21.2112 40.0211 21.705 39.8573 22.1947C39.7328 21.8806 39.5884 21.5548 39.2745 21.2233C38.932 20.8614 38.3101 20.5263 37.6863 20.5263C37.0394 20.5263 36.3934 20.7996 35.9902 21.1277C35.6606 21.3958 35.508 21.633 35.3641 21.84C35.3319 21.8083 35.3363 21.8153 35.2994 21.7784C34.8581 21.3371 33.8705 20.5263 32.5547 20.5263C27.7599 20.5263 25.9926 19.4076 25.6561 19.08C25.6467 19.0395 25.503 18.8017 25.4248 18.5218C25.3205 18.1486 25.2521 17.676 25.2521 17.3468C25.2521 17.08 25.382 16.6267 25.4803 16.2089C25.6331 16.5007 25.8565 16.8364 26.2112 17.0508C26.6138 17.2942 27.0516 17.3684 27.4231 17.3684C28.0152 17.3684 28.6491 17.0799 29.0268 16.7023C29.4044 16.3247 29.5874 15.9208 29.7114 15.5489C29.9593 14.8053 29.9889 14.1009 29.9889 13.4211C29.9889 13.125 30.0229 12.3757 29.736 11.5152C29.5926 11.085 29.3548 10.5899 28.888 10.1676C28.4212 9.74521 27.7121 9.47368 27.0284 9.47368C26.9882 9.47368 26.396 9.41489 25.7455 9.61246C25.095 9.81003 24.4294 10.2347 23.741 10.9231C22.4317 12.2324 22.1567 12.9259 20.4258 15.0401C19.9384 15.6354 19.7803 15.7116 19.7289 15.7309C19.6774 15.7501 19.3964 15.782 18.6433 15.7741C18.63 15.7739 18.6166 15.7739 18.6032 15.7741C17.9639 15.7835 17.357 15.8503 16.7899 16.178C16.2228 16.5058 15.9809 16.876 15.763 17.131C15.7609 17.134 15.7589 17.1371 15.7568 17.1402C15.6305 17.2896 15.6381 17.3098 15.6057 17.3684H14.3999C12.8463 17.3684 11.6191 18.3173 10.9367 19.2619C10.2543 20.2066 9.89466 21.202 9.61064 21.8647V21.8678C9.50951 22.1044 9.50319 22.117 9.4071 22.3242C9.1923 22.2589 9.05267 22.099 8.82733 22.1053C8.39856 22.1174 7.79237 22.1838 7.20521 22.6511C6.61804 23.1184 6.30471 23.9542 6.30471 24.6711C6.30471 25.5678 6.69785 26.2815 6.8999 26.6201C6.95503 26.7124 6.95033 26.7021 6.96775 26.7342C6.94507 26.7562 6.86925 27.0161 6.70562 27.5421C6.51456 28.1563 6.30471 28.9947 6.30471 30C6.30471 31.7698 6.29325 31.9448 6.30471 32.5935V32.5966C6.30997 32.8753 6.26794 33.0477 6.23687 33.2011C5.6123 33.2285 4.95669 33.2807 4.48831 33.3522C3.151 33.5564 3.14577 33.9566 2.15998 33.9566C1.96551 33.9566 1.6927 33.9628 1.34892 34.0923C1.00513 34.2218 0.625357 34.5179 0.408333 34.8448C-0.0180816 35.487 0.000888301 35.9966 0.00434446 36.5532C-0.0307643 37.5905 0.148759 38.4299 0.476178 39.3411C0.893753 40.5058 1.49666 41.0842 1.65114 41.4289L1.65422 41.4319C1.97801 42.1482 2.217 43.3615 2.61639 44.5652C2.572 44.4322 2.63585 44.7066 2.66265 45.0278C2.68963 45.351 2.71526 45.7661 2.77367 46.2058C2.83208 46.6455 2.89959 47.1049 3.15916 47.6429C3.41873 48.1808 4.19169 48.9474 5.1205 48.9474C6.35329 48.9474 7.1975 48.0173 7.55985 47.3684C7.92221 46.7195 8.08754 46.1039 8.15196 45.9406C8.19342 45.8352 8.19319 45.8305 8.2013 45.808C8.17189 45.8263 8.27068 45.7895 8.67314 45.7895H10.4495C11.3716 45.7895 12.0087 45.1377 12.2874 44.6854C12.5662 44.2332 12.69 43.8209 12.7932 43.4118C12.9997 42.5937 13.0664 41.7993 13.0954 41.3425C13.1125 41.0738 13.148 40.8634 13.1633 40.5993C13.1733 40.608 13.1714 40.6154 13.1818 40.624C13.4742 40.8656 13.9503 41.0526 14.3752 41.0526H15.7568C16.543 41.0526 16.6236 41.1315 16.5956 41.1112C16.5676 41.091 16.7751 41.3301 17.1816 42.0734C17.7083 43.0354 18.3883 43.6513 18.8839 44.0779C19.3795 44.5045 19.6801 44.7511 19.9786 45.222L19.9817 45.2251C20.1484 45.4868 20.376 45.9433 20.8514 46.4278C21.3267 46.9123 22.1758 47.3684 23.081 47.3684C23.7773 47.3684 24.5832 46.8575 24.8974 46.3076C25.0047 46.1199 24.9647 45.9627 25.0177 45.7864C25.351 45.7323 25.7324 45.7217 26.3222 45.33L26.3253 45.3269C26.8373 44.986 26.8444 44.6789 27.0006 44.3246C27.6581 44.3971 28.1707 44.4968 28.8726 44.707C30.2049 45.1061 31.0214 45.0428 31.5802 45.1943V45.1974C31.7312 46.4049 32.3305 47.2837 32.8384 47.8187C33.0924 48.0862 33.3256 48.2738 33.5169 48.4077C33.6125 48.4746 33.6551 48.5093 33.8376 48.5989C33.8622 48.611 33.9362 48.6363 33.9795 48.6544C34.0939 48.7234 34.1006 48.7597 34.2663 48.8148C34.6574 48.9447 34.9545 48.9474 35.3179 48.9474H36.169C36.17 48.9603 36.1712 48.9621 36.1721 48.9751C36.1961 49.3341 36.2098 49.7433 36.2276 50.1285C36.2455 50.5137 36.2407 50.8174 36.3417 51.2664C36.4254 51.6409 36.4521 52.0211 36.7827 52.5894C37.1134 53.1578 38.0635 53.678 38.7286 53.678C38.5585 53.678 38.7676 53.68 38.9044 53.6811C38.9451 53.7229 38.9548 53.7271 39.0124 53.7952C39.2556 54.0831 39.4774 54.5168 40.1226 55.0103L40.1256 55.0134C40.4114 55.2309 40.639 55.5515 41.0292 56.0742C41.4194 56.5969 42.0038 57.3075 42.9351 57.8074C43.6869 58.2108 44.3749 58.4178 45.1801 58.4211C45.9987 58.4244 46.6904 58.113 47.1569 57.8505C47.6241 57.5877 47.9449 57.3709 48.3349 57.2029C48.8763 56.9695 49.2517 56.8928 49.4235 56.8668C49.4228 56.9032 49.6986 56.9948 49.9879 57.243C50.189 57.4156 50.4 57.6127 50.6509 57.8166C50.9017 58.0205 51.0286 58.4211 52.0942 58.4211C52.3573 58.4211 52.7498 58.5143 53.4388 58.3995C53.7832 58.3421 54.2837 58.188 54.6908 57.7519C55.0979 57.3157 55.2521 56.7105 55.2521 56.25C55.2521 55.8534 55.2526 55.6246 55.2521 55.3803C55.3844 55.4734 55.4954 55.5643 55.7763 55.7072L55.7794 55.7103C56.2151 55.9304 57.5547 56.8421 60.1863 56.8421H60.1955C60.5558 56.8397 61.1376 57.0702 62.0089 57.4774C62.8801 57.8846 64.0443 58.4211 65.5152 58.4211C66.4362 58.4211 67.2619 57.9867 67.785 57.5113C68.308 57.036 68.6304 56.537 68.9044 56.139C69.1785 55.7409 69.4067 55.4425 69.5335 55.3279C69.6604 55.2133 69.573 55.262 69.6199 55.2632C70.5376 55.2867 71.5263 55.3038 72.5403 54.7296C73.5544 54.1555 74.1995 52.8461 74.1995 51.5132C74.2186 50.1957 74.1751 49.6014 74.2796 49.3452C74.3475 49.1787 74.4842 49.0641 74.8656 48.9905C75.2458 48.9173 75.7621 49.0364 75.874 49.1016C76.4604 49.45 77.1919 50.0985 77.9957 50.7299C78.7995 51.3612 79.7152 52.1053 81.1073 52.1053C82.5191 52.1053 83.9436 51.8555 85.1164 50.9056C85.1763 51.1964 85.2521 51.4441 85.2521 51.9079C85.2521 52.4745 85.2093 52.3948 84.8543 52.8207C84.4993 53.2466 83.723 54.348 83.8828 55.6517C83.9265 56.0143 83.968 56.0459 84.0154 56.1852C84.0632 56.3254 84.121 56.4749 84.1881 56.6417C84.3224 56.9751 84.495 57.3678 84.697 57.7673C84.899 58.1667 85.1198 58.5652 85.4032 58.9453C85.5449 59.1354 85.6965 59.3231 85.9367 59.522C86.1769 59.7209 86.5423 60 87.1918 60C87.8194 60 88.0093 59.8221 88.2126 59.707C88.4159 59.592 88.5774 59.4737 88.743 59.3462C89.0742 59.0913 89.4023 58.7974 89.7268 58.4889C90.3758 57.872 90.8919 57.36 91.278 56.8298C92.0822 55.7242 93.1073 54.2308 93.1468 52.3366C93.1469 52.3252 93.1469 52.3139 93.1468 52.3026C93.1468 48.6937 92.2707 45.4844 91.0467 42.6069V42.6038C90.7663 41.9453 90.2744 40.5382 89.3845 39.3719C88.9395 38.7888 88.3434 38.1409 87.3121 37.9595C86.2808 37.7781 85.201 38.3608 84.5366 39.1591C84.3429 39.3901 84.1499 39.4737 84.0679 39.4737C83.9912 39.4737 84.0098 39.4678 83.9507 39.4644C83.887 39.2984 83.6731 38.7672 83.6731 36.9079C83.6731 35.936 83.8332 34.7027 83.8952 34.3544V34.3514C84.1342 32.9943 84.5484 31.7801 85.2552 30.8851C85.5121 30.5602 85.7293 30.4234 86.168 30.0894C86.6067 29.7555 87.234 29.1836 87.6544 28.3316C88.5848 26.4484 88.4235 24.661 88.41 23.2741C88.4075 23.0351 88.3853 23.0137 88.373 23.0088C88.3842 23.0222 88.4078 23.0271 88.447 23.0027C88.5253 22.9538 88.7152 22.8888 89.0699 22.6388C89.14 22.5894 89.1714 22.3832 89.2519 22.2995C89.9375 23.4149 90.685 24.3819 91.1577 25.2385C91.4563 25.7806 91.7278 26.7443 92.1076 27.8104C92.4867 28.8747 93.0133 30.1182 94.1861 31.0238C95.0304 31.6798 96.0359 32.1418 96.9739 32.5072C97.4429 32.6899 97.8907 32.8399 98.2877 32.9513C98.6846 33.0627 98.9391 33.1579 99.4626 33.1579C99.8814 33.1579 100.283 32.9915 100.579 32.6954C100.875 32.3993 101.042 31.9977 101.042 31.5789C101.042 30.5895 100.474 29.7658 100.058 29.3493C99.6416 28.9328 99.3852 28.7144 99.3763 28.7017C99.0593 28.2473 98.8459 27.6541 98.5282 26.9716L98.5251 26.9655C98.2516 26.3709 98.1137 25.8875 97.6955 25.109C96.9236 23.6708 95.6882 22.5388 94.1892 21.9881L94.1861 21.985C93.8559 21.8647 93.6875 21.7038 93.483 21.2079C93.2785 20.7119 93.1468 19.9062 93.1468 18.9474V17.4023C93.3956 17.2797 93.7137 17.129 94.0473 16.764C94.4257 16.35 94.705 15.69 94.7258 15.0524C94.7696 13.7089 94.1352 12.9756 93.7389 12.2893C93.3427 11.6029 93.1468 10.9964 93.1468 11.0526C93.1468 10.0658 92.968 9.08394 92.16 8.4375C91.3519 7.79106 90.581 7.89474 90.1863 7.89474C90.1139 7.89474 90.103 7.89205 90.0722 7.85465C90.0414 7.81723 89.9157 7.65925 89.9797 7.08368C89.986 7.0253 89.9891 6.96662 89.9889 6.9079C89.9889 7.01754 90.0518 6.78679 90.4608 6.24486C90.8698 5.70293 91.5679 4.82632 91.5679 3.53413C91.5679 2.92969 91.4185 2.83725 91.352 2.7169C91.2855 2.59655 91.2324 2.52267 91.1824 2.45477C91.0823 2.31897 90.9875 2.21048 90.8802 2.09087C90.6656 1.85165 90.4099 1.5918 90.1339 1.33224C89.8578 1.07267 89.5709 0.82074 89.2766 0.598273C89.1294 0.48704 88.9815 0.381923 88.7955 0.277549C88.6094 0.173176 88.453 0 87.8179 0ZM78.116 3.16098C77.1648 3.22157 77.2033 5.52836 77.7089 6.26336C78.7558 6.76073 79.36 3.6902 78.5847 3.28125C78.4069 3.18711 78.2519 3.15232 78.116 3.16098ZM87.8888 3.56188C87.9185 3.58914 87.9396 3.60517 87.969 3.63281C88.0622 3.72051 88.1243 3.79082 88.2095 3.87644C88.1447 4.00659 88.1573 4.05171 87.9381 4.34211C87.5695 4.83052 86.9079 5.60573 86.865 6.82771C86.7594 7.98699 86.9961 9.0823 87.6359 9.85917C88.2524 10.6077 89.153 10.9447 90.0136 10.991C90.0029 10.9977 89.9889 10.9815 89.9889 11.0526C89.9889 12.3578 90.6012 13.1714 91.0035 13.8682C91.3311 14.4356 91.4094 14.7003 91.463 14.7471C91.315 14.8104 91.1689 14.8579 90.8833 15.0648C90.6162 15.2581 90.4319 15.7894 90.2572 16.2644C89.9754 16.0637 89.7781 15.7991 89.3752 15.8018C88.5886 15.8129 87.5591 16.378 87.1949 17.1063C86.8272 17.8417 86.831 18.4649 86.831 19.1447C86.8307 19.1632 86.8307 19.1817 86.831 19.2002C86.8424 19.5247 86.8351 19.9171 86.831 20.2919C86.7982 20.3119 86.8144 20.3005 86.7786 20.3228C86.1407 20.7205 85.2374 21.8949 85.2521 23.3049C85.2669 24.8358 85.3331 25.9 84.8234 26.9315C84.6501 27.2827 84.576 27.3325 84.256 27.5761C83.936 27.8196 83.3398 28.2175 82.7788 28.9268H82.7757C81.5973 30.4191 81.0749 32.1658 80.7866 33.8024C80.6813 34.3959 80.5152 35.6327 80.5152 36.9079C80.5152 39.1777 80.6366 40.4727 81.3911 41.5584L81.3941 41.5646C81.7264 42.0392 82.2532 42.3385 82.7079 42.4712C83.1625 42.6039 83.5889 42.6316 84.0679 42.6316C85.3087 42.6316 86.2445 41.9707 86.865 41.2654C86.8833 41.2866 86.8542 41.2608 86.8742 41.287C87.2936 41.8366 87.8063 43.0558 88.1417 43.8435C89.2441 46.4361 89.9812 49.1862 89.9858 52.2749C89.9721 52.8019 89.3683 54.0852 88.7245 54.9702C88.7554 54.9279 88.1017 55.6757 87.5527 56.1976C87.5251 56.2237 87.5061 56.2366 87.4786 56.2623C87.3411 55.9839 87.2063 55.688 87.1147 55.4605C87.0771 55.367 87.0541 55.3043 87.0315 55.2416C86.9951 55.0442 86.9211 55.2727 87.2813 54.8407C87.6655 54.3796 88.41 53.3149 88.41 51.9079C88.41 50.959 88.3239 50.0603 87.9721 49.2033C87.6205 48.3471 86.7126 47.3811 85.5327 47.3191H85.5296C84.2707 47.2533 83.7583 47.9665 83.2938 48.4786C83.2727 48.502 82.264 48.9474 81.1073 48.9474C81.1179 48.9474 80.6125 48.7718 79.9447 48.2473C79.277 47.7229 78.4842 46.9804 77.4869 46.3877V46.3847C76.5008 45.8007 75.3941 45.6746 74.2704 45.8912C73.1466 46.1079 71.8994 46.8213 71.3561 48.1548C70.846 49.4052 71.0586 50.3813 71.0416 51.4885C71.0415 51.4967 71.0415 51.5049 71.0416 51.5132C71.0416 52.1539 71.0365 51.9533 70.986 51.9819C70.9355 52.0105 70.445 52.1244 69.7001 52.1053C68.7798 52.082 67.9382 52.5113 67.4149 52.9842C66.8916 53.4571 66.5753 53.9528 66.3016 54.3503C66.028 54.7479 65.7971 55.0493 65.6602 55.1737C65.5233 55.2982 65.5811 55.2632 65.5152 55.2632C64.8152 55.2632 64.1679 55.0036 63.3442 54.6186C62.5205 54.2336 61.5236 53.6755 60.177 53.6842C58.09 53.6829 58.2338 53.4112 57.2073 52.8917H57.2042C57.1567 52.8671 57.0045 52.7561 56.7169 52.574C56.4281 52.3911 55.9364 52.11 55.2644 52.1053C54.7832 52.1019 54.1566 52.124 53.4542 52.5123C52.7518 52.9007 52.1123 53.873 52.0942 54.8376V54.8407C52.0937 54.8698 52.0946 54.8629 52.0942 54.89C52.0732 54.8718 52.0665 54.8654 52.0448 54.8468C51.5215 54.3977 50.8536 53.6574 49.4976 53.6842H49.4945C48.7536 53.6992 48.0059 53.9077 47.086 54.3041V54.301C46.3944 54.5988 45.905 54.93 45.6088 55.0966C45.3126 55.2634 45.2865 55.2636 45.1955 55.2632H45.1925C45.2208 55.2633 44.6705 55.156 44.4277 55.0257C44.0705 54.834 43.8846 54.6172 43.5611 54.1838C43.2382 53.7513 42.8101 53.09 42.0407 52.5031L42.0377 52.5C42.1475 52.583 41.7925 52.1929 41.424 51.7568C41.2389 51.5377 41.0262 51.2966 40.7116 51.0537C40.4354 50.8405 39.9774 50.6447 39.4287 50.5911C39.4255 50.5775 39.4288 50.5898 39.4256 50.5757C39.4437 50.6561 39.3986 50.3305 39.3824 49.9805C39.3662 49.6305 39.3531 49.1994 39.3238 48.7623C39.2946 48.3253 39.2617 47.8993 39.1419 47.4301C39.082 47.1955 39.0147 46.9437 38.7934 46.6129C38.5723 46.2822 37.9912 45.7895 37.2916 45.7895H35.3179C35.2547 45.7895 35.3332 45.8011 35.3025 45.7987C35.2716 45.7756 35.2092 45.7282 35.1298 45.6445C34.9537 45.459 34.7756 45.1861 34.7227 44.8304C34.7259 44.5302 34.7249 44.1605 34.5099 43.6585C34.2571 43.0683 33.6719 42.5893 33.153 42.3602C31.6134 41.6822 30.3838 41.8638 29.7761 41.6817C29.1295 41.488 28.0693 41.0526 26.4363 41.0526C25.8588 41.0526 25.1372 41.459 24.8481 41.8514C24.5589 42.2437 24.5071 42.5144 24.4534 42.6809C24.4403 42.7215 24.447 42.701 24.4379 42.7272C24.4043 42.7246 24.3297 42.7514 23.9969 42.8228C23.7782 42.8697 23.515 42.9069 23.118 43.1188C22.979 43.1931 22.9192 43.5247 22.7603 43.7017C22.7111 43.6254 22.7054 43.6249 22.6462 43.5321L22.6431 43.529C22.0724 42.6306 21.4028 42.0798 20.9439 41.6848C20.4842 41.2892 20.2247 41.0593 19.9509 40.5592C19.5379 39.8041 19.2295 39.1217 18.446 38.5547C17.6624 37.9877 16.747 37.8947 15.7568 37.8947H15.2326C15.1691 37.7026 15.1385 37.5361 14.9519 37.2595C14.6667 36.8365 13.9363 36.3158 13.2126 36.3158C12.4013 36.3158 11.5788 36.674 11.0724 37.1978C10.566 37.7216 10.3333 38.3121 10.1935 38.8353C9.91386 39.8818 9.96001 40.8856 9.9437 41.1421C9.92232 41.4781 9.84807 42.1641 9.73091 42.6316H8.67314C8.13087 42.6316 7.50003 42.6201 6.77963 42.9677C6.2917 43.2032 6.02371 43.7277 5.71878 44.1982C5.69509 44.0012 5.70297 43.8379 5.61393 43.5691C5.32174 42.6885 5.10138 41.3942 4.53148 40.1336C4.05835 39.0804 3.55238 38.5709 3.44596 38.2741C3.19589 37.5782 3.19193 37.381 3.19925 36.8771C3.94659 36.6891 4.97213 36.4717 4.96323 36.4731C5.45681 36.3977 6.36636 36.3089 6.66244 36.3158C6.67478 36.3159 6.68712 36.3159 6.69945 36.3158C7.81435 36.3158 8.80005 35.4084 9.12338 34.6382C9.44625 33.869 9.4743 33.1649 9.46261 32.538V32.535C9.45204 31.9351 9.46261 31.7807 9.46261 30C9.46261 29.4263 9.57601 28.9478 9.72166 28.4796C9.86704 28.0123 10.0925 27.632 10.1565 26.8575C10.1964 26.3762 10.006 26.2259 9.87585 25.9108C10.1631 25.9002 10.4737 25.9243 10.6715 25.8275C10.9828 25.6751 11.1655 25.5041 11.3222 25.3403L11.3284 25.3341C12.1887 24.4261 12.3449 23.5041 12.5126 23.1106V23.1075C12.8344 22.3565 13.156 21.5834 13.4963 21.1123C13.8371 20.6406 13.9798 20.5263 14.3999 20.5263H16.571C16.9087 20.5259 17.2373 20.4173 17.5087 20.2164C17.7802 20.0155 17.98 19.7328 18.079 19.41C18.0941 19.3769 18.1093 19.3435 18.1345 19.2928C18.1704 19.2205 18.2124 19.1438 18.2393 19.0954C18.2952 19.0333 18.3485 18.9767 18.375 18.9474C18.4215 18.9426 18.4873 18.9336 18.6248 18.9289C19.3594 18.9372 20.0317 18.9894 20.836 18.6883C21.3528 18.4948 21.7275 18.0317 22.1343 17.6367C22.1601 18.2271 22.2292 18.8187 22.3841 19.3729C22.5648 20.0197 22.7377 20.6022 23.3123 21.214C24.6046 22.5893 27.1899 23.6842 32.5547 23.6842C32.8179 23.6842 32.7184 23.6629 33.0666 24.0111C33.2407 24.1852 33.4729 24.4496 33.8654 24.7266C34.2578 25.0036 34.8683 25.2632 35.5152 25.2632C36.183 25.2632 36.8344 24.9194 37.1867 24.5878C37.1949 24.5801 37.1939 24.5771 37.2021 24.5693C37.2108 24.6245 37.2217 24.6425 37.2299 24.6988C37.3108 25.2598 37.3727 25.8561 37.4982 26.435C37.5609 26.7245 37.6215 27.0079 37.8158 27.3756C37.913 27.5595 38.047 27.7798 38.3123 28.0016C38.5775 28.2235 39.0246 28.4211 39.4626 28.4211C40.2409 28.4211 40.8506 27.942 41.1587 27.5576C41.1739 27.5386 41.1751 27.521 41.1896 27.5021C41.3156 27.7758 41.5172 28.0078 41.7708 28.1706C42.0243 28.3335 42.3192 28.4204 42.6205 28.4211C43.6183 28.4211 44.2454 27.816 44.6189 27.3941C44.9924 26.9723 45.2519 26.573 45.5163 26.2346C46.045 25.5578 46.3275 25.2632 46.9626 25.2632C47.5324 25.2632 48.0433 25.0028 48.338 24.7667C48.6328 24.5305 48.789 24.3197 48.9055 24.1745C48.993 24.0654 49.0231 24.0439 49.0504 24.0204C49.1882 23.9932 49.3057 23.9795 49.6055 23.9001C50.0155 23.7915 50.5977 23.511 51.0303 23.0798L51.0333 23.0767C51.5072 22.6029 51.7034 22.1309 51.8228 21.9017C51.9422 21.6726 51.949 21.6886 51.94 21.6951C52.1594 21.5352 52.567 21.4281 53.2784 21.251C53.9898 21.0739 55.0416 20.7604 55.8627 19.8448L55.8658 19.8417C56.1441 19.5299 56.1546 19.4271 56.2574 19.228C56.3848 19.3991 56.4068 19.565 57.0191 19.817C57.2236 19.9011 57.2637 19.8556 57.4324 19.8972C57.1373 20.3058 56.831 20.7872 56.831 21.2942C56.831 22.2153 57.5651 22.9171 58.0615 23.1661C58.5579 23.4151 58.994 23.4931 59.44 23.5578C60.3319 23.6872 61.264 23.6842 61.9626 23.6842C63.2565 23.6842 64.0473 22.8917 64.4914 22.4969C64.9355 22.1022 65.0328 22.1053 64.9231 22.1053C65.0281 22.1053 65.0434 22.1075 65.065 22.1083C65.0336 22.0833 65.0951 22.1221 65.2315 22.4507H65.2284C65.1147 22.1764 65.2038 22.3975 65.25 22.6079C65.2963 22.8184 65.3639 23.1088 65.4906 23.4437C65.6173 23.7785 65.7982 24.1755 66.1844 24.56C66.5708 24.9446 67.2327 25.2632 67.8837 25.2632C68.5674 25.2632 69.2645 24.9976 69.7402 24.5909C70.2158 24.1842 70.4865 23.6986 70.6622 23.2494C71.0138 22.3509 71.0416 21.5197 71.0416 20.9211C71.0416 19.9258 70.8751 19.975 71.5658 19.2434C71.8028 18.993 71.8302 18.9951 72.1672 18.9535C72.5055 18.9118 73.1395 18.9474 74.0021 18.9474C74.6342 18.9474 75.2746 18.83 75.8216 18.4663C76.3685 18.1026 76.6728 17.5685 76.83 17.2019C77.1439 16.4702 77.1599 16.2191 77.4314 15.9128C77.4832 15.8543 77.4213 15.8762 78.0235 15.8141C78.6287 15.7517 79.8891 15.543 80.7126 14.5189C81.7856 13.1837 82.0794 11.6858 82.3748 10.4729C82.6702 9.25988 82.9517 8.33835 83.5066 7.7097C84.1578 6.97372 85.6053 6.40847 86.8896 4.87253C87.2492 4.44388 87.5779 3.96084 87.8888 3.56188ZM41.535 6.31887C40.9444 6.37692 40.9677 7.07857 41.168 7.59252C41.4601 8.34094 42.7804 9.24262 43.5241 9.43051C44.1999 9.60104 45.7579 9.28604 45.7784 8.34498C45.8068 7.03919 43.8633 7.53269 43.1417 7.25637C42.6996 7.08743 42.2653 6.4179 41.8279 6.33738C41.7172 6.31705 41.6194 6.31058 41.535 6.31887ZM52.2422 7.89782C51.3157 8.03017 50.5166 9.31295 50.5152 9.92085C50.5105 11.094 51.4053 11.2125 52.5074 10.9046C53.8985 10.5178 53.8626 10.1717 53.3462 9.20539C53.0415 8.63855 53.4578 8.11685 52.6462 7.91632C52.5106 7.88297 52.3746 7.87891 52.2422 7.89782ZM73.0831 11.065C71.3071 11.1923 68.017 12.3363 67.8867 13.4211C67.8599 13.6547 67.9781 13.8878 68.2907 14.1057C68.6807 14.3773 70.0733 14.0743 70.8596 13.7695C71.6065 13.4806 71.573 12.9619 72.1888 12.5514C72.6119 12.2688 74.4004 11.9052 74.1809 11.3178C74.0981 11.0944 73.6751 11.0225 73.0831 11.065ZM54.2807 12.6377C53.3531 12.5329 51.9259 14.0108 52.1096 15C52.1617 15.2779 52.3419 15.5175 52.6955 15.6723C53.8324 16.1697 55.3564 15 55.2459 13.8158C55.2112 13.4574 55.0299 13.1 54.6415 12.7858C54.5355 12.7001 54.4132 12.6527 54.2807 12.6377ZM40.5697 12.647C39.1361 12.7452 37.8179 13.356 36.4373 14.5097C35.5421 15.2581 34.3376 16.3554 34.846 17.868C35.1634 18.817 36.5052 19.6481 36.5699 18.0376C36.8162 15.6866 39.3457 14.8736 40.9799 14.6762C41.793 14.5783 42.8898 14.9454 43.6351 14.448C44.6946 13.739 44.0802 13.2539 43.3144 13.0171C42.3321 12.7127 41.4299 12.5881 40.5697 12.647ZM3.82836 14.2105C2.22447 14.2173 3.81797 16.6426 4.9108 17.1649C7.12291 18.218 6.4296 14.881 4.7196 14.3678C4.34914 14.2575 4.05748 14.2096 3.82836 14.2105ZM17.8724 18.0592L17.8816 18.0685L17.8847 18.0808C17.8806 18.0736 17.8765 18.0664 17.8724 18.0592ZM6.69945 33.1579H6.73646C6.72136 33.1575 6.70843 33.1611 6.69328 33.161L6.69945 33.1579ZM98.4758 34.7615C98.291 34.7631 97.8837 34.7368 97.8837 35.3289C97.8837 35.8926 98.8918 36.7028 99.037 37.2965C99.2139 38.0212 98.9872 38.7581 99.1388 39.486C99.2604 40.0734 99.5826 40.6256 99.7247 41.213C99.8637 41.7909 100.103 43.5023 100.943 42.0765C101.325 41.4307 100.562 39.9395 100.033 39.4737C100.646 37.8947 100.055 34.7378 98.4758 34.7615ZM2.47145 37.0436C2.46845 37.0448 2.46517 37.0486 2.4622 37.0498C2.26437 37.1243 2.15998 37.1145 2.15998 37.1145C2.35742 37.1145 2.29262 37.0576 2.47145 37.0436ZM91.8608 39.4737C91.6605 39.4623 91.4998 39.5824 91.4044 39.89C91.1897 40.5863 92.1493 41.8345 92.4745 42.3571C93.433 43.8997 94.5016 45.3344 95.3148 46.986C95.5406 47.4455 95.7362 48.5028 96.1783 48.787C96.9772 49.3049 96.9368 48.4337 97.3347 47.9143C97.3995 47.8306 97.8836 48.3526 97.8867 47.612C97.8883 47.2236 97.2305 46.928 97.0048 46.7732C96.6116 46.5048 95.0567 45.8973 95.543 45.0463C95.8446 44.5173 96.7637 45.3688 96.6532 44.3709C96.5774 43.7014 95.2196 42.9034 94.8059 42.4897C94.3582 42.042 92.729 39.523 91.8608 39.4737ZM100.246 44.2105C99.9428 44.2768 99.2285 48.8468 99.4811 48.9258C100.694 49.3 101.872 44.5879 100.246 44.2105ZM33.4583 48.3306C33.4901 48.3586 33.523 48.3854 33.557 48.4108C33.5395 48.3975 33.5259 48.3941 33.486 48.3583C33.4802 48.3531 33.465 48.3366 33.4583 48.3306Z" fill="#2AB346"/>
</svg>
