<svg width="24" height="24" viewBox="0 0 24 24" fill="none" xmlns="http://www.w3.org/2000/svg">
<g clip-path="url(#clip0_0_1245)">
<path d="M21.414 1.875H2.586C1.15997 1.875 0 3.03497 0 4.461V19.5234C0 20.9495 1.15997 22.1094 2.586 22.1094H21.414C22.84 22.1094 24 20.9495 24 19.5234V4.461C24 3.03497 22.84 1.875 21.414 1.875V1.875ZM22.5938 19.5234C22.5938 20.174 22.0646 20.7032 21.414 20.7032H2.586C1.93542 20.7032 1.40625 20.174 1.40625 19.5234V4.461C1.40625 3.81042 1.93542 3.28125 2.586 3.28125H21.414C22.0646 3.28125 22.5938 3.81042 22.5938 4.461V19.5234Z" fill="#2AB346"/>
<path d="M19.5314 5.64075H4.46875C4.08057 5.64075 3.76562 5.95551 3.76562 6.34387C3.76562 6.73206 4.08057 7.047 4.46875 7.047H19.5314C19.9196 7.047 20.2345 6.73206 20.2345 6.34387C20.2345 5.95551 19.9196 5.64075 19.5314 5.64075Z" fill="#2AB346"/>
<path d="M5.22168 9.40625C4.8335 9.40625 4.51855 9.72101 4.51855 10.1094V17.6407C4.51855 18.0289 4.8335 18.3438 5.22168 18.3438C5.61005 18.3438 5.9248 18.0289 5.9248 17.6407V10.1094C5.9248 9.72101 5.61005 9.40625 5.22168 9.40625Z" fill="#2AB346"/>
<path d="M12 9.40625C11.6116 9.40625 11.2969 9.72101 11.2969 10.1094V17.6407C11.2969 18.0289 11.6116 18.3438 12 18.3438C12.3884 18.3438 12.7031 18.0289 12.7031 17.6407V10.1094C12.7031 9.72101 12.3884 9.40625 12 9.40625Z" fill="#2AB346"/>
<path d="M18.7783 9.40625C18.39 9.40625 18.0752 9.72101 18.0752 10.1094V17.6407C18.0752 18.0289 18.39 18.3438 18.7783 18.3438C19.1665 18.3438 19.4814 18.0289 19.4814 17.6407V10.1094C19.4814 9.72101 19.1665 9.40625 18.7783 9.40625Z" fill="#2AB346"/>
<path d="M8.98749 9.40625H8.23438C7.84601 9.40625 7.53125 9.72101 7.53125 10.1094V17.6407C7.53125 18.0289 7.84601 18.3438 8.23438 18.3438H8.98749C9.37567 18.3438 9.69061 18.0289 9.69061 17.6407V10.1094C9.69061 9.72101 9.37585 9.40625 8.98749 9.40625Z" fill="#2AB346"/>
<path d="M15.7656 9.40625H15.0125C14.6243 9.40625 14.3093 9.72101 14.3093 10.1094V17.6407C14.3093 18.0289 14.6243 18.3438 15.0125 18.3438H15.7656C16.1539 18.3438 16.4687 18.0289 16.4687 17.6407V10.1094C16.4687 9.72101 16.1539 9.40625 15.7656 9.40625Z" fill="#2AB346"/>
</g>
<defs>
<clipPath id="clip0_0_1245">
<rect width="24" height="24" fill="white"/>
</clipPath>
</defs>
</svg>
