<svg width="18" height="18" viewBox="0 0 18 18" fill="none" xmlns="http://www.w3.org/2000/svg">
<path fill-rule="evenodd" clip-rule="evenodd" d="M5.25 16.2584C5.25 15.4032 5.92157 14.71 6.75 14.71C7.57842 14.71 8.25 15.4032 8.25 16.2584C8.25 17.1135 7.57842 17.8068 6.75 17.8068C5.92157 17.8068 5.25 17.1135 5.25 16.2584Z" fill="white"/>
<path fill-rule="evenodd" clip-rule="evenodd" d="M13.5 16.2584C13.5 15.4032 14.1716 14.71 15 14.71C15.8284 14.71 16.5 15.4032 16.5 16.2584C16.5 17.1135 15.8284 17.8068 15 17.8068C14.1716 17.8068 13.5 17.1135 13.5 16.2584Z" fill="white"/>
<path fill-rule="evenodd" clip-rule="evenodd" d="M0 0.774208C0 0.346625 0.335786 0 0.75 0H3.75C4.10747 0 4.41526 0.260455 4.48542 0.622287L5.11532 3.87104H17.25C17.4735 3.87104 17.6854 3.97395 17.8279 4.15173C17.9704 4.32951 18.0286 4.56362 17.9867 4.79027L16.7856 11.2917C16.6828 11.8264 16.401 12.3066 15.9896 12.6485C15.5803 12.9886 15.0687 13.17 14.5435 13.1615H7.26649C6.74129 13.17 6.22964 12.9886 5.82035 12.6485C5.40917 12.3068 5.12748 11.8268 5.0245 11.2924L3.7716 4.83044C3.76652 4.80906 3.76229 4.78735 3.75897 4.76532L3.13524 1.54842H0.75C0.335786 1.54842 0 1.20179 0 0.774208ZM5.41555 5.41946L6.49564 10.99C6.52993 11.1683 6.62385 11.3284 6.76096 11.4423C6.89807 11.5562 7.06965 11.6167 7.24564 11.6133L7.25999 11.6131H14.55L14.5644 11.6133C14.7404 11.6167 14.9119 11.5562 15.049 11.4423C15.1855 11.3289 15.2792 11.1698 15.3139 10.9925L16.3435 5.41946H5.41555Z" fill="white"/>
</svg>
