<svg width="75" height="75" viewBox="0 0 75 75" fill="none" xmlns="http://www.w3.org/2000/svg">
<path d="M43.5977 47.8125H31.4009C17.6834 47.8125 6.56274 58.9331 6.56274 72.6525V73.125H68.4377V72.6525C68.4377 58.9331 57.3171 47.8125 43.5977 47.8125Z" fill="#EEF6F2"/>
<path d="M17.8127 60H57.1877V73.125H17.8127V60Z" fill="#EEF6F2"/>
<path d="M68.4372 73.125C67.9197 73.125 67.4997 72.705 67.4997 72.1875C67.4997 59.2631 56.9866 48.75 44.0622 48.75H30.9373C18.0129 48.75 7.49976 59.2631 7.49976 72.1875C7.49976 72.705 7.07976 73.125 6.56226 73.125C6.04476 73.125 5.62476 72.705 5.62476 72.1875C5.62476 58.23 16.9798 46.875 30.9373 46.875H44.0622C58.0197 46.875 69.3747 58.23 69.3747 72.1875C69.3747 72.705 68.9547 73.125 68.4372 73.125Z" fill="#2AB346"/>
<path d="M37.4998 53.0869C31.4641 53.0869 29.4204 49.1457 29.0623 48.3338V38.0869H45.9373V48.3338C45.5866 49.14 43.5429 53.0869 37.4998 53.0869Z" fill="white"/>
<path d="M45.0002 39.0244V48.1275C44.5465 49.0425 42.634 52.1494 37.5002 52.1494C32.3815 52.1494 30.454 49.0444 30.0002 48.1219V39.0244H45.0002ZM46.8752 37.1494H28.1252V48.5175C28.1252 48.5175 30.124 54.0263 37.5002 54.0263C44.8765 54.0263 46.8752 48.5175 46.8752 48.5175V37.1494ZM49.0221 21.2119C46.0634 21.2119 43.6615 23.6063 43.6615 26.565C43.6615 29.5238 46.0634 31.9257 49.0221 31.9257C51.9809 31.9257 54.3752 27.7388 54.3752 24.78C54.3752 21.8269 51.9809 21.2119 49.0221 21.2119ZM25.9784 21.2119C23.0196 21.2119 20.6252 21.8269 20.6252 24.7857C20.6252 27.7444 23.0196 31.9275 25.9784 31.9275C28.9371 31.9275 31.339 29.5332 31.339 26.5744C31.339 23.6157 28.939 21.2119 25.9784 21.2119Z" fill="#2AB346"/>
<path d="M37.5 44.6494C36.3656 44.6494 35.3025 44.2969 34.4231 43.635L34.2469 43.5019L34.035 43.4569C27.795 42.09 23.4375 37.2788 23.4375 31.7513V16.7663C23.4375 13.8188 26.22 11.4263 29.6494 11.4263H45.3525C48.7725 11.4263 51.5644 13.8188 51.5644 16.7663V31.7531C51.5644 37.2825 47.2069 42.0938 40.9669 43.4588L40.755 43.5038L40.5787 43.6369C39.6975 44.2969 38.6344 44.6494 37.5 44.6494Z" fill="white"/>
<path d="M45.3527 12.5698C48.259 12.5698 50.6252 14.9361 50.6252 17.8423V29.6492C50.6252 35.6473 46.5602 40.8767 40.7384 42.3561L40.2996 42.4667L39.9621 42.7592C39.4634 43.198 38.644 43.7117 37.5002 43.7117C36.3565 43.7117 35.5371 43.1998 35.0384 42.7592L34.7009 42.4667L34.2621 42.3561C28.4402 40.8786 24.3752 35.6473 24.3752 29.6492V17.8423C24.3752 14.9342 26.7415 12.5679 29.6496 12.5679H45.3527V12.5698ZM45.3527 10.6948H29.6496C25.7009 10.6948 22.5002 13.8954 22.5002 17.8423V29.6492C22.5002 36.6579 27.3115 42.5248 33.8009 44.173C34.7965 45.0448 36.079 45.5867 37.5002 45.5867C38.9215 45.5867 40.2021 45.0448 41.1996 44.173C47.689 42.5248 52.5002 36.6598 52.5002 29.6492V17.8423C52.5002 13.8954 49.2996 10.6948 45.3527 10.6948Z" fill="#2AB346"/>
<path d="M51.5625 21.5625H23.4375V14.2856C23.4375 8.985 27.735 4.6875 33.0356 4.6875H41.9644C47.265 4.6875 51.5625 8.985 51.5625 14.2856V21.5625Z" fill="#EEF6F2"/>
<path d="M52.5002 22.5H22.5002V14.2856C22.5002 8.47687 27.2271 3.75 33.0359 3.75H41.9646C47.7734 3.75 52.5002 8.47687 52.5002 14.2856V22.5ZM24.3752 20.625H50.6252V14.2856C50.6252 9.51 46.7402 5.625 41.9646 5.625H33.0359C28.2602 5.625 24.3752 9.51 24.3752 14.2856V20.625Z" fill="#2AB346"/>
<path d="M29.053 19.3369C31.3311 18.8119 34.0311 18.5869 37.4905 18.5869C40.9499 18.5869 43.6499 18.8119 45.928 19.3369C46.0124 17.5369 46.1811 7.78691 37.4905 4.33691C37.4905 4.33691 29.1374 6.58691 29.053 19.3369Z" fill="white"/>
<path d="M23.2971 19.3519C24.0415 21.3488 25.5077 24.9206 26.2034 26.0456C26.9196 27.1669 27.6377 27.54 28.594 27.54C29.2315 27.54 29.9477 27.315 30.8252 27.0169C32.2596 26.4938 34.1721 26.0456 37.3596 26.0456C40.5471 26.0456 42.5402 26.4938 43.9746 27.0169C44.8521 27.315 45.4896 27.54 46.1271 27.54C47.0834 27.54 47.7209 27.1669 48.5177 26.0456C49.2359 24.9994 51.1484 20.2181 51.7052 18.5756C51.3059 18.3506 45.4896 15.5869 37.3615 15.5869C29.7115 15.5869 25.0615 17.565 23.5465 18.3056L23.2971 19.3519ZM37.5002 2.8125C36.5057 2.8125 35.5519 3.01004 34.8486 3.36167C34.1453 3.71331 33.7502 4.19022 33.7502 4.6875C33.7502 5.18478 34.1453 5.66169 34.8486 6.01333C35.5519 6.36496 36.5057 6.5625 37.5002 6.5625C38.4948 6.5625 39.4486 6.36496 40.1519 6.01333C40.8552 5.66169 41.2502 5.18478 41.2502 4.6875C41.2502 4.19022 40.8552 3.71331 40.1519 3.36167C39.4486 3.01004 38.4948 2.8125 37.5002 2.8125Z" fill="#EEF6F2"/>
<path d="M37.4997 7.5C34.8278 7.5 32.8122 6.29063 32.8122 4.6875C32.8122 3.08437 34.8278 1.875 37.4997 1.875C40.1715 1.875 42.1872 3.08437 42.1872 4.6875C42.1872 6.29063 40.1715 7.5 37.4997 7.5ZM37.4997 3.75C35.6847 3.75 34.6872 4.45312 34.6872 4.6875C34.6872 4.92188 35.6847 5.625 37.4997 5.625C39.3147 5.625 40.3122 4.92188 40.3122 4.6875C40.3122 4.45312 39.3147 3.75 37.4997 3.75ZM51.8753 21.2119V17.5406C50.3359 16.8412 44.9153 14.6494 37.5315 14.6494C29.8759 14.6494 25.0309 16.6181 23.304 17.4637C23.229 17.5013 23.1728 17.5556 23.1128 17.6081V21.03C23.9115 23.0531 24.984 25.575 25.5859 26.55C26.9378 28.6594 28.6797 28.7925 31.3197 27.8962C32.4878 27.4706 34.2503 26.9813 37.5315 26.9813C40.1134 26.9813 42.1122 27.2719 43.9272 27.9319C44.8197 28.2356 45.5247 28.4756 46.2972 28.4756C47.5853 28.4756 48.4984 27.9281 49.4622 26.5744C50.0209 25.7588 51.0915 23.2294 51.8847 21.21H51.8753V21.2119ZM47.9247 25.5019C47.1972 26.5238 46.7922 26.6025 46.2972 26.6025C45.8359 26.6025 45.2884 26.4169 44.4672 26.1356C42.5434 25.4344 40.3403 25.1081 37.5315 25.1081C34.7397 25.1081 32.6265 25.425 30.6953 26.13C29.9359 26.3888 29.2647 26.6025 28.7659 26.6025C28.1678 26.6025 27.7365 26.4338 27.1722 25.5525C26.5403 24.5288 25.1078 21.06 24.354 19.0387C26.1353 18.2025 30.5809 16.5225 37.5315 16.5225C44.0397 16.5225 48.9409 18.3169 50.7034 19.0669C49.9478 21.1144 48.4647 24.7144 47.9247 25.5019Z" fill="#2AB346"/>
<path d="M57.1873 73.125C56.6698 73.125 56.2498 72.705 56.2498 72.1875V60H18.7498V72.1875C18.7498 72.705 18.3298 73.125 17.8123 73.125C17.2948 73.125 16.8748 72.705 16.8748 72.1875V59.0625C16.8748 58.545 17.2948 58.125 17.8123 58.125H57.1873C57.7048 58.125 58.1248 58.545 58.1248 59.0625V72.1875C58.1248 72.705 57.7048 73.125 57.1873 73.125Z" fill="#2AB346"/>
<path d="M32.8125 59.0625H42.1875V66.5625H32.8125V59.0625Z" fill="white"/>
<path d="M42.1877 67.5H32.8127C32.2952 67.5 31.8752 67.08 31.8752 66.5625V59.0625C31.8752 58.545 32.2952 58.125 32.8127 58.125H42.1877C42.7052 58.125 43.1252 58.545 43.1252 59.0625V66.5625C43.1252 67.08 42.7052 67.5 42.1877 67.5ZM33.7502 65.625H41.2502V60H33.7502V65.625Z" fill="#2AB346"/>
</svg>
