<svg width="88" height="88" viewBox="0 0 88 88" fill="none" xmlns="http://www.w3.org/2000/svg">
<path d="M62.6313 52.9375H27.5688V85.25H62.6313V52.9375Z" fill="#EEF6F2"/>
<path d="M68.8188 85.25C72.6158 85.25 75.6938 82.172 75.6938 78.375C75.6938 74.578 72.6158 71.5 68.8188 71.5C65.0219 71.5 61.9438 74.578 61.9438 78.375C61.9438 82.172 65.0219 85.25 68.8188 85.25Z" fill="white"/>
<path d="M60.5688 30.25H39.9438C38.7751 30.25 37.8813 31.1437 37.8813 32.3125V50.875H27.5688C26.4001 50.875 25.5063 51.7687 25.5063 52.9375V85.25C25.5063 86.4188 26.4001 87.3125 27.5688 87.3125H53.6938C54.8626 87.3125 55.7563 86.4188 55.7563 85.25C55.7563 84.0812 54.8626 83.1875 53.6938 83.1875H29.6313V55H39.9438H60.5688C61.7376 55 62.6313 54.1063 62.6313 52.9375V32.3125C62.6313 31.1437 61.6688 30.25 60.5688 30.25Z" fill="#2AB346"/>
<path d="M68.8188 87.3125C63.8688 87.3125 59.8813 83.325 59.8813 78.375C59.8813 73.425 63.8688 69.4375 68.8188 69.4375C73.7688 69.4375 77.7563 73.425 77.7563 78.375C77.7563 83.325 73.7001 87.3125 68.8188 87.3125ZM68.8188 73.5625C66.1376 73.5625 64.0063 75.6937 64.0063 78.375C64.0063 81.0562 66.1376 83.1875 68.8188 83.1875C71.5001 83.1875 73.6313 81.0562 73.6313 78.375C73.6313 75.6937 71.4313 73.5625 68.8188 73.5625Z" fill="#2AB346"/>
<path d="M85.3188 0.6875H80.5063C72.9438 0.6875 66.7563 6.875 66.7563 14.4375V63.25C66.7563 64.4188 67.6501 65.3125 68.8188 65.3125C69.9876 65.3125 70.8813 64.4188 70.8813 63.25V34.7188C73.2876 35.5438 75.0063 37.8812 75.0063 40.5625V66C75.0063 67.1687 75.9001 68.0625 77.0688 68.0625C78.2376 68.0625 79.1313 67.1687 79.1313 66V40.5625C79.1313 35.6125 75.5563 31.4187 70.8813 30.4562V14.4375C70.8813 9.14375 75.2126 4.8125 80.5063 4.8125H85.3188C86.4876 4.8125 87.3813 3.91875 87.3813 2.75C87.3813 1.58125 86.4188 0.6875 85.3188 0.6875Z" fill="#2AB346"/>
</svg>
