<svg width="68" height="61" viewBox="0 0 68 61" fill="none" xmlns="http://www.w3.org/2000/svg">
<path d="M27.5001 0C26.8371 0 26.2012 0.263392 25.7324 0.732233C25.2635 1.20107 25.0001 1.83696 25.0001 2.5C25.0001 3.16304 25.2635 3.79893 25.7324 4.26777C26.2012 4.73661 26.8371 5 27.5001 5C28.1632 5 28.7991 4.73661 29.2679 4.26777C29.7368 3.79893 30.0001 3.16304 30.0001 2.5C30.0001 1.83696 29.7368 1.20107 29.2679 0.732233C28.7991 0.263392 28.1632 0 27.5001 0ZM40.5001 0C39.8371 0 39.2012 0.263392 38.7324 0.732233C38.2635 1.20107 38.0001 1.83696 38.0001 2.5C38.0001 3.16304 38.2635 3.79893 38.7324 4.26777C39.2012 4.73661 39.8371 5 40.5001 5C41.1632 5 41.7991 4.73661 42.2679 4.26777C42.7368 3.79893 43.0001 3.16304 43.0001 2.5C43.0001 1.83696 42.7368 1.20107 42.2679 0.732233C41.7991 0.263392 41.1632 0 40.5001 0ZM22.797 8.98828C22.6236 8.99186 22.4542 9.04048 22.3052 9.12934C22.1563 9.21821 22.033 9.34427 21.9475 9.49516C21.862 9.64605 21.8173 9.81658 21.8176 9.99001C21.8179 10.1634 21.8633 10.3338 21.9494 10.4844C24.5901 15.2631 29.4373 18.1662 34.5763 17.9395H34.5783C38.2975 17.7751 41.1211 16.0128 43.0099 14.2656C44.8987 12.5184 45.8879 10.7826 46.0529 10.4824C46.118 10.3673 46.1597 10.2403 46.1755 10.109C46.1912 9.9776 46.1808 9.84441 46.1447 9.71712C46.1086 9.58982 46.0476 9.47095 45.9653 9.36739C45.8829 9.26383 45.7808 9.17764 45.6649 9.11382C45.549 9.04999 45.4216 9.00979 45.2901 8.99556C45.1586 8.98132 45.0255 8.99333 44.8986 9.03088C44.7718 9.06844 44.6536 9.13079 44.551 9.21434C44.4484 9.29788 44.3634 9.40095 44.3009 9.51758C44.2109 9.68142 43.3062 11.2653 41.6505 12.7969C39.9948 14.3284 37.6242 15.8028 34.4884 15.9414C30.1555 16.1326 26.0066 13.6909 23.6994 9.51562C23.6122 9.35306 23.4818 9.21777 23.3226 9.1247C23.1633 9.03164 22.9814 8.98442 22.797 8.98828ZM18.3009 15.7793L7.83803 19C7.67226 19.0035 7.50996 19.0482 7.36574 19.13C7.22153 19.2119 7.09992 19.3283 7.01186 19.4688L0.152486 30.4258C0.0755149 30.5487 0.026196 30.6869 0.00794841 30.8307C-0.0102991 30.9746 0.00296122 31.1207 0.0468102 31.259C0.0906591 31.3972 0.164048 31.5243 0.261888 31.6313C0.359728 31.7383 0.479678 31.8228 0.613423 31.8789L6.85952 34.5039V50.2617C6.85981 50.4653 6.92223 50.664 7.03845 50.8312C7.15468 50.9984 7.31915 51.1261 7.50991 51.1973L33.5802 60.9375C33.7112 60.9861 33.8509 61.0067 33.9904 60.998C33.9938 60.9981 33.9967 61 34.0001 61C34.0092 61 34.0166 60.9944 34.0255 60.9941C34.0904 60.988 34.1545 60.9756 34.2169 60.957C34.3079 60.9361 34.393 60.9093 34.4728 60.8652L60.3498 51.1973C60.5405 51.1261 60.705 50.9984 60.8212 50.8312C60.9374 50.664 60.9999 50.4653 61.0001 50.2617V34.5566L67.3869 31.8789C67.5206 31.8228 67.6406 31.7383 67.7384 31.6313C67.8362 31.5243 67.9096 31.3972 67.9535 31.259C67.9973 31.1207 68.0106 30.9746 67.9923 30.8307C67.9741 30.6869 67.9248 30.5487 67.8478 30.4258L60.9728 19.4688C60.8865 19.3316 60.7682 19.2174 60.628 19.1361C60.4879 19.0548 60.33 19.0087 60.1681 19.002L49.6994 15.7793C49.3594 16.3893 48.9902 16.9693 48.5802 17.5293L56.9357 20.1055L33.9669 28.5352L11.0548 20.1094L19.4201 17.5293C19.0101 16.9693 18.6409 16.3893 18.3009 15.7793ZM8.27749 21.2188L32.4884 30.123L26.631 40.6426L2.4728 30.4902L8.27749 21.2188ZM59.7091 21.2188L65.5275 30.4902L41.3126 40.6445L35.4435 30.1211L59.7091 21.2188ZM33.3263 32.7305C33.5047 32.8951 33.7397 33 34.0001 33C34.2398 33 34.4524 32.9037 34.6251 32.7617L40.0021 42.4004C40.1218 42.6152 40.3165 42.7783 40.5488 42.8586C40.7812 42.939 41.0351 42.9309 41.2619 42.8359L59.0001 35.3965V49.5664L33.9298 58.9316L8.85952 49.5664V35.3438L26.6818 42.834C26.9088 42.9295 27.1631 42.9379 27.3959 42.8575C27.6288 42.7771 27.8237 42.6137 27.9435 42.3984L33.3263 32.7305ZM34.0001 35C33.4501 35 33.0001 35.45 33.0001 36C33.0001 36.55 33.4501 37 34.0001 37C34.5501 37 35.0001 36.55 35.0001 36C35.0001 35.45 34.5501 35 34.0001 35ZM34.0001 39C33.4501 39 33.0001 39.45 33.0001 40C33.0001 40.55 33.4501 41 34.0001 41C34.5501 41 35.0001 40.55 35.0001 40C35.0001 39.45 34.5501 39 34.0001 39ZM34.0001 43C33.4501 43 33.0001 43.45 33.0001 44C33.0001 44.55 33.4501 45 34.0001 45C34.5501 45 35.0001 44.55 35.0001 44C35.0001 43.45 34.5501 43 34.0001 43ZM34.0001 47C33.4501 47 33.0001 47.45 33.0001 48C33.0001 48.55 33.4501 49 34.0001 49C34.5501 49 35.0001 48.55 35.0001 48C35.0001 47.45 34.5501 47 34.0001 47ZM34.0001 51C33.4501 51 33.0001 51.45 33.0001 52C33.0001 52.55 33.4501 53 34.0001 53C34.5501 53 35.0001 52.55 35.0001 52C35.0001 51.45 34.5501 51 34.0001 51ZM34.0001 55C33.4501 55 33.0001 55.45 33.0001 56C33.0001 56.55 33.4501 57 34.0001 57C34.5501 57 35.0001 56.55 35.0001 56C35.0001 55.45 34.5501 55 34.0001 55Z" fill="#2AB346"/>
</svg>
