<svg width="64" height="75" viewBox="0 0 64 75" fill="none" xmlns="http://www.w3.org/2000/svg">
<path d="M47.0564 0C37.8628 0 30.4231 7.39008 30.1207 16.9015C29.8788 25.6859 38.2866 37.258 43.3068 43.3162C44.2141 44.4067 45.6048 45.0722 47.0564 45.0722C48.5081 45.0722 49.8382 44.4067 50.806 43.3162C55.8262 37.1974 64.2945 25.6859 63.9921 16.9015C63.6897 7.39008 56.2501 6.05822e-08 47.0564 0ZM47.0564 10.9048C50.3831 10.9048 53.1049 13.631 53.1049 16.963C53.1049 20.295 50.3831 23.0212 47.0564 23.0212C43.7298 23.0212 41.008 20.295 41.008 16.963C41.008 13.631 43.7298 10.9048 47.0564 10.9048ZM19.38 28.9599C19.1503 28.9505 18.9157 28.9886 18.6889 29.0794C17.7211 29.4429 17.238 30.4721 17.6009 31.3808L19.8383 37.6816C20.0803 38.4086 20.8066 38.8933 21.5324 38.8933C21.7138 38.8933 21.9558 38.8332 22.1372 38.7726L27.8218 36.7126C28.7896 36.3491 29.2739 35.3187 28.911 34.41C28.5481 33.5012 27.5194 32.9557 26.6121 33.2587L22.6204 34.7129L20.9878 30.1692C20.7156 29.4422 20.0689 28.9883 19.38 28.9599ZM12.5447 31.4436C12.3151 31.4341 12.0817 31.4722 11.8548 31.5631C10.8871 31.9266 10.4027 32.9557 10.7656 33.8645L16.5719 49.7981L1.2086 55.3711C0.240843 55.7952 -0.242325 56.8251 0.120583 57.7944C0.362521 58.5214 1.08763 59.0061 1.81344 59.0061C1.9949 59.0061 2.23684 58.946 2.41829 58.8854L17.7816 53.3123L25.2217 73.7884C25.4636 74.5153 26.1887 75 26.9146 75C27.096 75 27.338 74.9399 27.5194 74.8793C28.4872 74.5158 28.9715 73.4854 28.6086 72.5767L20.5637 50.2832L14.1525 32.6528C13.8804 31.9258 13.2337 31.472 12.5447 31.4436ZM32.6004 38.8601C32.3622 38.8478 32.117 38.8779 31.875 38.9536L23.3469 42.1046C23.2864 42.1046 23.2255 42.1649 23.165 42.1649C23.1045 42.1649 23.0435 42.2253 22.9831 42.2253C22.9226 42.2859 22.8626 42.2854 22.8626 42.346C22.8021 42.4066 22.7421 42.4073 22.7421 42.4679C22.6816 42.5284 22.6809 42.5885 22.6204 42.5885L22.4999 42.7104C22.4394 42.771 22.4387 42.8309 22.3782 42.8915C22.3782 42.952 22.318 43.0133 22.318 43.0133C22.318 43.0739 22.2577 43.1338 22.2577 43.1944C22.2577 43.2549 22.1975 43.316 22.1975 43.3766V43.5576V43.7398V43.9221V44.1031C22.1975 44.1637 22.2577 44.2247 22.2577 44.2853C22.2577 44.3459 22.2575 44.4058 22.318 44.4664L32.0558 71.184C32.2977 71.911 33.024 72.3957 33.7498 72.3957C33.9313 72.3957 34.1732 72.3344 34.3546 72.2738C35.3224 71.9103 35.8068 70.8811 35.4438 69.9724L31.5123 59.1279L50.806 52.1007L52.2579 56.0988C52.4998 56.8258 53.2261 57.3105 53.9519 57.3105C54.1334 57.3105 54.3753 57.2492 54.5568 57.1886C55.5245 56.8251 56.0077 55.7959 55.6448 54.8872L54.1941 50.889L58.1858 49.4348C59.1536 49.0713 59.6368 48.0409 59.2738 47.1322C58.9109 46.1629 57.8834 45.6789 56.9761 46.0424L51.2903 48.1013L30.3026 55.7959L26.3711 44.9515L33.145 42.4075C34.1127 42.044 34.5366 41.0139 34.2341 40.0446C33.962 39.3176 33.3148 38.8971 32.6004 38.8601Z" fill="#2AB346"/>
</svg>
