<svg width="64" height="57" viewBox="0 0 64 57" fill="none" xmlns="http://www.w3.org/2000/svg">
<path d="M3.84 0C1.73444 0 0 1.73444 0 3.84V46.08C0 48.1856 1.73444 49.92 3.84 49.92H9.0675C9.28784 51.3647 9.87658 52.7583 10.8825 53.89C12.1838 55.3539 14.1867 56.32 16.64 56.32C20.4293 56.32 23.5877 53.5403 24.2025 49.92H39.68H43.6275C43.8478 51.3647 44.4366 52.7583 45.4425 53.89C46.7438 55.3539 48.7467 56.32 51.2 56.32C54.9893 56.32 58.1477 53.5403 58.7625 49.92H60.16C61.2267 49.92 62.1439 49.4261 62.825 48.745C63.5061 48.0639 64 47.1467 64 46.08V33.7925C64 32.3531 63.4649 31.0449 62.9725 30.0425C62.4801 29.0401 61.9775 28.3225 61.9775 28.3225L61.965 28.3075L56.6925 21.2325L56.68 21.2175C55.5456 19.7994 53.7234 17.92 51.2 17.92H40.96C40.501 17.92 40.0767 18.0265 39.68 18.185V13.85L25.83 0H3.84ZM3.84 2.56H24.32V15.36H37.12V47.36H24.2025C23.5877 43.7397 20.4293 40.96 16.64 40.96C14.1867 40.96 12.1838 41.9261 10.8825 43.39C9.87658 44.5217 9.28784 45.9153 9.0675 47.36H3.84C3.11676 47.36 2.56 46.8032 2.56 46.08V3.84C2.56 3.11676 3.11676 2.56 3.84 2.56ZM26.88 4.67L35.01 12.8H26.88V4.67ZM8.96 20.48V23.04H30.72V20.48H8.96ZM40.96 20.48H46.08V32C46.08 33.0667 46.5739 33.9839 47.255 34.665C47.9361 35.3461 48.8533 35.84 49.92 35.84H61.44V46.08C61.44 46.2933 61.2939 46.6561 61.015 46.935C60.7361 47.2139 60.3733 47.36 60.16 47.36H58.7625C58.1477 43.7397 54.9893 40.96 51.2 40.96C48.7467 40.96 46.7438 41.9261 45.4425 43.39C44.4366 44.5217 43.8478 45.9153 43.6275 47.36H39.68V21.76C39.68 21.5467 39.8261 21.1839 40.105 20.905C40.3839 20.6261 40.7467 20.48 40.96 20.48ZM48.64 20.48H51.2C52.2606 20.48 53.7665 21.6731 54.68 22.815L59.88 29.79C59.88 29.79 60.2714 30.3509 60.675 31.1725C60.9996 31.8334 61.1861 32.6026 61.29 33.28H49.92C49.7067 33.28 49.3439 33.1339 49.065 32.855C48.7861 32.5761 48.64 32.2133 48.64 32V20.48ZM8.96 26.88V29.44H24.32V26.88H8.96ZM8.96 33.28V35.84H30.72V33.28H8.96ZM16.64 43.52C19.4433 43.52 21.6854 45.7375 21.7475 48.525C21.7404 48.6023 21.7404 48.6802 21.7475 48.7575C21.6841 51.5438 19.4425 53.76 16.64 53.76C14.8267 53.76 13.6296 53.1261 12.7975 52.19C11.992 51.2838 11.5575 50.0371 11.53 48.765C11.5385 48.6802 11.5385 48.5948 11.53 48.51C11.5586 47.2396 11.9931 45.995 12.7975 45.09C13.6296 44.1539 14.8267 43.52 16.64 43.52ZM51.2 43.52C54.0429 43.52 56.32 45.7971 56.32 48.64C56.32 51.4829 54.0429 53.76 51.2 53.76C49.3867 53.76 48.1896 53.1261 47.3575 52.19C46.5254 51.2539 46.08 49.9556 46.08 48.64C46.08 47.3244 46.5254 46.0261 47.3575 45.09C48.1896 44.1539 49.3867 43.52 51.2 43.52Z" fill="#2AB346"/>
</svg>
