<svg width="65" height="67" viewBox="0 0 65 67" fill="none" xmlns="http://www.w3.org/2000/svg">
<path d="M54.1277 0C48.8423 0 44.5758 4.26654 44.5758 9.55195C44.5758 11.5897 45.2128 13.5006 46.4227 15.1563L52.5992 23.5615C52.9812 24.0709 53.5546 24.3251 54.1277 24.3251C54.7645 24.3251 55.2742 24.0072 55.6563 23.5615L61.8327 15.1563C63.0426 13.5006 63.6797 11.5897 63.6797 9.55195C63.6797 4.26654 59.4131 0 54.1277 0ZM54.1277 3.82078C57.3117 3.82078 59.8589 6.36797 59.8589 9.55195C59.8589 10.7619 59.4773 11.9076 58.7768 12.8628L54.1277 19.1673L49.4786 12.8628C48.7781 11.9076 48.3966 10.7619 48.3966 9.55195C48.3966 6.36797 50.9437 3.82078 54.1277 3.82078ZM15.9199 25.4719C7.13212 25.4719 0 32.604 0 41.3918C0 44.7668 1.01838 48.0142 2.99245 50.6888C3.05613 50.8161 3.18374 50.8798 3.24741 51.0072L14.3914 66.1C14.7734 66.5458 15.2831 66.8637 15.9199 66.8637C16.5567 66.8637 17.0664 66.5458 17.4485 66.1L28.5924 51.0072L28.7827 50.7522L28.8474 50.6888C30.8215 47.9505 31.8398 44.7668 31.8398 41.3918C31.8398 32.604 24.7077 25.4719 15.9199 25.4719ZM50.7298 25.9221C50.1173 25.8954 49.4948 26.1646 49.0968 26.682L47.9513 28.2106C47.3145 29.0384 47.4416 30.2478 48.3331 30.8846C48.6515 31.1394 49.0965 31.2665 49.4786 31.2665C50.0517 31.2665 50.6251 31.0123 51.0072 30.5028L52.1539 28.9743C52.7907 28.1464 52.5999 26.937 51.7721 26.3002C51.4616 26.0614 51.0973 25.9382 50.7298 25.9221ZM15.9199 29.2927C22.6063 29.2927 28.0191 34.7054 28.0191 41.3918C28.0191 43.939 27.2551 46.4222 25.7268 48.46V48.5234L15.9199 61.7693L6.30454 48.715C6.24086 48.6513 6.17668 48.5873 6.113 48.46C4.58469 46.4222 3.82078 43.939 3.82078 41.3918C3.82078 34.7054 9.23355 29.2927 15.9199 29.2927ZM44.9986 33.5637C44.3861 33.5369 43.7636 33.8062 43.3656 34.3236L42.2201 35.8522C41.5833 36.68 41.7741 37.8894 42.602 38.5262C42.9204 38.7809 43.3654 38.908 43.7474 38.908C44.3206 38.908 44.8939 38.6538 45.276 38.1444L46.4227 36.6158C47.0595 35.788 46.8687 34.5786 46.0409 33.9418C45.7305 33.703 45.3662 33.5797 44.9986 33.5637ZM15.9199 35.0238C14.231 35.0238 12.6113 35.6947 11.4171 36.889C10.2229 38.0832 9.55195 39.7029 9.55195 41.3918C9.55195 43.0807 10.2229 44.7004 11.4171 45.8946C12.6113 47.0888 14.231 47.7598 15.9199 47.7598C17.6088 47.7598 19.2285 47.0888 20.4228 45.8946C21.617 44.7004 22.2879 43.0807 22.2879 41.3918C22.2879 39.7029 21.617 38.0832 20.4228 36.889C19.2285 35.6947 17.6088 35.0238 15.9199 35.0238ZM42.8806 41.097C42.395 41.0731 41.9007 41.2331 41.5187 41.5833C40.6908 42.2201 40.6276 43.4295 41.3918 44.2574L42.6654 45.6578C43.0475 46.0399 43.5564 46.2946 44.0658 46.2946C44.5116 46.2946 45.021 46.1043 45.3394 45.7859C46.1036 45.0855 46.168 43.8748 45.4675 43.1106L44.1939 41.7102C43.8437 41.3281 43.3661 41.1209 42.8806 41.097ZM49.312 48.1018C48.8264 48.0779 48.3334 48.2379 47.9513 48.5881C47.1871 49.2886 47.1227 50.498 47.8232 51.2621L49.0968 52.6626C49.4789 53.0447 49.989 53.2994 50.4985 53.2994C50.9442 53.2994 51.4537 53.1091 51.7721 52.7907C52.5362 52.0902 52.5994 50.8796 51.8989 50.1154L50.6253 48.715C50.2751 48.3329 49.7975 48.1257 49.312 48.1018ZM55.8068 55.1066C55.3212 55.0827 54.8282 55.2426 54.4461 55.5929C53.682 56.2933 53.6188 57.5028 54.3193 58.2669L55.5929 59.6674C55.9749 60.0494 56.4839 60.3042 56.9933 60.3042C57.4391 60.3042 57.9485 60.1139 58.2669 59.7955C59.0311 59.095 59.0942 57.8843 58.3938 57.1202L57.1202 55.7197C56.7699 55.3376 56.2923 55.1304 55.8068 55.1066ZM62.3029 62.1113C61.8173 62.0874 61.323 62.2474 60.941 62.5976C60.3042 63.1707 60.177 64.1257 60.5591 64.8898V64.9533C60.5591 66.0358 61.387 66.8637 62.4695 66.8637H63.1063C63.8705 66.8637 64.5717 66.4174 64.8264 65.7169C65.1448 65.0165 65.0174 64.1891 64.508 63.6797L63.6162 62.7245C63.266 62.3424 62.7884 62.1352 62.3029 62.1113ZM24.1983 63.0429C23.1157 63.0429 22.2879 63.8707 22.2879 64.9533C22.2879 66.0358 23.1157 66.8637 24.1983 66.8637H26.1087C27.1912 66.8637 28.0191 66.0358 28.0191 64.9533C28.0191 63.8707 27.1912 63.0429 26.1087 63.0429H24.1983ZM33.7502 63.0429C32.6677 63.0429 31.8398 63.8707 31.8398 64.9533C31.8398 66.0358 32.6677 66.8637 33.7502 66.8637H35.6606C36.7432 66.8637 37.571 66.0358 37.571 64.9533C37.571 63.8707 36.7432 63.0429 35.6606 63.0429H33.7502ZM43.3022 63.0429C42.2196 63.0429 41.3918 63.8707 41.3918 64.9533C41.3918 66.0358 42.2196 66.8637 43.3022 66.8637H45.2126C46.2951 66.8637 47.123 66.0358 47.123 64.9533C47.123 63.8707 46.2951 63.0429 45.2126 63.0429H43.3022ZM52.8541 63.0429C51.7716 63.0429 50.9437 63.8707 50.9437 64.9533C50.9437 66.0358 51.7716 66.8637 52.8541 66.8637H54.7645C55.8471 66.8637 56.6749 66.0358 56.6749 64.9533C56.6749 63.8707 55.8471 63.0429 54.7645 63.0429H52.8541Z" fill="#2AB346"/>
</svg>
