<svg width="20" height="19" viewBox="0 0 20 19" fill="none" xmlns="http://www.w3.org/2000/svg">
<path fill-rule="evenodd" clip-rule="evenodd" d="M12.1496 0.457234C12.8384 0.155358 13.5767 0 14.3223 0C15.0679 0 15.8063 0.155359 16.4951 0.457234C17.1838 0.759054 17.8095 1.20141 18.3366 1.75903C18.8638 2.31647 19.2823 2.97861 19.5677 3.70703C19.8531 4.43558 20 5.21647 20 6.00509C20 6.79371 19.8531 7.57461 19.5677 8.30315C19.2823 9.03164 18.864 9.69351 18.3367 10.251L10.6172 18.4156C10.2762 18.7763 9.72331 18.7763 9.38229 18.4156L1.66282 10.251C0.598138 9.1249 0 7.59761 0 6.00509C0 4.41257 0.598138 2.88528 1.66282 1.7592C2.7275 0.633124 4.17153 0.000507349 5.67721 0.000507349C7.1829 0.000507349 8.62693 0.633124 9.69161 1.7592L9.99977 2.08515L10.3078 1.75937C10.8349 1.20168 11.4608 0.759082 12.1496 0.457234ZM14.3223 1.8472C13.8061 1.8472 13.295 1.95479 12.8181 2.16379C12.3412 2.37278 11.9079 2.67909 11.543 3.06523L10.6172 4.04441C10.2762 4.4051 9.72331 4.4051 9.38229 4.04441L8.45665 3.06534C7.7195 2.28568 6.71971 1.84771 5.67721 1.84771C4.63472 1.84771 3.63493 2.28568 2.89778 3.06534C2.16062 3.84501 1.74649 4.90248 1.74649 6.00509C1.74649 7.1077 2.16062 8.16518 2.89778 8.94484L9.99977 16.4564L17.1018 8.94484C17.4669 8.55887 17.7566 8.10041 17.9542 7.59602C18.1518 7.09164 18.2535 6.55105 18.2535 6.00509C18.2535 5.45913 18.1518 4.91854 17.9542 4.41416C17.7566 3.90978 17.467 3.45148 17.1019 3.06551C16.737 2.67937 16.3034 2.37278 15.8265 2.16379C15.3497 1.95479 14.8385 1.8472 14.3223 1.8472Z" fill="#2AB346"/>
</svg>
