<svg width="21" height="26" viewBox="0 0 21 26" fill="none" xmlns="http://www.w3.org/2000/svg">
<path d="M5.5665 9.33289C5.73935 9.12522 6.04647 9.09522 6.25617 9.26674C6.46705 9.4393 6.49911 9.75115 6.32789 9.96357C6.32202 9.97091 6.31482 9.97929 6.30851 9.98628C6.21113 10.0939 6.0775 10.1486 5.94337 10.1486C5.82498 10.1486 5.7062 10.106 5.61168 10.0196C5.41461 9.83951 5.39597 9.53575 5.5665 9.33289Z" fill="#22993A"/>
<path d="M9.46236 19.1633C9.26741 19.1757 9.07395 19.1818 8.88176 19.1818C6.67606 19.1817 4.66856 18.3751 3.17951 16.8784C2.78774 16.4846 2.40425 15.7021 2.80224 14.2113C3.07607 13.1859 3.68079 11.9703 4.55106 10.6959C4.70526 10.4701 5.01228 10.4127 5.23688 10.5678C5.46152 10.7227 5.5186 11.0315 5.36439 11.2572C4.55673 12.44 4.0003 13.5503 3.75523 14.4683C3.54001 15.2748 3.58332 15.8817 3.87732 16.1772C4.32133 16.6235 5.4268 16.4904 6.83411 15.8213C7.88649 15.3209 9.02797 14.5665 10.164 13.6286C9.49472 12.806 9.4448 11.6412 10.0139 10.7674L7.44663 8.18676C7.22095 8.3018 6.97361 8.35966 6.72618 8.35966C6.31877 8.35966 5.91136 8.20376 5.60122 7.89207C4.98101 7.26852 4.98101 6.25404 5.60122 5.63055C6.22149 5.0071 7.23081 5.00705 7.85108 5.63055C8.34955 6.13166 8.44707 6.88522 8.14424 7.48551L10.7113 10.066C11.1005 9.80882 11.5557 9.67052 12.0323 9.67052C12.5937 9.67052 13.1256 9.86212 13.5546 10.2142C14.475 9.08327 15.216 7.94795 15.7089 6.9003C16.3746 5.48551 16.507 4.37443 16.0629 3.92811C15.3988 3.26043 13.0671 3.84813 10.0541 6.25231C9.84072 6.42253 9.53039 6.38673 9.36104 6.17222C9.19164 5.95771 9.22731 5.64582 9.44066 5.47554C10.9199 4.29519 12.3638 3.43929 13.6162 3.00035C15.4045 2.37349 16.3129 2.77722 16.7601 3.22647L16.7605 3.22681C18.3792 4.85398 19.1865 7.09685 19.0336 9.54229C18.8822 11.9643 17.8044 14.2977 15.9988 16.1127C15.6786 16.4347 15.3418 16.7331 14.9915 17.0078C14.9928 17.0116 14.9944 17.0152 14.9956 17.019L16.3689 21.4175H17.5433C19.4493 21.4175 21 22.9762 21 24.8922C21 25.166 20.7791 25.3881 20.5067 25.3881H6.99965C6.72726 25.3881 6.50636 25.166 6.50636 24.8922C6.50636 22.9762 8.05707 21.4175 9.96305 21.4175H11.5804V18.7841C10.8897 18.9894 10.18 19.118 9.46236 19.1633ZM7.15346 6.33169C7.03566 6.21323 6.88097 6.15403 6.72618 6.15403C6.57143 6.15403 6.41668 6.21323 6.29889 6.33164C6.06329 6.56847 6.06329 6.95385 6.29889 7.19067C6.53443 7.4275 6.91792 7.4275 7.15346 7.19067C7.38911 6.9539 7.38911 6.56852 7.15346 6.33169ZM12.0323 10.6621C11.6518 10.6621 11.294 10.811 11.0249 11.0813L11.0244 11.0818L11.0239 11.0823C10.5086 11.6008 10.472 12.4205 10.9134 12.9822C11.2542 12.6757 11.5927 12.3541 11.9263 12.0189C12.2701 11.6732 12.5996 11.3221 12.9131 10.9686C12.6629 10.7701 12.356 10.6621 12.0323 10.6621ZM14.1455 17.608C13.6397 17.9307 13.1115 18.2067 12.567 18.4334V21.4175H15.3349L14.1455 17.608ZM9.96315 22.4092C8.76998 22.4092 7.77166 23.2639 7.54252 24.3963H19.964C19.7349 23.2639 18.7365 22.4092 17.5434 22.4092H9.96315ZM15.3013 15.4114C16.9369 13.7673 17.9127 11.6609 18.0491 9.48006C18.1395 8.03299 17.8514 6.66972 17.2249 5.49924C17.1213 6.04761 16.9134 6.6598 16.6008 7.32426C15.7958 9.03502 14.3834 10.9513 12.6238 12.7201C10.8641 14.4889 8.95782 15.9087 7.25592 16.7178C6.59619 17.0315 5.98826 17.2401 5.44352 17.3446C8.41496 18.9435 12.4804 18.2471 15.3013 15.4114Z" fill="#22993A"/>
<path d="M6.71868 2.64715C6.99107 2.64715 7.21197 2.86915 7.21197 3.14301C7.21197 3.41688 6.99107 3.63887 6.71868 3.63887C5.01006 3.63887 3.62002 5.03616 3.62002 6.75367C3.62002 7.02753 3.39912 7.24953 3.12673 7.24953C2.85433 7.24953 2.63344 7.02753 2.63344 6.75367C2.63339 4.48932 4.46606 2.64715 6.71868 2.64715Z" fill="#22993A"/>
<path d="M6.71868 0C6.99107 0 7.21197 0.221997 7.21197 0.495861C7.21197 0.769724 6.99107 0.991721 6.71868 0.991721C3.55801 0.991721 0.986584 3.57649 0.986584 6.75367C0.986584 7.02753 0.765688 7.24953 0.493292 7.24953C0.220898 7.24953 0 7.02753 0 6.75367C0 3.02971 3.01396 0 6.71868 0Z" fill="#22993A"/>
</svg>
