<svg width="21" height="21" viewBox="0 0 21 21" fill="none" xmlns="http://www.w3.org/2000/svg">
<path d="M1.07988 21.0005C0.80325 21.0005 0.526622 20.8953 0.316448 20.6835C-0.105483 20.2616 -0.105483 19.5776 0.316448 19.1556L19.1556 0.316448C19.5776 -0.105483 20.2616 -0.105483 20.6836 0.316448C21.1055 0.738378 21.1055 1.42243 20.6836 1.84463L1.84463 20.6835C1.63287 20.894 1.35624 21.0005 1.07988 21.0005Z" fill="#4F4F4F"/>
<path d="M19.9204 21.0005C19.6438 21.0005 19.3674 20.8953 19.157 20.6835L0.316448 1.84463C-0.105483 1.42243 -0.105483 0.738378 0.316448 0.316448C0.738378 -0.105483 1.42243 -0.105483 1.84463 0.316448L20.6836 19.1556C21.1055 19.5776 21.1055 20.2616 20.6836 20.6835C20.4718 20.894 20.1954 21.0005 19.9204 21.0005Z" fill="#4F4F4F"/>
</svg>
