<svg width="21" height="22" viewBox="0 0 21 22" fill="none" xmlns="http://www.w3.org/2000/svg">
<path fill-rule="evenodd" clip-rule="evenodd" d="M1.67059 14.8109C2.74024 13.7795 4.19099 13.2 5.7037 13.2H14.8296C16.3423 13.2 17.7931 13.7795 18.8627 14.8109C19.9324 15.8424 20.5333 17.2413 20.5333 18.7V20.9C20.5333 21.5075 20.0226 22 19.3926 22C18.7626 22 18.2519 21.5075 18.2519 20.9V18.7C18.2519 17.8248 17.8913 16.9854 17.2495 16.3665C16.6077 15.7477 15.7373 15.4 14.8296 15.4H5.7037C4.79607 15.4 3.92563 15.7477 3.28384 16.3665C2.64205 16.9854 2.28148 17.8248 2.28148 18.7V20.9C2.28148 21.5075 1.77075 22 1.14074 22C0.510727 22 0 21.5075 0 20.9V18.7C0 17.2413 0.600937 15.8424 1.67059 14.8109Z" fill="#4F4F4F"/>
<path fill-rule="evenodd" clip-rule="evenodd" d="M10.2667 2.2C8.37663 2.2 6.84444 3.67746 6.84444 5.5C6.84444 7.32254 8.37663 8.8 10.2667 8.8C12.1567 8.8 13.6889 7.32254 13.6889 5.5C13.6889 3.67746 12.1567 2.2 10.2667 2.2ZM4.56296 5.5C4.56296 2.46243 7.1166 0 10.2667 0C13.4167 0 15.9704 2.46243 15.9704 5.5C15.9704 8.53757 13.4167 11 10.2667 11C7.1166 11 4.56296 8.53757 4.56296 5.5Z" fill="#4F4F4F"/>
</svg>
