<svg width="13" height="18" viewBox="0 0 13 18" fill="none" xmlns="http://www.w3.org/2000/svg">
<path d="M6.0314 0.253418C2.70942 0.253418 0 3.12376 0 6.64304C0 9.08074 1.45026 11.5351 2.82722 13.4542C4.20418 15.3733 5.57067 16.7377 5.57067 16.7377L6.0314 17.2037L6.49213 16.7377C6.49213 16.7377 7.85862 15.3733 9.23558 13.4542C10.6125 11.5351 12.0628 9.08074 12.0628 6.64304C12.0628 3.12376 9.35339 0.253418 6.0314 0.253418ZM6.0314 1.67333C8.63087 1.67333 10.7225 3.88918 10.7225 6.64304C10.7225 8.44566 9.49213 10.7752 8.18847 12.5889C7.11517 14.0837 6.37695 14.8048 6.0314 15.1625C5.68585 14.8048 4.94764 14.0837 3.87434 12.5889C2.57068 10.7752 1.34031 8.44566 1.34031 6.64304C1.34031 3.88918 3.43193 1.67333 6.0314 1.67333ZM3.66491 4.136C2.36125 5.51709 2.36125 7.76899 3.66491 9.15008L4.60732 8.1517C3.81675 7.31417 3.81675 5.97191 4.60732 5.13438L3.66491 4.136ZM8.39789 4.136L7.45548 5.13438C8.24606 5.97191 8.24606 7.31417 7.45548 8.1517L8.39789 9.15008C9.70155 7.76899 9.70155 5.51709 8.39789 4.136ZM6.0314 5.5781C5.47643 5.5781 5.02617 6.0551 5.02617 6.64304C5.02617 7.23097 5.47643 7.70797 6.0314 7.70797C6.58638 7.70797 7.03664 7.23097 7.03664 6.64304C7.03664 6.0551 6.58638 5.5781 6.0314 5.5781Z" fill="white"/>
</svg>
