<svg width="35" height="28" viewBox="0 0 35 28" fill="none" xmlns="http://www.w3.org/2000/svg">
<path d="M3.75 0C1.68945 0 0 1.68945 0 3.75V23.75C0 25.8105 1.68945 27.5 3.75 27.5H31.25C33.3105 27.5 35 25.8105 35 23.75V3.75C35 1.68945 33.3105 0 31.25 0H3.75ZM3.75 2.5H31.25C31.3379 2.5 31.4062 2.5293 31.4844 2.54883L17.5 12.2266L3.51562 2.54883C3.59375 2.5293 3.66211 2.5 3.75 2.5ZM2.5 4.88281L17.5 15.2734L32.5 4.88281V22.5879L24.6484 16.0156L22.5 17.5L31.4355 24.9609C31.377 24.9707 31.3184 25 31.25 25H3.75C3.68164 25 3.62305 24.9707 3.56445 24.9609L12.5 17.5L10.3516 16.0156L2.5 22.5879V4.88281Z" fill="white"/>
</svg>
