<svg width="24" height="22" viewBox="0 0 24 22" fill="none" xmlns="http://www.w3.org/2000/svg">
<path d="M19.067 10.2667C17.2389 10.2667 15.767 11.762 15.767 13.6191V14.1778C15.162 14.1778 14.667 14.6807 14.667 15.2953V20.8826C14.667 21.4972 15.162 22.0001 15.767 22.0001H22.367C22.972 22.0001 23.467 21.4972 23.467 20.8826V15.2953C23.467 14.6807 22.972 14.1778 22.367 14.1778V13.6191C22.367 11.762 20.8951 10.2667 19.067 10.2667ZM19.067 11.3842C20.3189 11.3842 21.267 12.3473 21.267 13.6191V14.1778H16.867V13.6191C16.867 12.3473 17.8151 11.3842 19.067 11.3842ZM19.067 16.9715C19.672 16.9715 20.167 17.4743 20.167 18.0889C20.167 18.7035 19.672 19.2064 19.067 19.2064C18.462 19.2064 17.967 18.7035 17.967 18.0889C17.967 17.4743 18.462 16.9715 19.067 16.9715Z" fill="#4F4F4F"/>
<path fill-rule="evenodd" clip-rule="evenodd" d="M10.2667 2.2C8.37663 2.2 6.84444 3.67746 6.84444 5.5C6.84444 7.32254 8.37663 8.8 10.2667 8.8C12.1567 8.8 13.6889 7.32254 13.6889 5.5C13.6889 3.67746 12.1567 2.2 10.2667 2.2ZM4.56296 5.5C4.56296 2.46243 7.1166 0 10.2667 0C13.4167 0 15.9704 2.46243 15.9704 5.5C15.9704 8.53757 13.4167 11 10.2667 11C7.1166 11 4.56296 8.53757 4.56296 5.5ZM1.67059 14.8109C2.74024 13.7795 4.19099 13.2 5.7037 13.2L13.2 13.2V15.4H5.7037C4.79607 15.4 3.92563 15.7477 3.28384 16.3665C2.64205 16.9854 2.28148 17.8248 2.28148 18.7V20.9C2.28148 21.5075 1.77075 22 1.14074 22C0.510727 22 0 21.5075 0 20.9V18.7C0 17.2413 0.600937 15.8424 1.67059 14.8109Z" fill="#4F4F4F"/>
</svg>
