<svg width="15" height="19" viewBox="0 0 15 19" fill="none" xmlns="http://www.w3.org/2000/svg">
<path d="M7.5 0C6.64321 0 6.04051 0.609072 5.73819 1.36364H4.09091H3.40909H0V18.4091H15V1.36364H11.5909H10.9091H9.26181C8.95949 0.609072 8.35679 0 7.5 0ZM7.5 1.36364C7.88525 1.36364 8.18182 1.66021 8.18182 2.04545V2.72727H8.86364H10.2273V4.09091H4.77273V2.72727H6.81818V2.04545C6.81818 1.66021 7.11475 1.36364 7.5 1.36364ZM1.36364 2.72727H3.40909V5.45455H11.5909V2.72727H13.6364V17.0455H1.36364V2.72727ZM11.1088 8.38157L6.81818 12.6722L4.57298 10.427L3.60884 11.3912L6.81818 14.6005L12.073 9.34571L11.1088 8.38157Z" fill="#4F4F4F"/>
</svg>
