<svg width="21" height="17" viewBox="0 0 21 17" fill="none" xmlns="http://www.w3.org/2000/svg">
<path d="M1.995 0.939941C1.45852 0.939941 0.979453 1.19096 0.616875 1.55682C0.254297 1.92268 0 2.42307 0 2.96119V7.73869C0 8.27682 0.254297 8.77721 0.616875 9.14307C0.979453 9.50893 1.45852 9.75994 1.995 9.75994H2.32312C2.64797 9.75994 2.69555 9.83869 2.76937 10.0093C2.8432 10.1799 2.85305 10.4835 2.80875 10.7181C2.76117 10.9724 2.48883 12.2291 2.23125 13.3824C1.97531 14.5292 1.73578 15.5891 1.7325 15.6006V15.6137C1.65539 15.9156 1.63734 16.2224 1.79812 16.4931C1.96055 16.7671 2.3018 16.8999 2.61187 16.8999H6.86437C7.12195 16.8999 7.38445 16.8196 7.59937 16.6506C7.8143 16.4816 7.98 16.201 7.98 15.8762C7.98 15.5481 7.82742 15.2741 7.665 15.0756C7.50258 14.8771 7.32211 14.7343 7.17937 14.6031C7.03664 14.4718 6.94641 14.3537 6.90375 14.2618C6.86109 14.1699 6.83156 14.0978 6.89062 13.9206C7.13672 13.1708 7.21875 12.8689 7.4025 12.2799C7.4025 12.2783 7.41562 12.2816 7.41562 12.2799H9.24C9.47133 12.2799 9.66 12.0913 9.66 11.8599C9.66 11.0035 9.84867 10.4424 10.0275 10.1012C10.1177 9.93057 10.1948 9.82557 10.2506 9.75994H10.6969C10.8445 9.75994 10.9462 9.73041 11.0775 9.69432C11.2087 9.65822 11.358 9.61064 11.5237 9.54994C11.8552 9.43018 12.2473 9.26775 12.6262 9.09057C13.0052 8.91338 13.3596 8.71486 13.65 8.52619C13.7944 8.43268 13.9223 8.34408 14.0306 8.23744C14.0782 8.1915 14.1307 8.14229 14.175 8.07994H16.1306C16.4227 8.07994 16.5818 7.96346 16.7738 7.83057C16.9657 7.69768 17.1593 7.52705 17.3381 7.34494C17.517 7.16283 17.681 6.96268 17.8106 6.76744C17.891 6.64604 17.9616 6.53447 18.0075 6.39994H19.845L21 5.82244V4.87744L19.845 4.29994H18.0075C17.9616 4.16541 17.891 4.05385 17.8106 3.93244C17.681 3.73721 17.517 3.53705 17.3381 3.35494C17.1593 3.17283 16.9657 3.00221 16.7738 2.86932C16.5818 2.73643 16.4227 2.61994 16.1306 2.61994H14.175C14.1307 2.5576 14.0782 2.50838 14.0306 2.46244C13.9223 2.3558 13.7944 2.26721 13.65 2.17369C13.3596 1.98502 13.0052 1.7865 12.6262 1.60932C12.2473 1.43213 11.8552 1.26971 11.5237 1.14994C11.358 1.08924 11.2087 1.04166 11.0775 1.00557C10.9462 0.969473 10.8445 0.939941 10.6969 0.939941H1.995ZM1.995 1.77994H10.6969C10.6575 1.77994 10.7412 1.79143 10.8412 1.81932C10.9413 1.84721 11.0841 1.88166 11.235 1.93744C11.5369 2.04736 11.9027 2.20322 12.2587 2.37057C12.6148 2.53791 12.9691 2.71674 13.2037 2.86932C13.3038 2.9333 13.3662 2.99729 13.4137 3.03994C13.417 3.08096 13.4252 3.12033 13.44 3.15807V7.58119C13.44 7.59432 13.44 7.60744 13.44 7.62057V7.64682C13.3957 7.68947 13.3137 7.75838 13.2037 7.83057C12.9691 7.98314 12.6148 8.16197 12.2587 8.32932C11.9027 8.49666 11.5369 8.65252 11.235 8.76244C11.0841 8.81822 10.9413 8.85268 10.8412 8.88057C10.7412 8.90846 10.6575 8.91994 10.6969 8.91994H1.995C1.7407 8.91994 1.43883 8.77228 1.2075 8.53932C0.976172 8.30635 0.84 7.99955 0.84 7.73869V2.96119C0.84 2.70033 0.976172 2.39354 1.2075 2.16057C1.43883 1.9276 1.7407 1.77994 1.995 1.77994ZM14.28 3.45994H16.1044C16.1093 3.46814 16.2028 3.49768 16.3012 3.56494C16.4325 3.65518 16.5867 3.79627 16.7344 3.94557C16.882 4.09486 17.0264 4.25729 17.115 4.39182C17.1823 4.49189 17.2118 4.59197 17.22 4.60182V6.12432C17.2069 6.15713 17.1691 6.22768 17.115 6.30807C17.0264 6.4426 16.882 6.60502 16.7344 6.75432C16.5867 6.90361 16.4325 7.04471 16.3012 7.13494C16.2028 7.20221 16.1093 7.23174 16.1044 7.23994H14.28V3.45994ZM18.06 5.13994H19.635L20.055 5.34994L19.635 5.55994H18.06V5.13994ZM3.57 9.75994H7.58625C7.57148 9.77799 7.54852 9.79439 7.53375 9.81244C7.21219 10.2292 7.04812 10.6393 7.04812 10.6393V10.6524L7.035 10.6656C7.035 10.6656 6.54937 12.2947 6.10312 13.6581C5.98992 14.0042 6.01781 14.3521 6.1425 14.6162C6.26719 14.8803 6.4493 15.0674 6.615 15.2199C6.7807 15.3725 6.93164 15.4923 7.02187 15.6006C7.11211 15.7088 7.14 15.7794 7.14 15.8762C7.14 15.9385 7.12195 15.9566 7.07437 15.9943C7.0268 16.0321 6.93492 16.0599 6.86437 16.0599H2.61187C2.49211 16.0599 2.5282 16.0517 2.53312 16.0599C2.53805 16.0681 2.49867 15.9894 2.54625 15.8106V15.7974C2.54625 15.7974 2.80055 14.7212 3.05813 13.5662C3.3157 12.4112 3.57328 11.2086 3.63562 10.8756C3.69633 10.5458 3.71273 10.1455 3.57 9.75994ZM9.135 9.75994H9.27938C9.08578 10.1438 8.92828 10.7164 8.8725 11.4399H7.67812C7.70437 11.3563 7.83398 10.9461 7.83562 10.9412L7.84875 10.9281V10.9149C7.85859 10.8903 7.96195 10.6196 8.19 10.3243C8.42789 10.0159 8.74781 9.75994 9.135 9.75994Z" fill="#22993A"/>
</svg>
