<svg width="28" height="29" viewBox="0 0 28 29" fill="none" xmlns="http://www.w3.org/2000/svg">
<path d="M25.5381 20.6036C25.5381 23.6029 23.0799 26.0569 20.212 26.0569H8.05748C5.05299 26.0569 2.73135 23.6029 2.73135 20.6036V8.46993C2.73135 5.4706 5.18956 3.0166 8.05748 3.0166H20.212C23.2165 3.0166 25.5381 5.4706 25.5381 8.46993V20.6036ZM19.9389 0.42627H8.05748C3.55075 0.42627 0 4.10727 0 8.60626V20.4673C0 24.9662 3.68732 28.6472 8.05748 28.6472H17.3441H19.9389C24.4456 28.6472 27.9963 24.9662 27.9963 20.4673V8.60626C28.1329 4.10727 24.4456 0.42627 19.9389 0.42627ZM14.0664 19.2403C11.4717 19.2403 9.28659 17.0589 9.28659 14.4686C9.28659 11.8783 11.3351 9.69693 14.0664 9.69693C16.7978 9.69693 18.8463 11.8783 18.8463 14.4686C18.8463 17.1953 16.6612 19.2403 14.0664 19.2403ZM14.0664 7.24293C10.106 7.24293 6.82837 10.5149 6.82837 14.6049C6.82837 18.6949 10.106 21.9669 14.0664 21.9669C18.0269 21.9669 21.3045 18.6949 21.3045 14.6049C21.3045 10.5149 18.0269 7.24293 14.0664 7.24293ZM21.5777 5.19793C20.6217 5.19793 19.9389 6.01593 19.9389 6.83393C19.9389 7.65193 20.7583 8.46993 21.5777 8.46993C22.5336 8.46993 23.2165 7.65193 23.2165 6.83393C23.2165 6.01593 22.5336 5.19793 21.5777 5.19793Z" fill="#D23C84"/>
</svg>
