<svg width="21" height="22" viewBox="0 0 21 22" fill="none" xmlns="http://www.w3.org/2000/svg">
<path d="M14.1618 2.53109C14.1184 2.42908 14.0385 2.3425 13.9322 2.29983C11.92 1.49189 9.71578 1.52102 7.72544 2.38198C7.50886 2.4757 7.40873 2.7284 7.50182 2.94642C7.50182 2.94642 9.52158 7.67805 9.52405 7.68381C9.61262 7.89127 9.87892 7.99796 10.0847 7.90893C10.6085 7.68235 11.1885 7.67466 11.718 7.88731C11.9236 7.96986 12.1908 7.85418 12.2727 7.64742C12.2727 7.64742 14.1676 2.86551 14.1705 2.85812C14.2121 2.75306 14.2056 2.63421 14.1618 2.53109ZM11.6268 6.95807C11.1399 6.83896 10.6352 6.84566 10.1517 6.97758L9.81203 6.18175C10.5086 5.96751 11.2437 5.95776 11.9456 6.15352L11.6268 6.95807ZM12.2635 5.35125C11.3476 5.07591 10.3816 5.08872 9.4733 5.38816L9.13513 4.59591C10.2545 4.2094 11.4518 4.19359 12.5809 4.55027L12.2635 5.35125ZM12.898 3.75007C11.5559 3.31088 10.1273 3.32983 8.7972 3.80434L8.45954 3.01328C10.0001 2.45013 11.6601 2.42818 13.2149 2.95033L12.898 3.75007Z" fill="#22993A"/>
<path d="M14.3529 16.8192L12.3307 12.0818C12.2376 11.8639 11.9865 11.7631 11.77 11.8567C11.2462 12.0832 10.6662 12.091 10.1367 11.8783C9.92266 11.7924 9.66678 11.9042 9.58201 12.1182C9.58201 12.1182 7.68617 16.9026 7.6842 16.9075C7.59828 17.1244 7.7084 17.3798 7.9225 17.4658C8.89507 17.8564 9.91238 18.0513 10.9289 18.0513C12.0154 18.0513 13.1009 17.8285 14.1292 17.3837C14.3458 17.2899 14.4459 17.0372 14.3529 16.8192ZM10.2279 12.8076C10.7147 12.9267 11.2195 12.92 11.703 12.7881L12.0427 13.5839C11.3461 13.7981 10.611 13.8079 9.90909 13.6122L10.2279 12.8076ZM9.59123 14.4144C10.5071 14.6898 11.4731 14.677 12.3814 14.3775L12.7196 15.1698C11.6002 15.5562 10.4029 15.5721 9.27384 15.2154L9.59123 14.4144ZM8.63983 16.8154L8.95675 16.0156C10.2988 16.4548 11.7274 16.4359 13.0575 15.9614L13.3952 16.7524C11.8546 17.3156 10.1946 17.3375 8.63983 16.8154Z" fill="#22993A"/>
<path d="M1.06709 18.5625C1.30282 18.5625 1.49392 18.3701 1.49392 18.1328C1.49392 17.8955 1.30282 17.7031 1.06709 17.7031C0.83136 17.7031 0.640262 17.8955 0.640262 18.1328C0.640262 18.3701 0.83136 18.5625 1.06709 18.5625Z" fill="#22993A"/>
<path d="M20.7118 19.8951C20.7105 19.8935 20.7092 19.8919 20.7079 19.8903L18.0377 16.6974C19.7853 14.8518 20.7448 12.4416 20.7448 9.88281C20.7448 7.24298 19.7236 4.76124 17.8693 2.89459C16.0151 1.02794 13.5497 0 10.9273 0C8.3049 0 5.83958 1.02798 3.98527 2.89459C2.13095 4.7612 1.1098 7.24298 1.1098 9.88281C1.1098 10.9283 1.27059 11.9488 1.57927 12.9163C1.31528 12.9326 0.982908 12.9907 0.667566 13.1862C0.209152 13.4706 -0.000677218 13.9939 5.70889e-06 14.5234C-0.00118941 15.0871 0.185164 15.6496 0.648359 15.9925C0.901554 16.175 1.22919 16.3008 1.27243 16.6478C1.30102 16.8775 1.50569 17.0268 1.73093 17.0214C1.96974 17.0157 2.14743 16.7771 2.11977 16.5455C2.06283 16.0688 1.76896 15.6978 1.36979 15.443C1.36979 15.443 0.853749 15.125 0.853749 14.5235C0.853749 13.9477 1.40551 13.743 1.89799 13.7743C2.35311 14.844 2.99822 15.8328 3.81697 16.6974L1.14681 19.8904C1.14553 19.892 1.14416 19.8935 1.14288 19.8951C0.831426 20.2787 0.766377 20.8157 0.977231 21.2632C1.18796 21.7108 1.64215 22 2.13424 22H19.7204C20.2125 22 20.6666 21.7108 20.8774 21.2632C21.0883 20.8157 21.0233 20.2786 20.7118 19.8951ZM1.96351 9.88281C1.96351 4.90729 5.98466 0.859375 10.9273 0.859375C15.8699 0.859375 19.8911 4.90729 19.8911 9.88281C19.8911 12.2567 18.9753 14.4191 17.4811 16.0318L13.6351 11.4327C13.6351 11.4327 17.9045 13.1471 17.9056 13.1475C18.1193 13.2333 18.3738 13.1258 18.4602 12.9076C19.2629 10.8821 19.2339 8.66319 18.3786 6.65964C18.2856 6.44162 18.0346 6.34094 17.8179 6.43453L13.1119 8.47021C12.8953 8.56393 12.7951 8.81663 12.8882 9.03465C13.1022 9.53605 13.1192 10.0886 12.9387 10.6L12.1961 9.71193C12.1127 9.08179 11.5757 8.59401 10.9273 8.59401C10.279 8.59401 9.742 9.08183 9.65864 9.71193L8.916 10.6C8.74224 10.1081 8.75116 9.5761 8.94502 9.08686C9.02949 8.87369 8.9247 8.61605 8.70672 8.52857C8.70672 8.52857 3.95347 6.61989 3.94907 6.61813C3.7351 6.5322 3.47926 6.64404 3.39445 6.85803C2.5918 8.88362 2.62082 11.1025 3.47606 13.106C3.56416 13.3124 3.83071 13.4203 4.03679 13.3312L8.10285 11.5723L4.37355 16.0318C2.87935 14.4191 1.96351 12.2567 1.96351 9.88281ZM10.9273 11.1717C11.3225 11.1717 11.6765 10.9903 11.9115 10.7061L16.8683 16.6334C15.2855 18.0466 13.2044 18.9062 10.9273 18.9062C8.65021 18.9062 6.56912 18.0466 4.98631 16.6334L9.94312 10.7061C10.1781 10.9903 10.5321 11.1717 10.9273 11.1717ZM10.5007 9.88281C10.5007 9.64597 10.6921 9.45334 10.9273 9.45334C11.1626 9.45334 11.354 9.64597 11.354 9.88281C11.354 10.1197 11.1626 10.3123 10.9273 10.3123C10.6921 10.3123 10.5007 10.1197 10.5007 9.88281ZM13.8134 9.10203L14.604 8.76004C14.8168 9.46116 14.8264 10.2013 14.6321 10.9078L13.8329 10.5869C13.9511 10.0968 13.9445 9.58878 13.8134 9.10203ZM15.3923 8.41908L16.1793 8.07864C16.5633 9.2055 16.579 10.4107 16.2247 11.5473L15.429 11.2278C15.7025 10.3059 15.6899 9.33341 15.3923 8.41908ZM16.9656 7.7385L17.7515 7.39857C18.3109 8.9494 18.3327 10.6204 17.814 12.1856L17.0196 11.8665C17.4559 10.5155 17.4371 9.07753 16.9656 7.7385ZM8.04121 10.6636L7.25064 11.0056C7.03786 10.3045 7.02826 9.56433 7.2226 8.85784L8.02183 9.17877C7.90352 9.66879 7.91017 10.1768 8.04121 10.6636ZM6.46233 11.3465L5.6753 11.687C5.29136 10.5601 5.27561 9.3549 5.62997 8.21829L6.42562 8.5378C6.15207 9.4597 6.16478 10.4322 6.46233 11.3465ZM4.88899 12.0271L4.10311 12.3671C3.54367 10.8162 3.52186 9.14525 4.04058 7.58007L4.83504 7.89912C4.39874 9.25014 4.41756 10.6881 4.88899 12.0271ZM20.1061 20.8951C20.0358 21.0442 19.8844 21.1406 19.7204 21.1406H2.13424C1.97021 21.1406 1.81881 21.0442 1.74851 20.895C1.6786 20.7466 1.69968 20.5687 1.80212 20.441L4.43348 17.2944C6.22808 18.8921 8.51085 19.7656 10.9273 19.7656C13.3438 19.7656 15.6266 18.8921 17.4211 17.2944L20.0525 20.441C20.1549 20.5687 20.176 20.7466 20.1061 20.8951Z" fill="#22993A"/>
</svg>
