<svg width="18" height="19" viewBox="0 0 18 19" fill="none" xmlns="http://www.w3.org/2000/svg">
<path fill-rule="evenodd" clip-rule="evenodd" d="M5.25 16.4558C5.25 15.5939 5.92157 14.8952 6.75 14.8952C7.57842 14.8952 8.25 15.5939 8.25 16.4558C8.25 17.3177 7.57842 18.0164 6.75 18.0164C5.92157 18.0164 5.25 17.3177 5.25 16.4558Z" fill="#4F4F4F"/>
<path fill-rule="evenodd" clip-rule="evenodd" d="M13.5 16.4558C13.5 15.5939 14.1716 14.8952 15 14.8952C15.8284 14.8952 16.5 15.5939 16.5 16.4558C16.5 17.3177 15.8284 18.0164 15 18.0164C14.1716 18.0164 13.5 17.3177 13.5 16.4558Z" fill="#4F4F4F"/>
<path fill-rule="evenodd" clip-rule="evenodd" d="M0 0.849411C0 0.418453 0.335786 0.0690918 0.75 0.0690918H3.75C4.10747 0.0690918 4.41526 0.331602 4.48542 0.69629L5.11532 3.97069H17.25C17.4735 3.97069 17.6854 4.07441 17.8279 4.25359C17.9704 4.43277 18.0286 4.66874 17.9867 4.89717L16.7856 11.4499C16.6828 11.9888 16.401 12.4729 15.9896 12.8174C15.5803 13.1602 15.0687 13.3431 14.5435 13.3345H7.26649C6.74129 13.3431 6.22964 13.1602 5.82035 12.8174C5.40917 12.473 5.12748 11.9892 5.0245 11.4506L3.7716 4.93766C3.76652 4.91611 3.76229 4.89423 3.75897 4.87203L3.13524 1.62973H0.75C0.335786 1.62973 0 1.28037 0 0.849411ZM5.41555 5.53133L6.49564 11.1459C6.52993 11.3255 6.62385 11.4869 6.76096 11.6017C6.89807 11.7165 7.06965 11.7775 7.24564 11.774L7.25999 11.7739H14.55L14.5644 11.774C14.7404 11.7775 14.9119 11.7165 15.049 11.6017C15.1855 11.4874 15.2792 11.327 15.3139 11.1484L16.3435 5.53133H5.41555Z" fill="#4F4F4F"/>
</svg>
