<svg width="26" height="24" viewBox="0 0 26 24" fill="none" xmlns="http://www.w3.org/2000/svg">
<path fill-rule="evenodd" clip-rule="evenodd" d="M7.58333 21.913C7.58333 20.7604 8.55338 19.8261 9.75 19.8261C10.9466 19.8261 11.9167 20.7604 11.9167 21.913C11.9167 23.0656 10.9466 24 9.75 24C8.55338 24 7.58333 23.0656 7.58333 21.913Z" fill="#DD8227"/>
<path fill-rule="evenodd" clip-rule="evenodd" d="M19.5 21.913C19.5 20.7604 20.47 19.8261 21.6667 19.8261C22.8633 19.8261 23.8333 20.7604 23.8333 21.913C23.8333 23.0656 22.8633 24 21.6667 24C20.47 24 19.5 23.0656 19.5 21.913Z" fill="#DD8227"/>
<path fill-rule="evenodd" clip-rule="evenodd" d="M0 1.04348C0 0.467181 0.485025 0 1.08333 0H5.41666C5.93301 0 6.3776 0.351041 6.47894 0.838719L7.3888 5.21739H24.9167C25.2395 5.21739 25.5456 5.35609 25.7514 5.5957C25.9572 5.83531 26.0413 6.15085 25.9808 6.45633L24.2459 15.219C24.0973 15.9396 23.6903 16.5869 23.0961 17.0476C22.5049 17.506 21.7659 17.7506 21.0073 17.7391H10.496C9.73742 17.7506 8.99837 17.506 8.40717 17.0476C7.81325 16.5871 7.40636 15.9401 7.25762 15.2199L5.44787 6.51047C5.44053 6.48166 5.43442 6.4524 5.42962 6.4227L4.52869 2.08696H1.08333C0.485025 2.08696 0 1.61978 0 1.04348ZM7.82246 7.30435L9.38259 14.8124C9.43212 15.0526 9.56778 15.2684 9.76583 15.4219C9.96388 15.5755 10.2117 15.6571 10.4659 15.6524L10.4867 15.6522H21.0166L21.0374 15.6524C21.2916 15.6571 21.5395 15.5755 21.7375 15.4219C21.9346 15.2691 22.07 15.0546 22.1201 14.8157L23.6072 7.30435H7.82246Z" fill="#DD8227"/>
</svg>
