<svg width="18" height="18" viewBox="0 0 18 18" fill="none" xmlns="http://www.w3.org/2000/svg">
<path d="M5.33333 0.75C2.80242 0.75 0.75 2.80242 0.75 5.33333V12.6667C0.75 15.1976 2.80242 17.25 5.33333 17.25H12.6667C15.1976 17.25 17.25 15.1976 17.25 12.6667V5.33333C17.25 2.80242 15.1976 0.75 12.6667 0.75H5.33333ZM14.5 2.58333C15.006 2.58333 15.4167 2.994 15.4167 3.5C15.4167 4.006 15.006 4.41667 14.5 4.41667C13.994 4.41667 13.5833 4.006 13.5833 3.5C13.5833 2.994 13.994 2.58333 14.5 2.58333ZM9 4.41667C11.5309 4.41667 13.5833 6.46908 13.5833 9C13.5833 11.5309 11.5309 13.5833 9 13.5833C6.46908 13.5833 4.41667 11.5309 4.41667 9C4.41667 6.46908 6.46908 4.41667 9 4.41667ZM9 6.25C8.27065 6.25 7.57118 6.53973 7.05546 7.05546C6.53973 7.57118 6.25 8.27065 6.25 9C6.25 9.72935 6.53973 10.4288 7.05546 10.9445C7.57118 11.4603 8.27065 11.75 9 11.75C9.72935 11.75 10.4288 11.4603 10.9445 10.9445C11.4603 10.4288 11.75 9.72935 11.75 9C11.75 8.27065 11.4603 7.57118 10.9445 7.05546C10.4288 6.53973 9.72935 6.25 9 6.25Z" fill="white"/>
</svg>
