<svg width="19" height="28" viewBox="0 0 19 28" fill="none" xmlns="http://www.w3.org/2000/svg">
<path d="M3.94936 4.95511C4.17135 4.95511 4.35134 4.77508 4.35134 4.55306V2.01013C4.35134 1.34508 4.89228 0.804042 5.55721 0.804042H16.9902C17.6551 0.804042 18.196 1.34508 18.196 2.01013V12.8916C18.196 13.1136 18.376 13.2936 18.598 13.2936C18.8201 13.2936 19 13.1136 19 12.8916V2.01013C19 0.901732 18.0984 0 16.9902 0H5.55721C4.44901 0 3.54744 0.901732 3.54744 2.01013V4.55306C3.54739 4.77508 3.72738 4.95511 3.94936 4.95511Z" fill="#22993A"/>
<path d="M0.401976 21.3317C0.623958 21.3317 0.803951 21.1517 0.803951 20.9296V19.3013L2.49204 18.6441C2.64646 18.584 2.7482 18.4352 2.7482 18.2694V15.4033C2.7482 15.1812 2.56826 15.0012 2.34622 15.0012H1.20587C0.984212 15.0012 0.803898 14.8209 0.803898 14.5992V11.3835L4.14139 9.56793C4.27078 9.49758 4.35129 9.36207 4.35129 9.21478V6.1612C4.35129 5.93918 4.17129 5.75915 3.94931 5.75915C3.72733 5.75915 3.54734 5.93918 3.54734 6.1612V8.9758L0.209894 10.7914C0.0805019 10.8617 0 10.9972 0 11.1445V14.5992C0 15.2642 0.540942 15.8053 1.20587 15.8053H1.94425V17.9945L0.256162 18.6517C0.101737 18.7119 0 18.8607 0 19.0264V20.9296C0 21.1517 0.179993 21.3317 0.401976 21.3317Z" fill="#22993A"/>
<path d="M19 14.4997C19 14.2777 18.8201 14.0977 18.598 14.0977C18.376 14.0977 18.196 14.2776 18.196 14.4997V24.0591C15.3561 23.2018 12.4335 22.7671 9.5 22.7671C6.56651 22.7671 3.64383 23.2018 0.803951 24.0591V22.5378C0.803951 22.3158 0.624012 22.1357 0.401976 22.1357C0.179993 22.1357 0 22.3158 0 22.5378V25.3815C0 26.4899 0.90157 27.3917 2.00977 27.3917H16.9902C18.0984 27.3917 18.9999 26.4899 18.9999 25.3815V14.4997H19ZM16.9902 26.5876H2.00982C1.34489 26.5876 0.803951 26.0466 0.803951 25.3815V24.9011C3.64137 24.0194 6.56528 23.5712 9.5 23.5712C12.4348 23.5712 15.3586 24.0194 18.196 24.9011V25.3815C18.196 26.0466 17.6551 26.5876 16.9902 26.5876Z" fill="#22993A"/>
<path d="M7.10917 2.7985C6.44423 2.7985 5.90329 3.33954 5.90329 4.00459V6.70973C5.90329 7.37478 6.44423 7.91582 7.10917 7.91582H15.4382C16.103 7.91582 16.644 7.37478 16.644 6.70973V4.00459C16.644 3.33954 16.103 2.7985 15.4382 2.7985H7.10917ZM7.89065 7.11178H7.10917C6.8875 7.11178 6.70719 6.93143 6.70719 6.70973V4.00459C6.70719 3.78289 6.8875 3.60254 7.10917 3.60254H7.89065V7.11178ZM9.87801 7.11178H8.69455V3.60254H9.87801V7.11178ZM11.8654 7.11178H10.682V3.60254H11.8654V7.11178ZM13.8528 7.11178H12.6694V3.60254H13.8528V7.11178ZM15.8401 4.00459V6.70973C15.8401 6.93138 15.6598 7.11178 15.4382 7.11178H14.6567V3.60254H15.4382C15.6599 3.60254 15.8401 3.78289 15.8401 4.00459Z" fill="#22993A"/>
</svg>
