<svg width="11" height="12" viewBox="0 0 11 12" fill="none" xmlns="http://www.w3.org/2000/svg">
<path d="M4.23077 0V1.71429H1.26593C0.571815 1.71429 0 2.29353 0 2.99665V9.00335C0 9.70647 0.571815 10.2857 1.26593 10.2857H3.38462V9.42857H1.26593C1.02794 9.42857 0.846154 9.24442 0.846154 9.00335V2.99665C0.846154 2.75558 1.02794 2.57143 1.26593 2.57143H4.23077V4.28571L6.34615 2.14286L4.23077 0ZM7.61538 1.71429V2.57143H9.73407C9.97206 2.57143 10.1538 2.75558 10.1538 2.99665V9.00335C10.1538 9.24442 9.97206 9.42857 9.73407 9.42857H6.76923V7.71429L4.65385 9.85714L6.76923 12V10.2857H9.73407C10.4282 10.2857 11 9.70647 11 9.00335V2.99665C11 2.29353 10.4282 1.71429 9.73407 1.71429H7.61538Z" fill="#4F4F4F"/>
</svg>
