<svg width="12" height="12" viewBox="0 0 12 12" fill="none" xmlns="http://www.w3.org/2000/svg">
<path d="M9.75 5.25C8.81518 5.25 8.0625 6.01463 8.0625 6.96429V7.25C7.75312 7.25 7.5 7.50714 7.5 7.82143V10.6786C7.5 10.9929 7.75312 11.25 8.0625 11.25H11.4375C11.7469 11.25 12 10.9929 12 10.6786V7.82143C12 7.50714 11.7469 7.25 11.4375 7.25V6.96429C11.4375 6.01463 10.6848 5.25 9.75 5.25ZM9.75 5.82143C10.3902 5.82143 10.875 6.31395 10.875 6.96429V7.25H8.625V6.96429C8.625 6.31395 9.10982 5.82143 9.75 5.82143ZM9.75 8.67857C10.0594 8.67857 10.3125 8.93571 10.3125 9.25C10.3125 9.56429 10.0594 9.82143 9.75 9.82143C9.44062 9.82143 9.1875 9.56429 9.1875 9.25C9.1875 8.93571 9.44062 8.67857 9.75 8.67857Z" fill="#314039"/>
<path fill-rule="evenodd" clip-rule="evenodd" d="M5.25 1.125C4.2835 1.125 3.5 1.88052 3.5 2.8125C3.5 3.74448 4.2835 4.5 5.25 4.5C6.2165 4.5 7 3.74448 7 2.8125C7 1.88052 6.2165 1.125 5.25 1.125ZM2.33333 2.8125C2.33333 1.2592 3.63917 0 5.25 0C6.86083 0 8.16667 1.2592 8.16667 2.8125C8.16667 4.3658 6.86083 5.625 5.25 5.625C3.63917 5.625 2.33333 4.3658 2.33333 2.8125ZM0.854279 7.57377C1.40126 7.04632 2.14312 6.75 2.91667 6.75H6.75V7.875H2.91667C2.45254 7.875 2.00743 8.05278 1.67924 8.36925C1.35105 8.68572 1.16667 9.11495 1.16667 9.5625V10.6875C1.16667 10.9982 0.905499 11.25 0.583333 11.25C0.261167 11.25 0 10.9982 0 10.6875V9.5625C0 8.81658 0.307298 8.10121 0.854279 7.57377Z" fill="#314039"/>
</svg>
