<svg width="14" height="15" viewBox="0 0 14 15" fill="none" xmlns="http://www.w3.org/2000/svg">
<path d="M11.1655 0.00350395C11.0283 -0.00563998 10.8911 0.00350391 10.7585 0.0263661C10.2281 0.108666 9.73434 0.433297 9.46915 0.959107L9.06679 1.76383L6.16798 4.66264H4.06931C3.29203 4.66264 2.54675 4.97355 2.00265 5.52222L1.10191 6.41839L3.92757 9.24405L0 13.1716L0.823007 14.0038L4.75515 10.0716L7.58081 12.8973L8.47697 11.9965C9.02564 11.4524 9.33656 10.7072 9.33656 9.92988V7.83121L12.2354 4.9324L13.0355 4.53004C14.0963 4.00423 14.3295 2.55483 13.4973 1.7181L12.2811 0.501881C11.9656 0.190968 11.5678 0.0263661 11.1655 0.00350395Z" fill="#4F4F4F"/>
</svg>
