<svg width="18" height="18" viewBox="0 0 18 18" fill="none" xmlns="http://www.w3.org/2000/svg">
<path fill-rule="evenodd" clip-rule="evenodd" d="M10.9346 0.48385C11.5546 0.210018 12.219 0.0690918 12.8901 0.0690918C13.5611 0.0690918 14.2256 0.210018 14.8456 0.48385C15.4654 0.757632 16.0286 1.1589 16.5029 1.66472C16.9774 2.17037 17.3541 2.771 17.6109 3.43175C17.8678 4.09262 18 4.80098 18 5.51633C18 6.23169 17.8678 6.94005 17.6109 7.60091C17.3541 8.26172 16.9776 8.86211 16.503 9.36779L9.55552 16.774C9.2486 17.1012 8.75098 17.1012 8.44406 16.774L1.49654 9.36779C0.538324 8.34632 0 6.96091 0 5.51633C0 4.07175 0.538324 2.68634 1.49654 1.66487C2.45475 0.643401 3.75437 0.069552 5.10949 0.069552C6.46461 0.069552 7.76423 0.643401 8.72245 1.66487L8.99979 1.96054L9.27701 1.66502C9.75138 1.15914 10.3147 0.757658 10.9346 0.48385ZM12.8901 1.74469C12.4255 1.74469 11.9655 1.84229 11.5363 2.03187C11.1071 2.22145 10.7172 2.4993 10.3887 2.84957L9.55552 3.7378C9.2486 4.06498 8.75098 4.06498 8.44406 3.7378L7.61099 2.84968C6.94755 2.14244 6.04774 1.74515 5.10949 1.74515C4.17125 1.74515 3.27144 2.14244 2.608 2.84968C1.94456 3.55691 1.57184 4.51615 1.57184 5.51633C1.57184 6.51651 1.94456 7.47575 2.608 8.18299L8.99979 14.9967L15.3916 8.18299C15.7202 7.83288 15.981 7.417 16.1588 6.95947C16.3366 6.50195 16.4282 6.01158 16.4282 5.51633C16.4282 5.02109 16.3366 4.53072 16.1588 4.07319C15.981 3.61567 15.7203 3.19994 15.3917 2.84983C15.0633 2.49956 14.6731 2.22145 14.2439 2.03187C13.8147 1.84229 13.3547 1.74469 12.8901 1.74469Z" fill="#4F4F4F"/>
</svg>
