<svg width="18" height="18" viewBox="0 0 18 18" fill="none" xmlns="http://www.w3.org/2000/svg">
<path fill-rule="evenodd" clip-rule="evenodd" d="M10.9346 1.35128C11.5546 1.07745 12.219 0.936523 12.8901 0.936523C13.5611 0.936523 14.2256 1.07745 14.8456 1.35128C15.4654 1.62506 16.0286 2.02633 16.5029 2.53215C16.9774 3.03781 17.3541 3.63843 17.6109 4.29918C17.8678 4.96005 18 5.66841 18 6.38376C18 7.09912 17.8678 7.80748 17.6109 8.46835C17.3541 9.12916 16.9776 9.72954 16.503 10.2352L9.55552 17.6414C9.2486 17.9686 8.75098 17.9686 8.44406 17.6414L1.49654 10.2352C0.538324 9.21375 0 7.82834 0 6.38376C0 4.93919 0.538324 3.55377 1.49654 2.5323C2.45475 1.51083 3.75437 0.936984 5.10949 0.936984C6.46461 0.936984 7.76423 1.51083 8.72245 2.5323L8.99979 2.82797L9.27701 2.53246C9.75138 2.02657 10.3147 1.62509 10.9346 1.35128ZM12.8901 2.61213C12.4255 2.61213 11.9655 2.70973 11.5363 2.8993C11.1071 3.08888 10.7172 3.36673 10.3887 3.71701L9.55552 4.60523C9.2486 4.93241 8.75098 4.93241 8.44406 4.60523L7.61099 3.71711C6.94755 3.00987 6.04774 2.61259 5.10949 2.61259C4.17125 2.61259 3.27144 3.00987 2.608 3.71711C1.94456 4.42434 1.57184 5.38358 1.57184 6.38376C1.57184 7.38394 1.94456 8.34318 2.608 9.05042L8.99979 15.8642L15.3916 9.05042C15.7202 8.70031 15.981 8.28443 16.1588 7.82691C16.3366 7.36938 16.4282 6.87901 16.4282 6.38376C16.4282 5.88852 16.3366 5.39815 16.1588 4.94062C15.981 4.4831 15.7203 4.06737 15.3917 3.71726C15.0633 3.36699 14.6731 3.08888 14.2439 2.8993C13.8147 2.70973 13.3547 2.61213 12.8901 2.61213Z" fill="white"/>
</svg>
