<svg width="18" height="20" viewBox="0 0 18 20" fill="none" xmlns="http://www.w3.org/2000/svg">
<path d="M2.07287 0C0.936205 0 0 0.936205 0 2.07287V14.5101C0 15.6468 0.936205 16.583 2.07287 16.583H6.90958V15.2011H2.07287C1.68391 15.2011 1.38192 14.8991 1.38192 14.5101V2.07287C1.38192 1.68391 1.68391 1.38192 2.07287 1.38192H8.2915V5.52767H12.4372V6.90958H13.8192V4.55061L9.26856 0H2.07287ZM9.67341 2.35897L11.4602 4.14575H9.67341V2.35897ZM12.4723 8.2915L10.7638 11.9298L6.94737 12.5128L9.7112 15.3468L9.05803 19.3468L12.475 17.4575L15.8893 19.3468L15.2362 15.3468L18 12.5155L14.1835 11.9325L12.4723 8.2915ZM12.4723 11.5439L12.9285 12.5182L13.2416 13.1849L13.973 13.2955L15.1336 13.4737L14.2483 14.3806L13.7598 14.8799L13.8731 15.5682L14.0675 16.7611L13.1444 16.2483L12.475 15.8785L11.8057 16.2483L10.8799 16.7611L11.0769 15.5682L11.1876 14.8799L10.7018 14.3806L9.81646 13.4737L10.9771 13.2955L11.7058 13.1849L12.0189 12.5182L12.4723 11.5439Z" fill="#4F4F4F"/>
</svg>
