<svg width="21" height="18" viewBox="0 0 21 18" fill="none" xmlns="http://www.w3.org/2000/svg">
<path d="M18.1289 13.0267C17.9025 13.0267 17.7188 13.2091 17.7188 13.4338C17.7188 13.6585 17.9025 13.8409 18.1289 13.8409C18.3553 13.8409 18.5391 13.6585 18.5391 13.4338C18.5391 13.2091 18.3553 13.0267 18.1289 13.0267Z" fill="#22993A"/>
<path d="M16.4883 13.0267C16.2619 13.0267 16.0781 13.2091 16.0781 13.4338C16.0781 13.6585 16.2619 13.8409 16.4883 13.8409C16.7147 13.8409 16.8984 13.6585 16.8984 13.4338C16.8984 13.2091 16.7147 13.0267 16.4883 13.0267Z" fill="#22993A"/>
<path d="M14.8477 13.0267C14.6213 13.0267 14.4375 13.2091 14.4375 13.4338C14.4375 13.6585 14.6213 13.8409 14.8477 13.8409C15.0741 13.8409 15.2578 13.6585 15.2578 13.4338C15.2578 13.2091 15.0741 13.0267 14.8477 13.0267Z" fill="#22993A"/>
<path d="M9.67969 13.0267C9.45328 13.0267 9.26953 13.2091 9.26953 13.4338C9.26953 13.6585 9.45328 13.8409 9.67969 13.8409C9.90609 13.8409 10.0898 13.6585 10.0898 13.4338C10.0898 13.2091 9.90609 13.0267 9.67969 13.0267Z" fill="#22993A"/>
<path d="M19.0732 8.95995C18.9129 8.16467 18.2796 7.53011 17.4727 7.36821V1.22126C17.4727 0.996464 17.289 0.814171 17.0625 0.814171C16.836 0.814171 16.6523 0.996464 16.6523 1.22126V7.36821C15.8497 7.52925 15.2149 8.1593 15.0527 8.95588H5.94727C5.78505 8.15926 5.15021 7.52925 4.34766 7.36821V1.22126C4.34766 0.996464 4.16399 0.814171 3.9375 0.814171C3.71101 0.814171 3.52734 0.996464 3.52734 1.22126V7.36821C2.72664 7.52884 2.08827 8.15856 1.92679 8.95995C0.853535 9.02382 0 9.91033 0 10.9913V15.8763C0 16.9987 0.91998 17.9118 2.05078 17.9118H18.9492C20.08 17.9118 21 16.9987 21 15.8763V10.9913C21 9.91033 20.1465 9.02382 19.0732 8.95995ZM17.0625 8.14171C17.6085 8.14171 18.0583 8.49205 18.2232 8.95588H15.9018C16.0669 8.4916 16.517 8.14171 17.0625 8.14171ZM3.9375 8.14171C4.48354 8.14171 4.93328 8.49205 5.09816 8.95588H2.77684C2.94193 8.4916 3.39195 8.14171 3.9375 8.14171ZM2.05078 9.77005C4.0822 9.77005 16.9482 9.77005 18.9492 9.77005C19.4839 9.77005 19.9398 10.1104 20.1091 10.5842H0.890859C1.06017 10.1104 1.5161 9.77005 2.05078 9.77005ZM18.9492 17.0976H2.05078C1.5161 17.0976 1.06017 16.7532 0.890859 16.2794H20.1091C19.9398 16.7532 19.4839 17.0976 18.9492 17.0976ZM20.1797 15.4692H0.820312V11.3984H20.1797V15.4692Z" fill="#22993A"/>
<path d="M8.03906 13.0267H2.87109C2.64461 13.0267 2.46094 13.209 2.46094 13.4338C2.46094 13.6586 2.64461 13.8409 2.87109 13.8409H8.03906C8.26555 13.8409 8.44922 13.6586 8.44922 13.4338C8.44922 13.209 8.26555 13.0267 8.03906 13.0267Z" fill="#22993A"/>
<path d="M15.5043 2.558C14.3484 0.956244 12.4777 0 10.5 0C8.52235 0 6.65163 0.956244 5.49568 2.558C5.36378 2.74078 5.40615 2.99509 5.59031 3.12601C5.77459 3.25701 6.03073 3.21488 6.1626 3.0321C7.16486 1.64328 8.78629 0.814171 10.5 0.814171C12.2137 0.814171 13.8351 1.64328 14.8374 3.0321C14.9687 3.21394 15.2246 3.25754 15.4097 3.12601C15.5938 2.99509 15.6362 2.74078 15.5043 2.558Z" fill="#22993A"/>
<path d="M14.1696 3.50411C13.3219 2.32955 11.9501 1.62834 10.5 1.62834C9.04993 1.62834 7.67808 2.32955 6.83037 3.50407C6.69843 3.68681 6.74075 3.94112 6.92496 4.07204C7.10912 4.203 7.36534 4.16098 7.49721 3.97816C8.19127 3.01663 9.31379 2.44251 10.5 2.44251C11.6862 2.44251 12.8087 3.01663 13.5028 3.9782C13.6342 4.16041 13.8904 4.2034 14.075 4.07208C14.2592 3.94116 14.3015 3.68685 14.1696 3.50411Z" fill="#22993A"/>
<path d="M12.8354 4.45006C12.2958 3.70281 11.4228 3.25668 10.5 3.25668C9.57719 3.25668 8.70417 3.70281 8.16465 4.45001C8.03271 4.63276 8.07499 4.88706 8.25915 5.01806C8.44327 5.14894 8.6995 5.10697 8.83148 4.92427C9.21728 4.38989 9.84104 4.07086 10.5 4.07086C11.159 4.07086 11.7827 4.38989 12.1686 4.92431C12.2996 5.10579 12.5555 5.14988 12.7409 5.0181C12.925 4.8871 12.9673 4.6328 12.8354 4.45006Z" fill="#22993A"/>
<path d="M10.5 4.88503C9.82152 4.88503 9.26953 5.43288 9.26953 6.10628C9.26953 6.77968 9.82152 7.32754 10.5 7.32754C11.1785 7.32754 11.7305 6.77968 11.7305 6.10628C11.7305 5.43288 11.1785 4.88503 10.5 4.88503ZM10.5 6.51337C10.2738 6.51337 10.0898 6.33075 10.0898 6.10628C10.0898 5.88182 10.2738 5.6992 10.5 5.6992C10.7262 5.6992 10.9102 5.88182 10.9102 6.10628C10.9102 6.33075 10.7262 6.51337 10.5 6.51337Z" fill="#22993A"/>
</svg>
