<svg width="14" height="16" viewBox="0 0 14 16" fill="none" xmlns="http://www.w3.org/2000/svg">
<path d="M6.41667 0.312988V3.40288C6.41557 3.48476 6.42985 3.56607 6.45868 3.64206C6.4875 3.71805 6.5303 3.78722 6.58457 3.84553C6.63885 3.90385 6.70352 3.95016 6.77484 3.98177C6.84616 4.01338 6.92269 4.02965 7 4.02965C7.07731 4.02965 7.15384 4.01338 7.22516 3.98177C7.29648 3.95016 7.36115 3.90385 7.41543 3.84553C7.4697 3.78722 7.5125 3.71805 7.54132 3.64206C7.57015 3.56607 7.58443 3.48476 7.58333 3.40288V1.67326C10.5222 1.99655 12.8333 4.52793 12.8333 7.72872C12.8333 11.1489 10.2285 13.9085 7 13.9085C3.77152 13.9085 1.16667 11.1489 1.16667 7.72872C1.16667 6.21238 1.68112 4.8321 2.53499 3.75773C2.58437 3.6956 2.62172 3.62377 2.64489 3.54635C2.66807 3.46892 2.67662 3.38742 2.67006 3.3065C2.66351 3.22557 2.64197 3.14681 2.60668 3.0747C2.57138 3.0026 2.52303 2.93856 2.46438 2.88625C2.40573 2.83395 2.33792 2.79439 2.26484 2.76984C2.19176 2.7453 2.11482 2.73624 2.03844 2.74319C1.96205 2.75014 1.8877 2.77297 1.81964 2.81036C1.75158 2.84775 1.69114 2.89898 1.64176 2.96112C0.618472 4.24866 0 5.91539 0 7.72872C0 11.8169 3.14098 15.1444 7 15.1444C10.859 15.1444 14 11.8169 14 7.72872C14 3.64051 10.859 0.312988 7 0.312988H6.41667ZM3.73014 4.02568C3.55933 4.05207 3.43182 4.26432 3.54557 4.45295C4.39957 5.87245 5.8578 8.2664 6.17513 8.60258C6.63071 9.08522 7.36929 9.08522 7.82487 8.60258C8.28045 8.11994 8.28045 7.3375 7.82487 6.85486C7.50754 6.51806 5.24779 4.97385 3.90788 4.06913C3.84852 4.02896 3.78708 4.01688 3.73014 4.02568Z" fill="white"/>
</svg>
