<svg width="25" height="22" viewBox="0 0 25 22" fill="none" xmlns="http://www.w3.org/2000/svg">
<path d="M9.46673 8.30499C9.66941 8.30499 9.83367 8.47069 9.83367 8.67514V16.9891C9.83367 17.6286 10.3494 18.1489 10.9834 18.1489H23.1164C23.7503 18.1489 24.2661 17.6286 24.2661 16.9891V14.4263C24.2661 14.2219 24.4304 14.0561 24.6331 14.0561C24.8357 14.0561 25 14.2219 25 14.4263V16.9891C25 18.0368 24.155 18.8891 23.1165 18.8891H10.9834C9.94485 18.8891 9.09988 18.0367 9.09988 16.9891V8.67514C9.09979 8.47069 9.26404 8.30499 9.46673 8.30499Z" fill="#22993A"/>
<path d="M10.9833 2.85003H23.1164C24.155 2.85003 25 3.70238 25 4.75003V12.9457C25 13.1501 24.8357 13.3159 24.633 13.3159C24.4304 13.3159 24.2661 13.1502 24.2661 12.9457V4.75003C24.2661 4.11056 23.7503 3.59028 23.1164 3.59028H10.9833C10.3494 3.59028 9.83362 4.11056 9.83362 4.75003V7.19459C9.83362 7.399 9.66936 7.56474 9.46668 7.56474C9.26399 7.56474 9.09974 7.399 9.09974 7.19459V4.75003C9.09979 3.70238 9.94475 2.85003 10.9833 2.85003Z" fill="#22993A"/>
<path d="M0.366941 12.2354C0.164257 12.2354 0 12.0697 0 11.8653V1.85065C0 0.830189 0.822994 0 1.83461 0H6.42303C7.43465 0 8.2577 0.830189 8.2577 1.85065V19.8885C8.2577 20.9089 7.4347 21.7391 6.42303 21.7391H1.83461C0.822994 21.7391 0 20.9089 0 19.8885V13.3458C0 13.1414 0.164257 12.9757 0.366941 12.9757C0.569628 12.9757 0.733883 13.1414 0.733883 13.3458V19.8885C0.733883 20.5008 1.22768 20.9989 1.83466 20.9989H6.42308C7.03006 20.9989 7.52386 20.5008 7.52386 19.8885V1.85065C7.52386 1.23836 7.03002 0.74025 6.42308 0.74025H1.83466C1.22768 0.74025 0.733883 1.23836 0.733883 1.85065V11.8653C0.733835 12.0697 0.569578 12.2354 0.366941 12.2354Z" fill="#22993A"/>
<path d="M6.25604 2.85599H5.70765C5.50497 2.85599 5.34071 2.69025 5.34071 2.48584C5.34071 2.28143 5.50497 2.11569 5.70765 2.11569H6.25604C6.45873 2.11569 6.62298 2.28138 6.62298 2.48584C6.62298 2.69029 6.45873 2.85599 6.25604 2.85599Z" fill="#22993A"/>
<path d="M2.00165 2.11574H2.55004C2.75273 2.11574 2.91698 2.28143 2.91698 2.48589C2.91698 2.69034 2.75273 2.85604 2.55004 2.85604H2.00165C1.79897 2.85604 1.63471 2.69029 1.63471 2.48589C1.63471 2.28148 1.79902 2.11574 2.00165 2.11574Z" fill="#22993A"/>
<path d="M6.25604 5.42251H5.70765C5.50497 5.42251 5.34071 5.25676 5.34071 5.05236C5.34071 4.84795 5.50497 4.68221 5.70765 4.68221H6.25604C6.45873 4.68221 6.62298 4.84795 6.62298 5.05236C6.62298 5.25676 6.45873 5.42251 6.25604 5.42251Z" fill="#22993A"/>
<path d="M4.40307 5.42251H3.85463C3.65195 5.42251 3.48769 5.25676 3.48769 5.05236C3.48769 4.84795 3.65195 4.68221 3.85463 4.68221H4.40307C4.60575 4.68221 4.77001 4.84795 4.77001 5.05236C4.77001 5.25676 4.60575 5.42251 4.40307 5.42251Z" fill="#22993A"/>
<path d="M2.00165 4.68221H2.55004C2.75273 4.68221 2.91698 4.84795 2.91698 5.05236C2.91698 5.25676 2.75273 5.42251 2.55004 5.42251H2.00165C1.79897 5.42251 1.63471 5.25676 1.63471 5.05236C1.63471 4.84795 1.79902 4.68221 2.00165 4.68221Z" fill="#22993A"/>
<path d="M6.25604 6.86375H5.70765C5.50497 6.86375 5.34071 6.69806 5.34071 6.4936C5.34071 6.28919 5.50497 6.12345 5.70765 6.12345H6.25604C6.45873 6.12345 6.62298 6.28919 6.62298 6.4936C6.62298 6.69801 6.45873 6.86375 6.25604 6.86375Z" fill="#22993A"/>
<path d="M4.40307 6.86375H3.85463C3.65195 6.86375 3.48769 6.69806 3.48769 6.4936C3.48769 6.28919 3.65195 6.12345 3.85463 6.12345H4.40307C4.60575 6.12345 4.77001 6.28919 4.77001 6.4936C4.77001 6.69801 4.60575 6.86375 4.40307 6.86375Z" fill="#22993A"/>
<path d="M2.00165 6.12345H2.55004C2.75273 6.12345 2.91698 6.28919 2.91698 6.4936C2.91698 6.69801 2.75273 6.86375 2.55004 6.86375H2.00165C1.79897 6.86375 1.63471 6.69806 1.63471 6.4936C1.63471 6.28919 1.79902 6.12345 2.00165 6.12345Z" fill="#22993A"/>
<path d="M5.70765 15.1787H6.25604C6.45873 15.1787 6.62298 15.3444 6.62298 15.5489C6.62298 15.7533 6.45873 15.919 6.25604 15.919H5.70765C5.50497 15.919 5.34071 15.7533 5.34071 15.5489C5.34076 15.3445 5.50502 15.1787 5.70765 15.1787Z" fill="#22993A"/>
<path d="M2.00165 15.1787H2.55004C2.75273 15.1787 2.91698 15.3444 2.91698 15.5489C2.91698 15.7533 2.75273 15.919 2.55004 15.919H2.00165C1.79897 15.919 1.63471 15.7533 1.63471 15.5489C1.63471 15.3445 1.79902 15.1787 2.00165 15.1787Z" fill="#22993A"/>
<path d="M5.70765 16.9062H6.25604C6.45873 16.9062 6.62298 17.0719 6.62298 17.2763C6.62298 17.4807 6.45873 17.6465 6.25604 17.6465H5.70765C5.50497 17.6465 5.34071 17.4807 5.34071 17.2763C5.34076 17.0718 5.50502 16.9062 5.70765 16.9062Z" fill="#22993A"/>
<path d="M3.85463 16.9062H4.40307C4.60575 16.9062 4.77001 17.0719 4.77001 17.2763C4.77001 17.4807 4.60575 17.6465 4.40307 17.6465H3.85463C3.65195 17.6465 3.48769 17.4807 3.48769 17.2763C3.48774 17.0718 3.65199 16.9062 3.85463 16.9062Z" fill="#22993A"/>
<path d="M2.00165 16.9062H2.55004C2.75273 16.9062 2.91698 17.0719 2.91698 17.2763C2.91698 17.4807 2.75273 17.6465 2.55004 17.6465H2.00165C1.79897 17.6465 1.63471 17.4807 1.63471 17.2763C1.63471 17.0718 1.79902 16.9062 2.00165 16.9062Z" fill="#22993A"/>
<path d="M5.70765 18.3474H6.25604C6.45873 18.3474 6.62298 18.5131 6.62298 18.7175C6.62298 18.922 6.45873 19.0877 6.25604 19.0877H5.70765C5.50497 19.0877 5.34071 18.922 5.34071 18.7175C5.34076 18.5131 5.50502 18.3474 5.70765 18.3474Z" fill="#22993A"/>
<path d="M3.85463 18.3474H4.40307C4.60575 18.3474 4.77001 18.5131 4.77001 18.7175C4.77001 18.922 4.60575 19.0877 4.40307 19.0877H3.85463C3.65195 19.0877 3.48769 18.922 3.48769 18.7175C3.48774 18.5131 3.65199 18.3474 3.85463 18.3474Z" fill="#22993A"/>
<path d="M2.00165 18.3474H2.55004C2.75273 18.3474 2.91698 18.5131 2.91698 18.7175C2.91698 18.922 2.75273 19.0877 2.55004 19.0877H2.00165C1.79897 19.0877 1.63471 18.922 1.63471 18.7175C1.63471 18.5131 1.79902 18.3474 2.00165 18.3474Z" fill="#22993A"/>
<path d="M6.25604 8.30499H5.70765C5.50497 8.30499 5.34071 8.13925 5.34071 7.93484C5.34071 7.73044 5.50497 7.56469 5.70765 7.56469H6.25604C6.45873 7.56469 6.62298 7.73044 6.62298 7.93484C6.62298 8.1393 6.45873 8.30499 6.25604 8.30499Z" fill="#22993A"/>
<path d="M4.40307 8.30499H3.85463C3.65195 8.30499 3.48769 8.13925 3.48769 7.93484C3.48769 7.73044 3.65195 7.56469 3.85463 7.56469H4.40307C4.60575 7.56469 4.77001 7.73044 4.77001 7.93484C4.77001 8.1393 4.60575 8.30499 4.40307 8.30499Z" fill="#22993A"/>
<path d="M2.00165 7.56474H2.55004C2.75273 7.56474 2.91698 7.73049 2.91698 7.93489C2.91698 8.1393 2.75273 8.30504 2.55004 8.30504H2.00165C1.79897 8.30504 1.63471 8.1393 1.63471 7.93489C1.63471 7.73044 1.79902 7.56474 2.00165 7.56474Z" fill="#22993A"/>
<path d="M6.25604 9.74624H5.70765C5.50497 9.74624 5.34071 9.58054 5.34071 9.37609C5.34071 9.17168 5.50497 9.00594 5.70765 9.00594H6.25604C6.45873 9.00594 6.62298 9.17168 6.62298 9.37609C6.62298 9.58049 6.45873 9.74624 6.25604 9.74624Z" fill="#22993A"/>
<path d="M4.40307 9.74624H3.85463C3.65195 9.74624 3.48769 9.58054 3.48769 9.37609C3.48769 9.17168 3.65195 9.00594 3.85463 9.00594H4.40307C4.60575 9.00594 4.77001 9.17168 4.77001 9.37609C4.77001 9.58049 4.60575 9.74624 4.40307 9.74624Z" fill="#22993A"/>
<path d="M2.00165 9.00594H2.55004C2.75273 9.00594 2.91698 9.17168 2.91698 9.37609C2.91698 9.58049 2.75273 9.74624 2.55004 9.74624H2.00165C1.79897 9.74624 1.63471 9.58054 1.63471 9.37609C1.63471 9.17168 1.79902 9.00594 2.00165 9.00594Z" fill="#22993A"/>
<path d="M2.2768 12.6056C2.2768 11.5755 3.10761 10.7374 4.1288 10.7374C5.15004 10.7374 5.9809 11.5755 5.9809 12.6056C5.9809 13.6357 5.15004 14.4738 4.1288 14.4738C3.10761 14.4738 2.2768 13.6357 2.2768 12.6056ZM4.12885 13.7335C4.74545 13.7335 5.24706 13.2275 5.24706 12.6055C5.24706 11.9836 4.74545 11.4776 4.12885 11.4776C3.5123 11.4776 3.01069 11.9836 3.01069 12.6055C3.01064 13.2275 3.51225 13.7335 4.12885 13.7335Z" fill="#22993A"/>
<path d="M13.731 8.38592C13.9233 8.32135 14.131 8.42645 14.1949 8.62052L15.2168 11.7237L16.2888 8.60855C16.3552 8.41542 16.5644 8.31327 16.7558 8.38025C16.9472 8.44729 17.0486 8.6582 16.9821 8.85133L15.6403 12.7508C15.5758 12.9339 15.4036 13.0564 15.2111 13.0564C15.2101 13.0564 15.209 13.0564 15.208 13.0564C15.0143 13.055 14.8422 12.9299 14.779 12.7424L13.4984 8.85384C13.4345 8.65992 13.5387 8.45039 13.731 8.38592Z" fill="#22993A"/>
<path d="M17.7202 8.72996C17.7202 8.52556 17.8845 8.35981 18.0871 8.35981H20.2531C20.4557 8.35981 20.62 8.52556 20.62 8.72996C20.62 8.93437 20.4557 9.10011 20.2531 9.10011H19.5414V12.6863C19.5414 12.8907 19.3771 13.0565 19.1745 13.0565C18.9718 13.0565 18.8075 12.8907 18.8075 12.6863V9.10011H18.0871C17.8845 9.10006 17.7202 8.93437 17.7202 8.72996Z" fill="#22993A"/>
<path d="M19.1771 15.9842C19.3797 15.9842 19.544 16.1499 19.544 16.3544C19.544 16.5588 19.3797 16.7245 19.1771 16.7245H18.6287C18.426 16.7245 18.2617 16.5588 18.2617 16.3544C18.2617 16.1499 18.426 15.9842 18.6287 15.9842H19.1771Z" fill="#22993A"/>
<path d="M17.691 16.3543C17.691 16.5587 17.5267 16.7245 17.324 16.7245H16.7757C16.573 16.7245 16.4087 16.5587 16.4087 16.3543C16.4087 16.1499 16.573 15.9842 16.7757 15.9842H17.324C17.5267 15.9842 17.691 16.1499 17.691 16.3543Z" fill="#22993A"/>
<path d="M15.4711 15.9842C15.6737 15.9842 15.838 16.1499 15.838 16.3544C15.838 16.5588 15.6737 16.7245 15.4711 16.7245H14.9227C14.72 16.7245 14.5557 16.5588 14.5557 16.3544C14.5557 16.1499 14.72 15.9842 14.9227 15.9842H15.4711Z" fill="#22993A"/>
<path d="M21.8942 5.45196C21.6916 5.45196 21.5273 5.28627 21.5273 5.08181C21.5273 4.8774 21.6916 4.71166 21.8942 4.71166H22.4426C22.6452 4.71166 22.8095 4.8774 22.8095 5.08181C22.8095 5.28622 22.6453 5.45196 22.4426 5.45196H21.8942Z" fill="#22993A"/>
<path d="M11.3891 5.45196C11.1864 5.45196 11.0221 5.28627 11.0221 5.08181C11.0221 4.8774 11.1864 4.71166 11.3891 4.71166H11.9375C12.1402 4.71166 12.3044 4.8774 12.3044 5.08181C12.3044 5.28622 12.1402 5.45196 11.9375 5.45196H11.3891Z" fill="#22993A"/>
</svg>
