<svg width="32" height="33" viewBox="0 0 32 33" fill="none" xmlns="http://www.w3.org/2000/svg">
<path d="M16.004 0.417969H15.996C7.174 0.417969 0 7.6506 0 16.5442C0 20.0719 1.128 23.3415 3.046 25.9963L1.052 31.9872L7.202 30.0056C9.732 31.6949 12.75 32.6705 16.004 32.6705C24.826 32.6705 32 25.4359 32 16.5442C32 7.65262 24.826 0.417969 16.004 0.417969ZM25.314 23.1903C24.928 24.2889 23.396 25.2 22.174 25.4661C21.338 25.6455 20.246 25.7886 16.57 24.2526C11.868 22.2892 8.84 17.4735 8.604 17.1611C8.378 16.8486 6.704 14.6111 6.704 12.297C6.704 9.98286 7.87 8.85604 8.34 8.37225C8.726 7.97514 9.364 7.79372 9.976 7.79372C10.174 7.79372 10.352 7.8038 10.512 7.81186C10.982 7.83202 11.218 7.86024 11.528 8.6081C11.914 9.54544 12.854 11.8596 12.966 12.0974C13.08 12.3353 13.194 12.6578 13.034 12.9703C12.884 13.2928 12.752 13.4359 12.516 13.71C12.28 13.9842 12.056 14.1938 11.82 14.4881C11.604 14.7441 11.36 15.0183 11.632 15.492C11.904 15.9556 12.844 17.5017 14.228 18.7435C16.014 20.346 17.462 20.858 17.98 21.0757C18.366 21.237 18.826 21.1987 19.108 20.8963C19.466 20.5073 19.908 19.8622 20.358 19.2272C20.678 18.7717 21.082 18.7152 21.506 18.8765C21.938 19.0277 24.224 20.1666 24.694 20.4024C25.164 20.6403 25.474 20.7532 25.588 20.9528C25.7 21.1523 25.7 22.0897 25.314 23.1903Z" fill="#59B154"/>
</svg>
