<svg width="18" height="19" viewBox="0 0 18 19" fill="none" xmlns="http://www.w3.org/2000/svg">
<path fill-rule="evenodd" clip-rule="evenodd" d="M5.25 17.3232C5.25 16.4613 5.92157 15.7626 6.75 15.7626C7.57842 15.7626 8.25 16.4613 8.25 17.3232C8.25 18.1851 7.57842 18.8839 6.75 18.8839C5.92157 18.8839 5.25 18.1851 5.25 17.3232Z" fill="white"/>
<path fill-rule="evenodd" clip-rule="evenodd" d="M13.5 17.3232C13.5 16.4613 14.1716 15.7626 15 15.7626C15.8284 15.7626 16.5 16.4613 16.5 17.3232C16.5 18.1851 15.8284 18.8839 15 18.8839C14.1716 18.8839 13.5 18.1851 13.5 17.3232Z" fill="white"/>
<path fill-rule="evenodd" clip-rule="evenodd" d="M0 1.71684C0 1.28588 0.335786 0.936523 0.75 0.936523H3.75C4.10747 0.936523 4.41526 1.19903 4.48542 1.56372L5.11532 4.83812H17.25C17.4735 4.83812 17.6854 4.94184 17.8279 5.12102C17.9704 5.30021 18.0286 5.53617 17.9867 5.76461L16.7856 12.3174C16.6828 12.8562 16.401 13.3403 15.9896 13.6848C15.5803 14.0276 15.0687 14.2105 14.5435 14.202H7.26649C6.74129 14.2105 6.22964 14.0276 5.82035 13.6848C5.40917 13.3404 5.12748 12.8566 5.0245 12.318L3.7716 5.80509C3.76652 5.78355 3.76229 5.76166 3.75897 5.73946L3.13524 2.49716H0.75C0.335786 2.49716 0 2.1478 0 1.71684ZM5.41555 6.39876L6.49564 12.0133C6.52993 12.1929 6.62385 12.3543 6.76096 12.4691C6.89807 12.584 7.06965 12.645 7.24564 12.6415L7.25999 12.6413H14.55L14.5644 12.6415C14.7404 12.645 14.9119 12.584 15.049 12.4691C15.1855 12.3548 15.2792 12.1945 15.3139 12.0158L16.3435 6.39876H5.41555Z" fill="white"/>
</svg>
