<svg width="14" height="15" viewBox="0 0 14 15" fill="none" xmlns="http://www.w3.org/2000/svg">
<path d="M6.99089 7.12392e-05C6.83631 0.00248614 6.68901 0.0661564 6.58135 0.177097C6.47368 0.288037 6.41445 0.437176 6.41667 0.591755V8.9057L5.07912 7.56815C5.02475 7.51216 4.95969 7.46764 4.8878 7.43724C4.81592 7.40684 4.73866 7.39118 4.66061 7.39118C4.54452 7.3912 4.43108 7.42587 4.3348 7.49073C4.23852 7.55559 4.16378 7.64771 4.12014 7.75529C4.07651 7.86286 4.06596 7.98102 4.08985 8.09462C4.11374 8.20823 4.17099 8.31212 4.25426 8.39301L6.58757 10.7263C6.69697 10.8357 6.84532 10.8971 7 10.8971C7.15468 10.8971 7.30303 10.8357 7.41243 10.7263L9.74575 8.39301C9.80173 8.33926 9.84642 8.27488 9.87721 8.20364C9.908 8.1324 9.92427 8.05573 9.92506 7.97812C9.92585 7.90052 9.91114 7.82354 9.88181 7.75168C9.85247 7.67983 9.8091 7.61456 9.75422 7.55968C9.69934 7.5048 9.63406 7.46142 9.56221 7.43209C9.49036 7.40275 9.41338 7.38805 9.33577 7.38884C9.25816 7.38963 9.1815 7.40589 9.11026 7.43668C9.03901 7.46747 8.97463 7.51217 8.92088 7.56815L7.58333 8.9057V0.591755C7.58445 0.51368 7.56988 0.436174 7.5405 0.363832C7.51111 0.29149 7.4675 0.225783 7.41225 0.170606C7.35701 0.115428 7.29124 0.0719027 7.21886 0.0426095C7.14648 0.0133162 7.06896 -0.00114894 6.99089 7.12392e-05ZM0.574274 9.72221C0.419698 9.72463 0.272401 9.7883 0.164736 9.89924C0.0570712 10.0102 -0.0021573 10.1593 6.00907e-05 10.3139V11.8694C6.00907e-05 13.0438 0.964584 14.0083 2.13893 14.0083H11.8611C13.0354 14.0083 13.9999 13.0438 13.9999 11.8694V10.3139C14.001 10.2366 13.9868 10.1599 13.9579 10.0881C13.9291 10.0164 13.8863 9.9511 13.832 9.89606C13.7778 9.84101 13.7131 9.79729 13.6418 9.76746C13.5705 9.73762 13.4939 9.72226 13.4166 9.72226C13.3393 9.72226 13.2628 9.73762 13.1915 9.76746C13.1201 9.79729 13.0555 9.84101 13.0012 9.89606C12.9469 9.9511 12.9041 10.0164 12.8753 10.0881C12.8465 10.1599 12.8322 10.2366 12.8333 10.3139V11.8694C12.8333 12.4132 12.4048 12.8417 11.8611 12.8417H2.13893C1.59518 12.8417 1.16672 12.4132 1.16672 11.8694V10.3139C1.16784 10.2358 1.15327 10.1583 1.12389 10.086C1.0945 10.0136 1.05089 9.94792 0.995642 9.89275C0.940394 9.83757 0.874631 9.79404 0.802251 9.76475C0.729871 9.73546 0.652347 9.72099 0.574274 9.72221Z" fill="#4F4F4F"/>
</svg>
