<svg width="14" height="15" viewBox="0 0 14 15" fill="none" xmlns="http://www.w3.org/2000/svg">
<path fill-rule="evenodd" clip-rule="evenodd" d="M1.13904 10.0979C1.86835 9.39461 2.85749 8.99951 3.88889 8.99951H10.1111C11.1425 8.99951 12.1317 9.39461 12.861 10.0979C13.5903 10.8011 14 11.7549 14 12.7495V14.2495C14 14.6637 13.6518 14.9995 13.2222 14.9995C12.7927 14.9995 12.4444 14.6637 12.4444 14.2495V12.7495C12.4444 12.1528 12.1986 11.5805 11.761 11.1585C11.3235 10.7366 10.7299 10.4995 10.1111 10.4995H3.88889C3.27005 10.4995 2.67657 10.7366 2.23898 11.1585C1.8014 11.5805 1.55556 12.1528 1.55556 12.7495V14.2495C1.55556 14.6637 1.20733 14.9995 0.777778 14.9995C0.348223 14.9995 0 14.6637 0 14.2495V12.7495C0 11.7549 0.40973 10.8011 1.13904 10.0979Z" fill="white"/>
<path fill-rule="evenodd" clip-rule="evenodd" d="M7 1.49951C5.71134 1.49951 4.66667 2.50687 4.66667 3.74951C4.66667 4.99215 5.71134 5.99951 7 5.99951C8.28866 5.99951 9.33333 4.99215 9.33333 3.74951C9.33333 2.50687 8.28866 1.49951 7 1.49951ZM3.11111 3.74951C3.11111 1.67844 4.85223 -0.000488281 7 -0.000488281C9.14777 -0.000488281 10.8889 1.67844 10.8889 3.74951C10.8889 5.82058 9.14777 7.49951 7 7.49951C4.85223 7.49951 3.11111 5.82058 3.11111 3.74951Z" fill="white"/>
</svg>
