<svg width="21" height="21" viewBox="0 0 21 21" fill="none" xmlns="http://www.w3.org/2000/svg">
<path d="M11.55 8.05H9.45C9.17152 8.05 8.90445 8.16062 8.70754 8.35754C8.51062 8.55445 8.4 8.82152 8.4 9.1C8.4 9.37848 8.51062 9.64555 8.70754 9.84246C8.90445 10.0394 9.17152 10.15 9.45 10.15H11.55C11.8285 10.15 12.0955 10.0394 12.2925 9.84246C12.4894 9.64555 12.6 9.37848 12.6 9.1C12.6 8.82152 12.4894 8.55445 12.2925 8.35754C12.0955 8.16062 11.8285 8.05 11.55 8.05ZM11.55 9.45H9.45C9.35717 9.45 9.26815 9.41313 9.20251 9.34749C9.13687 9.28185 9.1 9.19283 9.1 9.1C9.1 9.00717 9.13687 8.91815 9.20251 8.85251C9.26815 8.78687 9.35717 8.75 9.45 8.75H11.55C11.6428 8.75 11.7318 8.78687 11.7975 8.85251C11.8631 8.91815 11.9 9.00717 11.9 9.1C11.9 9.19283 11.8631 9.28185 11.7975 9.34749C11.7318 9.41313 11.6428 9.45 11.55 9.45Z" fill="#22993A"/>
<path d="M11.55 10.85H9.45C9.17152 10.85 8.90445 10.9606 8.70754 11.1575C8.51062 11.3545 8.4 11.6215 8.4 11.9C8.4 12.1785 8.51062 12.4455 8.70754 12.6425C8.90445 12.8394 9.17152 12.95 9.45 12.95H11.55C11.8285 12.95 12.0955 12.8394 12.2925 12.6425C12.4894 12.4455 12.6 12.1785 12.6 11.9C12.6 11.6215 12.4894 11.3545 12.2925 11.1575C12.0955 10.9606 11.8285 10.85 11.55 10.85ZM11.55 12.25H9.45C9.35717 12.25 9.26815 12.2131 9.20251 12.1475C9.13687 12.0819 9.1 11.9928 9.1 11.9C9.1 11.8072 9.13687 11.7182 9.20251 11.6525C9.26815 11.5869 9.35717 11.55 9.45 11.55H11.55C11.6428 11.55 11.7318 11.5869 11.7975 11.6525C11.8631 11.7182 11.9 11.8072 11.9 11.9C11.9 11.9928 11.8631 12.0819 11.7975 12.1475C11.7318 12.2131 11.6428 12.25 11.55 12.25Z" fill="#22993A"/>
<path d="M4.2 1.4H4.9V2.1H4.2V1.4Z" fill="#22993A"/>
<path d="M4.2 2.8H4.9V3.5H4.2V2.8Z" fill="#22993A"/>
<path d="M4.2 4.9H4.9V5.6H4.2V4.9Z" fill="#22993A"/>
<path d="M4.2 6.3H4.9V7H4.2V6.3Z" fill="#22993A"/>
<path d="M4.2 8.4H4.9V9.1H4.2V8.4Z" fill="#22993A"/>
<path d="M4.2 9.8H4.9V10.5H4.2V9.8Z" fill="#22993A"/>
<path d="M4.2 15.4H4.9V19.6H4.2V15.4Z" fill="#22993A"/>
<path d="M4.2 14H4.9V14.7H4.2V14Z" fill="#22993A"/>
<path d="M16.1 1.4H16.8V2.1H16.1V1.4Z" fill="#22993A"/>
<path d="M16.1 2.8H16.8V3.5H16.1V2.8Z" fill="#22993A"/>
<path d="M16.1 4.9H16.8V5.6H16.1V4.9Z" fill="#22993A"/>
<path d="M16.1 6.3H16.8V7H16.1V6.3Z" fill="#22993A"/>
<path d="M16.1 8.4H16.8V9.1H16.1V8.4Z" fill="#22993A"/>
<path d="M16.1 9.8H16.8V10.5H16.1V9.8Z" fill="#22993A"/>
<path d="M16.1 15.4H16.8V19.6H16.1V15.4Z" fill="#22993A"/>
<path d="M16.1 14H16.8V14.7H16.1V14Z" fill="#22993A"/>
<path d="M18.2 0.35C18.2 0.257174 18.1631 0.16815 18.0975 0.102513C18.0318 0.0368749 17.9428 0 17.85 0H15.05C14.9572 0 14.8681 0.0368749 14.8025 0.102513C14.7369 0.16815 14.7 0.257174 14.7 0.35V2.0174L13.0837 5.25H7.9163L6.3 2.0174V0.35C6.3 0.257174 6.26313 0.16815 6.19749 0.102513C6.13185 0.0368749 6.04283 0 5.95 0H3.15C3.05717 0 2.96815 0.0368749 2.90251 0.102513C2.83687 0.16815 2.8 0.257174 2.8 0.35V5.25H0V9.45H0.35C0.628477 9.45 0.895549 9.56062 1.09246 9.75754C1.28938 9.95445 1.4 10.2215 1.4 10.5C1.4 10.7785 1.28938 11.0455 1.09246 11.2425C0.895549 11.4394 0.628477 11.55 0.35 11.55H0V15.75H2.8V20.65C2.8 20.7428 2.83687 20.8319 2.90251 20.8975C2.96815 20.9631 3.05717 21 3.15 21H5.95C6.04283 21 6.13185 20.9631 6.19749 20.8975C6.26313 20.8319 6.3 20.7428 6.3 20.65V18.9826L7.9163 15.75H13.0837L14.7 18.9826V20.65C14.7 20.7428 14.7369 20.8319 14.8025 20.8975C14.8681 20.9631 14.9572 21 15.05 21H17.85C17.9428 21 18.0318 20.9631 18.0975 20.8975C18.1631 20.8319 18.2 20.7428 18.2 20.65V15.75H21V11.55H20.65C20.3715 11.55 20.1045 11.4394 19.9075 11.2425C19.7106 11.0455 19.6 10.7785 19.6 10.5C19.6 10.2215 19.7106 9.95445 19.9075 9.75754C20.1045 9.56062 20.3715 9.45 20.65 9.45H21V5.25H18.2V0.35ZM2.8 15.05H0.7V14.35H2.8V15.05ZM2.8 8.05H2.1V8.75H2.8V12.25H2.1V12.95H2.8V13.65H0.7V12.215C1.0956 12.1347 1.45127 11.92 1.70673 11.6075C1.9622 11.2949 2.10175 10.9037 2.10175 10.5C2.10175 10.0963 1.9622 9.70506 1.70673 9.39251C1.45127 9.07996 1.0956 8.86533 0.7 8.785V7.35H2.8V8.05ZM2.8 6.65H0.7V5.95H2.8V6.65ZM5.6 20.3H3.5V0.7H5.6V20.3ZM6.3 3.5826L7.1337 5.25H6.3V3.5826ZM6.3 8.75H7.35C7.44283 8.75 7.53185 8.78687 7.59749 8.85251C7.66313 8.91815 7.7 9.00717 7.7 9.1C7.7 9.19283 7.66313 9.28185 7.59749 9.34749C7.53185 9.41313 7.44283 9.45 7.35 9.45H6.3V8.75ZM6.3 11.55H7.35C7.44283 11.55 7.53185 11.5869 7.59749 11.6525C7.66313 11.7182 7.7 11.8072 7.7 11.9C7.7 11.9928 7.66313 12.0819 7.59749 12.1475C7.53185 12.2131 7.44283 12.25 7.35 12.25H6.3V11.55ZM6.3 17.4174V15.75H7.1337L6.3 17.4174ZM14.7 17.4174L13.8663 15.75H14.7V17.4174ZM14.7 15.05H6.3V14.35H14.7V15.05ZM14.7 12.25H13.65C13.5572 12.25 13.4682 12.2131 13.4025 12.1475C13.3369 12.0819 13.3 11.9928 13.3 11.9C13.3 11.8072 13.3369 11.7182 13.4025 11.6525C13.4682 11.5869 13.5572 11.55 13.65 11.55H14.7V12.25ZM14.7 9.45H13.65C13.5572 9.45 13.4682 9.41313 13.4025 9.34749C13.3369 9.28185 13.3 9.19283 13.3 9.1C13.3 9.00717 13.3369 8.91815 13.4025 8.85251C13.4682 8.78687 13.5572 8.75 13.65 8.75H14.7V9.45ZM14.7 8.05H13.65C13.3715 8.05 13.1045 8.16062 12.9075 8.35754C12.7106 8.55445 12.6 8.82152 12.6 9.1C12.6 9.37848 12.7106 9.64555 12.9075 9.84246C13.1045 10.0394 13.3715 10.15 13.65 10.15H14.7V10.85H13.65C13.3715 10.85 13.1045 10.9606 12.9075 11.1575C12.7106 11.3545 12.6 11.6215 12.6 11.9C12.6 12.1785 12.7106 12.4455 12.9075 12.6425C13.1045 12.8394 13.3715 12.95 13.65 12.95H14.7V13.65H6.3V12.95H7.35C7.62848 12.95 7.89555 12.8394 8.09246 12.6425C8.28938 12.4455 8.4 12.1785 8.4 11.9C8.4 11.6215 8.28938 11.3545 8.09246 11.1575C7.89555 10.9606 7.62848 10.85 7.35 10.85H6.3V10.15H7.35C7.62848 10.15 7.89555 10.0394 8.09246 9.84246C8.28938 9.64555 8.4 9.37848 8.4 9.1C8.4 8.82152 8.28938 8.55445 8.09246 8.35754C7.89555 8.16062 7.62848 8.05 7.35 8.05H6.3V7.35H14.7V8.05ZM14.7 6.65H6.3V5.95H14.7V6.65ZM14.7 5.25H13.8663L14.7 3.5826V5.25ZM17.5 20.3H15.4V0.7H17.5V20.3ZM20.3 15.05H18.2V14.35H20.3V15.05ZM20.3 8.785C19.9044 8.86533 19.5487 9.07996 19.2933 9.39251C19.0378 9.70506 18.8982 10.0963 18.8982 10.5C18.8982 10.9037 19.0378 11.2949 19.2933 11.6075C19.5487 11.92 19.9044 12.1347 20.3 12.215V13.65H18.2V12.95H18.9V12.25H18.2V8.75H18.9V8.05H18.2V7.35H20.3V8.785ZM20.3 5.95V6.65H18.2V5.95H20.3Z" fill="#22993A"/>
</svg>
