<svg width="14" height="16" viewBox="0 0 14 16" fill="none" xmlns="http://www.w3.org/2000/svg">
<path d="M2.56141 0.3125L0.860389 2.11454C-0.0724261 3.10275 -0.275028 4.64097 0.391871 5.84829C1.13475 7.1987 1.74255 8.19586 4.28775 10.8877C6.82872 13.5841 7.52094 13.9508 8.77455 14.7288C9.91841 15.4353 11.3662 15.2207 12.2948 14.2325L14 12.4304L10.7077 8.94709L9.36969 10.3646C9.2093 10.2886 8.96871 10.1544 8.69013 9.9666C8.11609 9.57758 7.38165 8.98286 6.73586 8.29424C6.08584 7.61009 5.45271 6.75602 5.01374 6.0674C4.79847 5.72756 4.62542 5.41902 4.53256 5.2178C4.52834 5.20886 4.52834 5.20886 4.52412 5.19992L5.84947 3.79585L2.56141 0.3125ZM2.56141 1.9312L4.32151 3.79585L3.54909 4.61861C3.3887 4.78853 3.37181 4.97634 3.37604 5.08366C3.37604 5.1865 3.39292 5.25805 3.4098 5.32512C3.44779 5.46374 3.49844 5.58447 3.56175 5.72756C3.6926 6.0048 3.88254 6.33569 4.11891 6.7113C4.59165 7.45358 5.25855 8.35237 5.96766 9.10806C6.68099 9.85928 7.46607 10.4942 8.11187 10.928C8.43265 11.1471 8.71545 11.3125 8.95604 11.4243C9.07845 11.4825 9.18819 11.5272 9.31904 11.554C9.38235 11.5674 9.45411 11.5764 9.55119 11.5674C9.64827 11.5629 9.80022 11.5272 9.93529 11.3841L10.7077 10.5658L12.472 12.4304L11.5308 13.4276C10.9441 14.0491 10.0366 14.1833 9.31904 13.7406C8.04433 12.9491 7.55893 12.739 5.04751 10.0829C2.5403 7.42228 2.05912 6.60399 1.32469 5.27146C0.906819 4.5113 1.03344 3.54991 1.62015 2.92836L2.56141 1.9312Z" fill="white"/>
</svg>
