<svg width="21" height="23" viewBox="0 0 21 23" fill="none" xmlns="http://www.w3.org/2000/svg">
<path d="M13.2349 13.1297C13.2957 13.1778 13.3681 13.2011 13.44 13.2011C13.5384 13.2011 13.6359 13.1574 13.7014 13.0736C14.2703 12.3465 14.5711 11.4734 14.5711 10.5486C14.5711 8.29335 12.7448 6.4586 10.5 6.4586C8.25514 6.4586 6.42883 8.29335 6.42883 10.5486C6.42883 11.4734 6.72957 12.3465 7.29848 13.0736C7.4119 13.2186 7.62079 13.2437 7.76505 13.1298C7.90935 13.0158 7.93434 12.806 7.82096 12.661C7.345 12.0527 7.09339 11.3223 7.09339 10.5486C7.09339 8.66153 8.62154 7.12623 10.5 7.12623C12.3784 7.12623 13.9065 8.66149 13.9065 10.5486C13.9065 11.3223 13.6549 12.0527 13.179 12.661C13.0656 12.8059 13.0906 13.0158 13.2349 13.1297Z" fill="#22993A"/>
<path d="M17.9246 3.08961C15.9414 1.09724 13.3047 0 10.5 0C7.69531 0 5.05858 1.09724 3.07539 3.08961C1.09219 5.08197 0 7.73089 0 10.5485C0 13.595 1.3115 16.4923 3.59818 18.4978C3.73645 18.619 3.94628 18.6047 4.06705 18.4658C4.18774 18.3269 4.17347 18.1161 4.03524 17.9948C1.89313 16.1162 0.664565 13.4022 0.664565 10.5485C0.664565 7.90924 1.68764 5.42794 3.54528 3.56167C5.40292 1.6954 7.87284 0.667638 10.5 0.667638C13.1272 0.667638 15.597 1.69544 17.4547 3.56167C19.3124 5.4279 20.3354 7.90924 20.3354 10.5485C20.3354 13.4022 19.1069 16.1162 16.9648 17.9948C16.8265 18.1161 16.8123 18.3269 16.9329 18.4658C16.9987 18.5414 17.0908 18.5801 17.1834 18.5801C17.2609 18.5801 17.3388 18.553 17.4018 18.4978C19.6885 16.4923 21 13.595 21 10.5485C21 7.73089 19.9078 5.08197 17.9246 3.08961Z" fill="#22993A"/>
<path d="M18.1028 10.5485C18.1028 8.94181 17.6115 7.40437 16.6822 6.10239C16.5752 5.95248 16.3676 5.91817 16.2185 6.02561C16.0694 6.13306 16.0352 6.34163 16.1421 6.49144C16.99 7.67931 17.4382 9.08224 17.4382 10.5485C17.4382 12.7797 16.3617 14.8931 14.5585 16.202C14.4098 16.31 14.3763 16.5187 14.4838 16.6681C14.5488 16.7584 14.6503 16.8064 14.7534 16.8064C14.8208 16.8064 14.8889 16.7859 14.9477 16.7432C15.9034 16.0495 16.6966 15.1293 17.2416 14.0821C17.805 12.9998 18.1028 11.7779 18.1028 10.5485Z" fill="#22993A"/>
<path d="M15.7208 5.45496C15.8465 5.32058 15.84 5.10934 15.7063 4.98307C14.2913 3.64664 12.4423 2.91059 10.5 2.91059C6.30783 2.91059 2.89719 6.33695 2.89719 10.5485C2.89719 11.7779 3.19496 12.9998 3.75834 14.0822C4.30337 15.1293 5.0966 16.0495 6.05224 16.7432C6.11108 16.7859 6.17913 16.8065 6.2466 16.8065C6.34961 16.8064 6.45125 16.7585 6.5162 16.6682C6.62368 16.5187 6.59023 16.31 6.44145 16.2021C4.63827 14.8932 3.56176 12.7797 3.56176 10.5485C3.56176 6.70509 6.67423 3.57823 10.5 3.57823C12.2725 3.57823 13.9599 4.24987 15.2511 5.46942C15.3847 5.5957 15.5951 5.5892 15.7208 5.45496Z" fill="#22993A"/>
<path d="M11.1936 9.87677H9.80637C9.4666 9.87677 9.16817 10.1189 9.09666 10.4526L7.19844 19.3135C7.15981 19.4938 7.27398 19.6713 7.45337 19.7101C7.47694 19.7152 7.50046 19.7177 7.52363 19.7177C7.67684 19.7176 7.81458 19.6106 7.84812 19.454L9.74634 10.5931C9.75241 10.5648 9.77762 10.5444 9.80633 10.5444H11.1935C11.2223 10.5444 11.2475 10.5648 11.2535 10.5931L11.8731 13.4855C11.9117 13.6657 12.0885 13.7802 12.2679 13.7416C12.4473 13.7028 12.5614 13.5253 12.5228 13.345L11.9032 10.4526C11.8318 10.119 11.5334 9.87677 11.1936 9.87677Z" fill="#22993A"/>
<path d="M14.9105 22.0937H14.3971L12.8209 14.7363C12.7823 14.556 12.6055 14.4415 12.4262 14.4802C12.2468 14.5189 12.1327 14.6965 12.1712 14.8768L13.7173 22.0937H13.0375L10.8249 11.7648C10.792 11.6111 10.6566 11.5013 10.5 11.5013C10.3435 11.5013 10.2081 11.6111 10.1752 11.7648L7.9626 22.0937H7.28279L7.55022 20.8453C7.58885 20.665 7.47468 20.4874 7.29529 20.4487C7.11594 20.4101 6.93917 20.5245 6.90054 20.7048L6.60299 22.0937H6.21081C6.02725 22.0937 5.87852 22.2431 5.87852 22.4275C5.87852 22.6119 6.02725 22.7613 6.21081 22.7613H14.9105C15.0941 22.7613 15.2428 22.6119 15.2428 22.4275C15.2428 22.2431 15.094 22.0937 14.9105 22.0937ZM9.89755 17.1234L11.0828 16.1426L11.5725 18.4285L9.89755 17.1234ZM11.4939 19.2122L8.94421 20.6843L9.57913 17.7203L11.4939 19.2122ZM10.5 13.4217L10.9255 15.4079L9.89117 16.2637L10.5 13.4217ZM8.75596 21.5631L11.8601 19.7709L12.3576 22.0937H8.64227L8.75596 21.5631Z" fill="#22993A"/>
</svg>
