<svg width="14" height="14" viewBox="0 0 14 14" fill="none" xmlns="http://www.w3.org/2000/svg">
<path d="M11.1889 0.0201055C11.0517 0.0109616 10.9146 0.0201055 10.782 0.0429677C10.2516 0.125268 9.75778 0.449899 9.49259 0.975709L9.09023 1.78043L6.19142 4.67924H4.09275C3.31547 4.67924 2.57019 4.99015 2.02609 5.53882L1.12535 6.43499L3.95101 9.26065L0.0234375 13.1882L0.846444 14.0204L4.77859 10.0882L7.60425 12.9139L8.50041 12.0131C9.04908 11.469 9.35999 10.7238 9.35999 9.94648V7.84782L12.2588 4.949L13.059 4.54664C14.1197 4.02083 14.3529 2.57143 13.5208 1.7347L12.3045 0.518483C11.989 0.207569 11.5913 0.0429677 11.1889 0.0201055ZM10.9694 1.17689C11.1432 1.14488 11.3306 1.19975 11.477 1.35063L12.6886 2.56686C12.9812 2.85948 12.9081 3.31213 12.5377 3.4996L11.5638 3.98426L8.1895 7.36316V9.94648C8.1895 10.4129 8.0066 10.8564 7.6774 11.1901L7.60425 11.2587L2.78051 6.43499L2.84909 6.36183C3.18287 6.03263 3.62638 5.84974 4.09275 5.84974H6.67608L10.055 2.47541L10.5396 1.50152C10.6311 1.31406 10.7911 1.20432 10.9694 1.17689Z" fill="#4F4F4F"/>
</svg>
