<svg width="11" height="28" viewBox="0 0 11 28" fill="none" xmlns="http://www.w3.org/2000/svg">
<path d="M0.747885 15.7592C0.484545 15.7592 0.271132 15.5458 0.271132 15.2825V2.38364C0.271132 1.06928 1.34042 0 2.65477 0H8.6163C9.93065 0 11 1.06928 11 2.38364V25.6164C11 26.9307 9.93072 28 8.6163 28H2.65477C1.34042 28 0.271132 26.9307 0.271132 25.6164V17.1894C0.271132 16.9261 0.484545 16.7127 0.747885 16.7127C1.01122 16.7127 1.22464 16.9261 1.22464 17.1894V25.6164C1.22464 26.4051 1.86621 27.0466 2.65483 27.0466H8.61636C9.40499 27.0466 10.0466 26.4051 10.0466 25.6164V2.38364C10.0466 1.59501 9.40493 0.953442 8.61636 0.953442H2.65483C1.86621 0.953442 1.22464 1.59501 1.22464 2.38364V15.2825C1.22457 15.5458 1.01116 15.7592 0.747885 15.7592Z" fill="#22993A"/>
<path d="M8.39933 3.67851H7.68684C7.4235 3.67851 7.21008 3.46504 7.21008 3.20176C7.21008 2.93848 7.4235 2.72501 7.68684 2.72501H8.39933C8.66267 2.72501 8.87609 2.93842 8.87609 3.20176C8.87609 3.4651 8.66267 3.67851 8.39933 3.67851Z" fill="#22993A"/>
<path d="M2.87179 2.72507H3.58429C3.84763 2.72507 4.06105 2.93848 4.06105 3.20182C4.06105 3.46516 3.84763 3.67858 3.58429 3.67858H2.87179C2.60845 3.67858 2.39504 3.4651 2.39504 3.20182C2.39504 2.93855 2.60852 2.72507 2.87179 2.72507Z" fill="#22993A"/>
<path d="M8.39933 6.98419H7.68684C7.4235 6.98419 7.21008 6.77071 7.21008 6.50744C7.21008 6.24416 7.4235 6.03068 7.68684 6.03068H8.39933C8.66267 6.03068 8.87609 6.24416 8.87609 6.50744C8.87609 6.77071 8.66267 6.98419 8.39933 6.98419Z" fill="#22993A"/>
<path d="M5.99185 6.98419H5.27928C5.01594 6.98419 4.80253 6.77071 4.80253 6.50744C4.80253 6.24416 5.01594 6.03068 5.27928 6.03068H5.99185C6.25519 6.03068 6.4686 6.24416 6.4686 6.50744C6.4686 6.77071 6.25519 6.98419 5.99185 6.98419Z" fill="#22993A"/>
<path d="M2.87179 6.03068H3.58429C3.84763 6.03068 4.06105 6.24416 4.06105 6.50744C4.06105 6.77071 3.84763 6.98419 3.58429 6.98419H2.87179C2.60845 6.98419 2.39504 6.77071 2.39504 6.50744C2.39504 6.24416 2.60852 6.03068 2.87179 6.03068Z" fill="#22993A"/>
<path d="M8.39933 8.84051H7.68684C7.4235 8.84051 7.21008 8.6271 7.21008 8.36376C7.21008 8.10048 7.4235 7.887 7.68684 7.887H8.39933C8.66267 7.887 8.87609 8.10048 8.87609 8.36376C8.87609 8.62703 8.66267 8.84051 8.39933 8.84051Z" fill="#22993A"/>
<path d="M5.99185 8.84051H5.27928C5.01594 8.84051 4.80253 8.6271 4.80253 8.36376C4.80253 8.10048 5.01594 7.887 5.27928 7.887H5.99185C6.25519 7.887 6.4686 8.10048 6.4686 8.36376C6.4686 8.62703 6.25519 8.84051 5.99185 8.84051Z" fill="#22993A"/>
<path d="M2.87179 7.887H3.58429C3.84763 7.887 4.06105 8.10048 4.06105 8.36376C4.06105 8.62703 3.84763 8.84051 3.58429 8.84051H2.87179C2.60845 8.84051 2.39504 8.6271 2.39504 8.36376C2.39504 8.10048 2.60852 7.887 2.87179 7.887Z" fill="#22993A"/>
<path d="M7.68684 19.5502H8.39933C8.66267 19.5502 8.87609 19.7636 8.87609 20.027C8.87609 20.2902 8.66267 20.5037 8.39933 20.5037H7.68684C7.4235 20.5037 7.21008 20.2902 7.21008 20.027C7.21015 19.7637 7.42356 19.5502 7.68684 19.5502Z" fill="#22993A"/>
<path d="M2.87179 19.5502H3.58429C3.84763 19.5502 4.06105 19.7636 4.06105 20.027C4.06105 20.2902 3.84763 20.5037 3.58429 20.5037H2.87179C2.60845 20.5037 2.39504 20.2902 2.39504 20.027C2.39504 19.7637 2.60852 19.5502 2.87179 19.5502Z" fill="#22993A"/>
<path d="M7.68684 21.7751H8.39933C8.66267 21.7751 8.87609 21.9886 8.87609 22.2519C8.87609 22.5152 8.66267 22.7286 8.39933 22.7286H7.68684C7.4235 22.7286 7.21008 22.5152 7.21008 22.2519C7.21015 21.9885 7.42356 21.7751 7.68684 21.7751Z" fill="#22993A"/>
<path d="M5.27928 21.7751H5.99185C6.25519 21.7751 6.4686 21.9886 6.4686 22.2519C6.4686 22.5152 6.25519 22.7286 5.99185 22.7286H5.27928C5.01594 22.7286 4.80253 22.5152 4.80253 22.2519C4.8026 21.9885 5.01601 21.7751 5.27928 21.7751Z" fill="#22993A"/>
<path d="M2.87179 21.7751H3.58429C3.84763 21.7751 4.06105 21.9886 4.06105 22.2519C4.06105 22.5152 3.84763 22.7286 3.58429 22.7286H2.87179C2.60845 22.7286 2.39504 22.5152 2.39504 22.2519C2.39504 21.9885 2.60852 21.7751 2.87179 21.7751Z" fill="#22993A"/>
<path d="M7.68684 23.6315H8.39933C8.66267 23.6315 8.87609 23.8449 8.87609 24.1082C8.87609 24.3715 8.66267 24.585 8.39933 24.585H7.68684C7.4235 24.585 7.21008 24.3715 7.21008 24.1082C7.21015 23.8449 7.42356 23.6315 7.68684 23.6315Z" fill="#22993A"/>
<path d="M5.27928 23.6315H5.99185C6.25519 23.6315 6.4686 23.8449 6.4686 24.1082C6.4686 24.3715 6.25519 24.585 5.99185 24.585H5.27928C5.01594 24.585 4.80253 24.3715 4.80253 24.1082C4.8026 23.8449 5.01601 23.6315 5.27928 23.6315Z" fill="#22993A"/>
<path d="M2.87179 23.6315H3.58429C3.84763 23.6315 4.06105 23.8449 4.06105 24.1082C4.06105 24.3715 3.84763 24.585 3.58429 24.585H2.87179C2.60845 24.585 2.39504 24.3715 2.39504 24.1082C2.39504 23.8449 2.60852 23.6315 2.87179 23.6315Z" fill="#22993A"/>
<path d="M8.39933 10.6968H7.68684C7.4235 10.6968 7.21008 10.4834 7.21008 10.2201C7.21008 9.9568 7.4235 9.74333 7.68684 9.74333H8.39933C8.66267 9.74333 8.87609 9.9568 8.87609 10.2201C8.87609 10.4834 8.66267 10.6968 8.39933 10.6968Z" fill="#22993A"/>
<path d="M5.99185 10.6968H5.27928C5.01594 10.6968 4.80253 10.4834 4.80253 10.2201C4.80253 9.9568 5.01594 9.74333 5.27928 9.74333H5.99185C6.25519 9.74333 6.4686 9.9568 6.4686 10.2201C6.4686 10.4834 6.25519 10.6968 5.99185 10.6968Z" fill="#22993A"/>
<path d="M2.87179 9.74339H3.58429C3.84763 9.74339 4.06105 9.95687 4.06105 10.2201C4.06105 10.4834 3.84763 10.6969 3.58429 10.6969H2.87179C2.60845 10.6969 2.39504 10.4834 2.39504 10.2201C2.39504 9.9568 2.60852 9.74339 2.87179 9.74339Z" fill="#22993A"/>
<path d="M8.39933 12.5532H7.68684C7.4235 12.5532 7.21008 12.3397 7.21008 12.0764C7.21008 11.8131 7.4235 11.5996 7.68684 11.5996H8.39933C8.66267 11.5996 8.87609 11.8131 8.87609 12.0764C8.87609 12.3397 8.66267 12.5532 8.39933 12.5532Z" fill="#22993A"/>
<path d="M5.99185 12.5532H5.27928C5.01594 12.5532 4.80253 12.3397 4.80253 12.0764C4.80253 11.8131 5.01594 11.5996 5.27928 11.5996H5.99185C6.25519 11.5996 6.4686 11.8131 6.4686 12.0764C6.4686 12.3397 6.25519 12.5532 5.99185 12.5532Z" fill="#22993A"/>
<path d="M2.87179 11.5996H3.58429C3.84763 11.5996 4.06105 11.8131 4.06105 12.0764C4.06105 12.3397 3.84763 12.5532 3.58429 12.5532H2.87179C2.60845 12.5532 2.39504 12.3397 2.39504 12.0764C2.39504 11.8131 2.60852 11.5996 2.87179 11.5996Z" fill="#22993A"/>
<path d="M3.22928 16.236C3.22928 14.9092 4.30871 13.8298 5.6355 13.8298C6.96235 13.8298 8.04185 14.9092 8.04185 16.236C8.04185 17.5628 6.96235 18.6423 5.6355 18.6423C4.30871 18.6423 3.22928 17.5628 3.22928 16.236ZM5.63556 17.6888C6.43669 17.6888 7.08841 17.037 7.08841 16.2359C7.08841 15.4349 6.43669 14.7831 5.63556 14.7831C4.83451 14.7831 4.18279 15.4349 4.18279 16.2359C4.18272 17.037 4.83444 17.6888 5.63556 17.6888Z" fill="#22993A"/>
</svg>
