<svg width="25" height="27" viewBox="0 0 25 27" fill="none" xmlns="http://www.w3.org/2000/svg">
<path d="M4.57394 0L1.53641 3.21793C-0.129332 4.9826 -0.491122 7.72941 0.699769 9.88534C2.02633 12.2968 3.1117 14.0774 7.65669 18.8844C12.1941 23.6993 13.4303 24.354 15.6688 25.7434C17.7114 27.005 20.2967 26.6218 21.9549 24.8571L25 21.6392L19.1209 15.4189L16.7316 17.9501C16.4452 17.8144 16.0155 17.5748 15.5181 17.2395C14.493 16.5448 13.1815 15.4828 12.0283 14.2531C10.8676 13.0314 9.73698 11.5063 8.9531 10.2766C8.5687 9.66975 8.25967 9.11879 8.09385 8.75947C8.08632 8.7435 8.08632 8.7435 8.07878 8.72753L10.4455 6.22026L4.57394 0ZM4.57394 2.89054L7.71699 6.22026L6.33766 7.68949C6.05125 7.99292 6.0211 8.32828 6.02864 8.51992C6.02864 8.70357 6.05878 8.83133 6.08893 8.95111C6.15677 9.19864 6.24722 9.41423 6.36028 9.66975C6.59393 10.1648 6.93311 10.7557 7.3552 11.4264C8.19938 12.7519 9.39027 14.3569 10.6565 15.7064C11.9303 17.0478 13.3323 18.1817 14.4855 18.9562C15.0583 19.3475 15.5633 19.6429 15.9929 19.8426C16.2115 19.9464 16.4075 20.0262 16.6411 20.0741C16.7542 20.0981 16.8823 20.114 17.0557 20.0981C17.2291 20.0901 17.5004 20.0262 17.7416 19.7707L19.1209 18.3094L22.2715 21.6392L20.5907 23.4198C19.543 24.5297 17.9225 24.7693 16.6411 23.9787C14.3649 22.5654 13.4981 22.1901 9.0134 17.4471C4.53625 12.696 3.677 11.2348 2.36551 8.85529C1.61932 7.49785 1.84544 5.78109 2.89312 4.67118L4.57394 2.89054Z" fill="#4F4F4F"/>
</svg>
