<svg width="15" height="17" viewBox="0 0 15 17" fill="none" xmlns="http://www.w3.org/2000/svg">
<path d="M14.7894 14.6817L12.0085 11.7595C13.088 10.3337 13.6107 8.52395 13.4693 6.70236C13.3278 4.88077 12.533 3.18581 11.2481 1.96601C9.96328 0.746211 8.2861 0.0942834 6.56147 0.144278C4.83683 0.194273 3.19582 0.942391 1.97586 2.2348C0.755897 3.52721 0.049719 5.26568 0.00252672 7.09274C-0.0446655 8.9198 0.570716 10.6966 1.72213 12.0577C2.87355 13.4189 4.47349 14.261 6.19297 14.4108C7.91245 14.5606 9.62076 14.0068 10.9667 12.8633L13.725 15.7855C13.7947 15.8599 13.8776 15.919 13.9689 15.9593C14.0603 15.9996 14.1582 16.0204 14.2572 16.0204C14.3561 16.0204 14.4541 15.9996 14.5455 15.9593C14.6368 15.919 14.7197 15.8599 14.7894 15.7855C14.9245 15.6374 15 15.4395 15 15.2336C15 15.0277 14.9245 14.8298 14.7894 14.6817ZM6.76166 12.8633C5.72392 12.8633 4.70949 12.5373 3.84664 11.9265C2.9838 11.3158 2.31129 10.4476 1.91417 9.43196C1.51705 8.41628 1.41314 7.29866 1.61559 6.22041C1.81804 5.14217 2.31776 4.15175 3.05155 3.37438C3.78534 2.59701 4.72024 2.06762 5.73804 1.85314C6.75584 1.63867 7.81081 1.74874 8.76955 2.16945C9.72829 2.59016 10.5477 3.3026 11.1243 4.21669C11.7008 5.13078 12.0085 6.20546 12.0085 7.30482C12.0085 8.77902 11.4557 10.1928 10.4718 11.2353C9.48778 12.2777 8.15321 12.8633 6.76166 12.8633Z" fill="white"/>
</svg>
