<svg width="20" height="17" viewBox="0 0 20 17" fill="none" xmlns="http://www.w3.org/2000/svg">
<path d="M5.24736 0C4.29036 0 3.49824 0.792523 3.49824 1.75V2.74121L1.10003 4.16895C0.418951 4.57406 0 5.31031 0 6.10254V6.23242V13.75C0 15.536 1.46329 17 3.24836 17H16.7416C18.5266 17 19.9899 15.536 19.9899 13.75V6.36621C20.0034 6.28506 20.0034 6.20225 19.9899 6.12109V6.10352C19.9899 5.31081 19.5712 4.57501 18.8909 4.16992C18.8905 4.1696 18.8902 4.16927 18.8899 4.16895L16.4917 2.74219V1.75C16.4917 0.792523 15.6996 0 14.7426 0H5.24736ZM5.24736 1.5H14.7426C14.89 1.5 14.9924 1.60248 14.9924 1.75V7.4834L9.99496 9.91602L4.99748 7.4834V3.28418C5.0107 3.20366 5.0107 3.12153 4.99748 3.04102V1.75C4.99748 1.60248 5.09991 1.5 5.24736 1.5ZM7.24635 3C7.14701 2.99859 7.04839 3.01696 6.95621 3.05402C6.86403 3.09108 6.78013 3.1461 6.70939 3.21588C6.63865 3.28566 6.58248 3.36882 6.54413 3.46051C6.50579 3.5522 6.48605 3.65061 6.48605 3.75C6.48605 3.84939 6.50579 3.9478 6.54413 4.03949C6.58248 4.13118 6.63865 4.21434 6.70939 4.28412C6.78013 4.3539 6.86403 4.40892 6.95621 4.44598C7.04839 4.48304 7.14701 4.50141 7.24635 4.5H12.7436C12.8429 4.50141 12.9415 4.48304 13.0337 4.44598C13.1259 4.40892 13.2098 4.3539 13.2805 4.28412C13.3513 4.21434 13.4074 4.13118 13.4458 4.03949C13.4841 3.9478 13.5039 3.84939 13.5039 3.75C13.5039 3.65061 13.4841 3.5522 13.4458 3.46051C13.4074 3.36882 13.3513 3.28566 13.2805 3.21588C13.2098 3.1461 13.1259 3.09108 13.0337 3.05402C12.9415 3.01696 12.8429 2.99859 12.7436 3H7.24635ZM3.49824 4.4873V6.75391L1.56366 5.8125C1.62488 5.66782 1.72594 5.54146 1.86625 5.45801L3.49824 4.4873ZM16.4917 4.48828L18.1237 5.45898C18.2632 5.54229 18.3639 5.6683 18.4253 5.8125L16.4917 6.75391V4.48828ZM7.24635 6C7.14701 5.99859 7.04839 6.01696 6.95621 6.05402C6.86403 6.09108 6.78013 6.1461 6.70939 6.21588C6.63865 6.28566 6.58248 6.36882 6.54413 6.46051C6.50579 6.5522 6.48605 6.65061 6.48605 6.75C6.48605 6.84939 6.50579 6.9478 6.54413 7.03949C6.58248 7.13118 6.63865 7.21434 6.70939 7.28412C6.78013 7.3539 6.86403 7.40892 6.95621 7.44598C7.04839 7.48304 7.14701 7.50141 7.24635 7.5H10.7446C10.8439 7.50141 10.9425 7.48304 11.0347 7.44598C11.1269 7.40892 11.2108 7.3539 11.2815 7.28412C11.3523 7.21434 11.4085 7.13118 11.4468 7.03949C11.4851 6.9478 11.5049 6.84939 11.5049 6.75C11.5049 6.65061 11.4851 6.5522 11.4468 6.46051C11.4085 6.36882 11.3523 6.28566 11.2815 6.21588C11.2108 6.1461 11.1269 6.09108 11.0347 6.05402C10.9425 6.01696 10.8439 5.99859 10.7446 6H7.24635ZM1.49924 7.44922L9.667 11.4248C9.76918 11.4745 9.88133 11.5004 9.99496 11.5004C10.1086 11.5004 10.2207 11.4745 10.3229 11.4248L18.4907 7.44922V13.75C18.4907 14.725 17.7161 15.5 16.7416 15.5H3.24836C2.27382 15.5 1.49924 14.725 1.49924 13.75V7.44922Z" fill="white"/>
</svg>
