<svg width="30" height="33" viewBox="0 0 30 33" fill="none" xmlns="http://www.w3.org/2000/svg">
<path d="M29.3289 8.17241L29.32 8.13518C28.5962 5.09192 25.3334 1.82634 22.337 1.14696L22.3032 1.13972C17.4566 0.178037 12.5424 0.178037 7.69685 1.13972L7.66205 1.14696C4.66662 1.82634 1.40376 5.09192 0.679017 8.13518L0.671063 8.17241C-0.223688 12.4224 -0.223688 16.7324 0.671063 20.9824L0.679017 21.0196C1.37285 23.933 4.39273 27.0486 7.27731 27.9054V31.3025C7.27731 32.532 8.71786 33.1359 9.53705 32.2487L12.8461 28.6709C13.5638 28.7127 14.2819 28.736 15 28.736C17.4397 28.736 19.8804 28.4961 22.3032 28.0152L22.337 28.008C25.3334 27.3286 28.5962 24.063 29.32 21.0198L29.3289 20.9825C30.2237 16.7324 30.2237 12.4224 29.3289 8.17241ZM26.7103 20.3661C26.2271 22.3515 23.7497 24.8198 21.7812 25.2759C19.2042 25.7856 16.6069 26.0034 14.0121 25.9287C13.9605 25.9272 13.9109 25.948 13.8749 25.9865C13.5067 26.3796 11.4588 28.5663 11.4588 28.5663L8.88885 31.3096C8.70095 31.5134 8.37089 31.3748 8.37089 31.0935V25.4659C8.37089 25.373 8.30706 25.294 8.21928 25.2761C8.21878 25.276 8.21829 25.2759 8.21779 25.2758C6.24934 24.8197 3.77287 22.3514 3.28871 20.366C2.48343 16.5245 2.48343 12.6302 3.28871 8.78861C3.77287 6.8032 6.24934 4.33488 8.21779 3.87886C12.7184 2.98853 17.2816 2.98853 21.7812 3.87886C23.7507 4.33488 26.2271 6.8032 26.7103 8.78861C27.5165 12.6303 27.5165 16.5246 26.7103 20.3661Z" fill="#7F4DA0"/>
<path d="M19.282 22.9638C18.9794 22.8682 18.691 22.804 18.4231 22.6884C15.6478 21.4908 13.0936 19.9457 11.0704 17.5771C9.91981 16.2303 9.01929 14.7097 8.25806 13.1005C7.89707 12.3373 7.59286 11.5443 7.28278 10.7564C7.00004 10.038 7.41649 9.29571 7.85502 8.75438C8.26651 8.24634 8.796 7.85753 9.36944 7.57099C9.81701 7.34732 10.2585 7.47627 10.5854 7.87087C11.2921 8.72397 11.9411 9.62072 12.4668 10.6096C12.79 11.2178 12.7013 11.9613 12.1155 12.3753C11.9732 12.4759 11.8434 12.594 11.7108 12.7076C11.5945 12.8072 11.485 12.9078 11.4053 13.0426C11.2595 13.2894 11.2526 13.5804 11.3464 13.8486C12.0688 15.9134 13.2864 17.519 15.2844 18.3838C15.6042 18.5222 15.9253 18.6833 16.2936 18.6386C16.9105 18.5636 17.1102 17.8598 17.5425 17.4921C17.965 17.1328 18.5049 17.128 18.9601 17.4276C19.4153 17.7273 19.8566 18.049 20.2952 18.3741C20.7258 18.6932 21.1545 19.0054 21.5517 19.3692C21.9335 19.719 22.0651 20.1779 21.85 20.6527C21.4563 21.5221 20.8835 22.2454 20.0571 22.7071C19.8238 22.8373 19.5451 22.8795 19.282 22.9638C19.5451 22.8795 18.9794 22.8681 19.282 22.9638Z" fill="#7F4DA0"/>
<path d="M15.0076 6.57684C18.6378 6.68262 21.6194 9.18848 22.2583 12.9215C22.3672 13.5575 22.406 14.2078 22.4544 14.8534C22.4748 15.125 22.3269 15.3829 22.0452 15.3865C21.7542 15.3901 21.6232 15.1368 21.6044 14.8654C21.567 14.3281 21.541 13.7884 21.4698 13.2556C21.0941 10.4428 18.9377 8.11574 16.246 7.61639C15.841 7.54121 15.4264 7.52146 15.0161 7.47669C14.7567 7.44835 14.417 7.43201 14.3596 7.09667C14.3113 6.8155 14.5395 6.59163 14.7969 6.57725C14.8669 6.57322 14.9373 6.57653 15.0076 6.57684C14.9373 6.57653 18.6378 6.68262 15.0076 6.57684Z" fill="#7F4DA0"/>
<path d="M20.5244 14.0155C20.5184 14.0627 20.5152 14.1735 20.4887 14.2779C20.3924 14.657 19.8398 14.7045 19.7126 14.3219C19.6749 14.2084 19.6692 14.0792 19.669 13.957C19.6677 13.1572 19.5006 12.3583 19.1129 11.6625C18.7143 10.9473 18.1054 10.3461 17.3912 9.98233C16.9593 9.76238 16.4923 9.62568 16.0189 9.5442C15.812 9.50862 15.603 9.48701 15.3951 9.45692C15.1432 9.42052 15.0087 9.25352 15.0206 8.99531C15.0317 8.75334 15.2017 8.57931 15.4552 8.5942C16.2883 8.64342 17.093 8.83069 17.8337 9.23863C19.3398 10.0683 20.2002 11.3778 20.4513 13.1264C20.4627 13.2056 20.4809 13.2841 20.4867 13.3636C20.5009 13.56 20.5099 13.7566 20.5244 14.0155C20.5099 13.7566 20.5184 14.0627 20.5244 14.0155Z" fill="#7F4DA0"/>
<path d="M18.2664 13.9241C17.9627 13.9298 17.8002 13.7549 17.7689 13.4653C17.7471 13.2633 17.7299 13.0587 17.6836 12.8622C17.5923 12.4753 17.3946 12.1166 17.0816 11.8795C16.9339 11.7675 16.7664 11.686 16.5911 11.6333C16.3683 11.5664 16.1369 11.5848 15.9146 11.5282C15.6733 11.4666 15.5397 11.2633 15.5777 11.0278C15.6122 10.8134 15.8127 10.6461 16.0379 10.6631C17.4454 10.7687 18.4513 11.5256 18.5948 13.2489C18.605 13.3706 18.6169 13.4991 18.5909 13.6154C18.5465 13.8146 18.4047 13.9144 18.2664 13.9241C18.4047 13.9144 17.9627 13.9298 18.2664 13.9241Z" fill="#7F4DA0"/>
</svg>
