<svg width="16" height="15" viewBox="0 0 16 15" fill="none" xmlns="http://www.w3.org/2000/svg">
<path d="M13 6.99951C11.7536 6.99951 10.75 8.01901 10.75 9.28523V9.66618C10.3375 9.66618 10 10.009 10 10.4281V14.2376C10 14.6567 10.3375 14.9995 10.75 14.9995H15.25C15.6625 14.9995 16 14.6567 16 14.2376V10.4281C16 10.009 15.6625 9.66618 15.25 9.66618V9.28523C15.25 8.01901 14.2464 6.99951 13 6.99951ZM13 7.76142C13.8536 7.76142 14.5 8.41811 14.5 9.28523V9.66618H11.5V9.28523C11.5 8.41811 12.1464 7.76142 13 7.76142ZM13 11.5709C13.4125 11.5709 13.75 11.9138 13.75 12.3328C13.75 12.7519 13.4125 13.0947 13 13.0947C12.5875 13.0947 12.25 12.7519 12.25 12.3328C12.25 11.9138 12.5875 11.5709 13 11.5709Z" fill="white"/>
<path fill-rule="evenodd" clip-rule="evenodd" d="M7 1.49951C5.71134 1.49951 4.66667 2.50687 4.66667 3.74951C4.66667 4.99215 5.71134 5.99951 7 5.99951C8.28866 5.99951 9.33333 4.99215 9.33333 3.74951C9.33333 2.50687 8.28866 1.49951 7 1.49951ZM3.11111 3.74951C3.11111 1.67844 4.85223 -0.000488281 7 -0.000488281C9.14777 -0.000488281 10.8889 1.67844 10.8889 3.74951C10.8889 5.82058 9.14777 7.49951 7 7.49951C4.85223 7.49951 3.11111 5.82058 3.11111 3.74951ZM1.13904 10.0979C1.86835 9.39461 2.85749 8.99951 3.88889 8.99951H9V10.4995H3.88889C3.27005 10.4995 2.67657 10.7366 2.23898 11.1585C1.8014 11.5805 1.55556 12.1528 1.55556 12.7495V14.2495C1.55556 14.6637 1.20733 14.9995 0.777778 14.9995C0.348223 14.9995 0 14.6637 0 14.2495V12.7495C0 11.7549 0.40973 10.8011 1.13904 10.0979Z" fill="white"/>
</svg>
