<svg width="14" height="14" viewBox="0 0 14 14" fill="none" xmlns="http://www.w3.org/2000/svg">
<path d="M12.9227 8.74254C12.7301 8.74254 12.574 8.89864 12.574 9.09124V12.1874C12.5733 12.7649 12.1054 13.2329 11.5278 13.2335H1.74353C1.16598 13.2329 0.698091 12.7649 0.69741 12.1874V3.10046C0.698091 2.52305 1.16598 2.05502 1.74353 2.05434H4.83965C5.03225 2.05434 5.18835 1.89824 5.18835 1.70564C5.18835 1.51317 5.03225 1.35693 4.83965 1.35693H1.74353C0.781045 1.35802 0.0010897 2.13798 0 3.10046V12.1875C0.0010897 13.15 0.781045 13.9299 1.74353 13.931H11.5278C12.4903 13.9299 13.2703 13.15 13.2714 12.1875V9.09124C13.2714 8.89864 13.1153 8.74254 12.9227 8.74254Z" fill="#4F4F4F"/>
<path d="M13.1321 0.459617C12.5193 -0.153206 11.5257 -0.153206 10.9129 0.459617L4.6918 6.68073C4.64916 6.72337 4.61838 6.77622 4.6023 6.83425L3.78421 9.78775C3.75056 9.90885 3.78475 10.0385 3.87356 10.1275C3.96251 10.2163 4.09219 10.2505 4.21328 10.217L7.16679 9.39873C7.22481 9.38266 7.27766 9.35187 7.3203 9.30924L13.5413 3.08798C14.1531 2.47475 14.1531 1.48203 13.5413 0.8688L13.1321 0.459617ZM5.45159 6.90739L10.5431 1.81575L12.1851 3.4578L7.0935 8.54944L5.45159 6.90739ZM5.12359 7.56557L6.43546 8.87758L4.62083 9.38034L5.12359 7.56557ZM13.0482 2.59489L12.6784 2.96471L11.0362 1.32253L11.4061 0.952707C11.7465 0.612311 12.2985 0.612311 12.6389 0.952707L13.0482 1.36189C13.388 1.7027 13.388 2.25422 13.0482 2.59489Z" fill="#4F4F4F"/>
</svg>
