<svg width="64" height="22" viewBox="0 0 64 22" fill="none" xmlns="http://www.w3.org/2000/svg">
<path d="M1.90909 2.19392C1.04615 2.09257 -1.57741 0.491215 1.57028 1.12249C4.07512 1.13118 6.58286 1.08195 9.0877 1.13697C9.65817 1.42655 10.3416 1.74798 10.3676 2.48061C10.8512 5.12444 11.7315 7.75669 11.6447 10.4671C10.3618 9.36674 9.90141 7.6148 8.66202 6.49993C7.48634 5.7644 6.60023 4.62058 5.30003 4.07038C4.05775 3.63891 3.19192 2.4864 1.90909 2.19392Z" fill="#F8990D"/>
<path opacity="0.98" d="M40.4752 0.691917C42.1779 0.28651 43.8575 0.87435 45.5167 1.21026C45.7165 1.37532 45.9048 1.55196 46.0814 1.74308C45.7802 3.15042 45.8063 4.65043 45.2619 5.99986C43.0872 4.92842 40.0524 4.4622 38.0949 6.1041C38.0543 7.78365 39.9192 8.64948 41.2455 9.22864C43.4781 10.1089 45.5023 12.162 45.2995 14.7306C45.1432 16.7866 44.2136 19.054 42.2937 20.0936C38.7522 22.0105 34.2725 21.7818 30.563 20.4613C30.6093 18.915 30.9394 17.4005 31.1479 15.8773C32.3642 16.1901 33.508 16.7547 34.7734 16.8908C36.4327 17.1688 38.6161 17.3657 39.7426 15.8223C40.2667 14.2296 38.1499 13.8445 37.3275 12.8744C35.7001 12.0897 34.1393 11.0472 33.1286 9.52111C31.7039 6.61666 33.563 3.02011 36.314 1.69096C37.6055 1.05968 39.0708 0.923578 40.4752 0.691917V0.691917Z" fill="#0C457E"/>
<path opacity="0.98" d="M17.8361 1.15134C19.6575 1.1137 21.4876 1.06447 23.312 1.14266C21.1865 6.84732 18.7482 12.439 16.5156 18.1118C16.1102 19.1167 15.8148 20.2142 15.1314 21.0684C13.3216 21.1003 11.5117 21.164 9.70765 21.0771C8.50591 16.9217 7.60822 12.6881 6.36593 8.54713C6.37172 6.96315 5.34952 5.6253 5.30029 4.06738C6.60049 4.61758 7.4866 5.76141 8.66228 6.49693C9.90167 7.6118 10.3621 9.36374 11.6449 10.4641C12.1575 11.0056 12.1893 11.828 12.4355 12.5114C13.0349 12.6707 11.9721 14.8165 13.0986 14.4197C13.3158 12.4912 14.2945 10.7682 14.9374 8.96412C15.9393 6.37241 16.7183 3.69383 17.8361 1.15134V1.15134Z" fill="#0C457E"/>
<path opacity="0.98" d="M25.3852 1.14391C27.0966 1.11785 28.8167 1.06862 30.5338 1.13812C29.9373 6.95861 28.6284 12.6893 27.9016 18.4953C27.696 19.3496 27.974 20.4355 27.2848 21.0639C25.5647 21.1102 23.8446 21.1537 22.1274 21.0842C23.1873 14.4326 24.1487 7.76653 25.3852 1.14391Z" fill="#0C457E"/>
<path opacity="0.98" d="M53.7843 1.209C55.5623 1.11054 57.3606 1.02656 59.1444 1.16266C60.0073 1.90977 59.3442 3.36924 59.8422 4.2872C61.2264 9.85286 62.0517 15.5517 63.4967 21.1087C61.8867 21.0855 60.2737 21.1811 58.6723 21.0682C58.015 20.4108 58.2872 19.3481 57.986 18.5228C55.8924 18.4851 53.7988 18.5604 51.7254 18.2622C50.9378 18.9803 50.7901 20.1097 50.4194 21.0624C48.6096 21.1087 46.8026 21.155 44.9985 21.0826C45.8267 18.0247 47.5439 15.1898 48.5169 12.1347C49.7708 9.56328 50.7032 6.86443 51.9194 4.2814C52.5015 3.24472 52.4609 1.6144 53.7843 1.209ZM55.4812 7.26694C54.5835 9.47641 53.5266 11.7554 53.1038 14.1357C54.3634 14.2023 55.6202 14.1502 56.8886 14.1415C56.9059 11.7756 56.0806 9.50826 55.6897 7.19455L55.4812 7.26694Z" fill="#0C457E"/>
</svg>
