<svg width="170" height="51" viewBox="0 0 170 51" fill="none" xmlns="http://www.w3.org/2000/svg">
<g clip-path="url(#clip0_0_290)">
<path fill-rule="evenodd" clip-rule="evenodd" d="M10.9027 9.62356V0.206712H6.44873V9.62356H10.9027ZM20.4697 9.62356L16.2429 5.59033C16.0157 5.35935 15.7203 5.0573 15.7203 4.77299C15.7203 4.54202 15.9248 4.25774 16.3793 3.79579L19.9471 0.206712H15.0385L12.0844 3.54706C11.6299 4.06231 11.3572 4.45319 11.3572 4.79078C11.3572 5.16391 11.6753 5.537 11.9481 5.83904L15.4703 9.62356H20.4697ZM32.4454 0.100098C30.5366 0.100098 28.4005 0.15342 27.0824 1.05955C25.5827 2.10783 25.4918 3.97345 25.4918 4.91514C25.4918 5.85679 25.5827 7.7224 27.0824 8.77072C28.4005 9.67984 30.5366 9.73314 32.4454 9.73314C34.3542 9.73314 36.4903 9.67984 37.8083 8.77072C39.3082 7.7224 39.3991 5.85679 39.3991 4.91514C39.3991 3.97345 39.3082 2.10783 37.8083 1.05955C36.4903 0.15342 34.3542 0.100098 32.4454 0.100098ZM30.0366 4.91514C30.0366 3.81354 30.3093 3.40488 30.4684 3.22722C30.6956 2.99624 31.2183 2.62311 32.4454 2.62311C33.6726 2.62311 34.1952 2.99624 34.4224 3.22722C34.6497 3.47595 34.8542 3.92015 34.8542 4.91514C34.8542 5.59033 34.7633 6.17663 34.3997 6.56758C34.1952 6.7985 33.6498 7.2072 32.4454 7.2072C31.0819 7.2072 30.5593 6.67413 30.4684 6.56758C30.2866 6.3721 30.0366 5.94565 30.0366 4.91514ZM58.4193 4.57755C58.4875 4.41765 58.5784 4.32879 58.6693 4.32879C58.7148 4.32879 58.8284 4.36433 58.8284 4.54202L58.6012 9.62356H63.0552V1.89464C63.0552 0.650917 61.4646 0.100098 59.8507 0.100098C58.1921 0.100098 57.2149 0.508763 56.7378 1.55705L54.8516 5.64362C54.7381 5.8924 54.5562 6.05227 54.4198 6.05227C54.2836 6.05227 54.1017 5.8924 53.9881 5.64362L52.102 1.55705C51.6248 0.508763 50.6476 0.100098 48.9887 0.100098C47.3753 0.100098 45.7846 0.650917 45.7846 1.89464V9.62356H50.2386L50.0113 4.5598C50.0113 4.3999 50.1022 4.34657 50.1704 4.34657C50.2613 4.34657 50.3522 4.43543 50.4204 4.59534L52.3292 8.80627C52.6928 9.62356 53.5337 9.73314 54.4198 9.73314C55.3061 9.73314 56.1469 9.62356 56.5105 8.80627L58.4193 4.57755ZM72.4402 0.206712C71.7129 0.206712 70.9179 0.224468 70.2813 0.72199C69.7813 1.13063 69.7135 1.53929 69.7135 2.01903V9.62356H74.1674V3.17393C74.1674 2.99624 74.1902 2.83631 74.3946 2.71194C74.5763 2.58758 74.8491 2.58758 74.963 2.58758H77.4168C77.5307 2.58758 77.8035 2.58758 77.9852 2.71194C78.1896 2.83631 78.2124 2.99624 78.2124 3.17393V9.62356H82.6663V2.01903C82.6663 1.53929 82.598 1.13063 82.098 0.72199C81.4618 0.224468 80.6663 0.206712 79.9391 0.206712H72.4402ZM89.8702 0.206712V2.55203H95.9146C96.3691 2.55203 96.9374 2.56981 97.278 2.92516C97.4824 3.13838 97.5052 3.38712 97.5052 3.54706V3.68918H92.2335C91.5291 3.68918 90.7563 3.70696 90.0974 4.09785C89.143 4.66641 89.0518 5.66137 89.0518 6.47872C89.0518 7.22495 89.0974 8.46869 90.0291 9.12606C90.6652 9.58801 91.4835 9.62356 92.2335 9.62356H99.3235C100.005 9.62356 100.8 9.58801 101.369 9.12606C101.914 8.68186 101.959 8.11329 101.959 7.61584V3.67142C101.959 2.90741 101.823 1.78803 100.823 1.02402C100.3 0.61535 99.3235 0.206712 97.8463 0.206712H89.8702ZM97.5052 5.9279V6.51422C97.5052 6.67413 97.4824 6.85186 97.278 6.97622C97.1418 7.06503 96.8463 7.10059 96.6191 7.10059H94.3013C94.0968 7.10059 93.8468 7.04728 93.6874 6.94067C93.5285 6.8163 93.5057 6.67413 93.5057 6.53202C93.5057 6.3721 93.5285 6.21218 93.6874 6.08782C93.8918 5.94565 94.2102 5.9279 94.3468 5.9279H97.5052ZM121.48 9.62356V0.206712H117.026V3.51152H113.071V0.206712H108.617V9.62356H113.071V6.03452H117.026V9.62356H121.48ZM142.022 9.62356V1.98347C142.022 1.50376 141.977 0.100098 139.432 0.100098C138.069 0.100098 137.705 0.455446 137.341 0.810819L132.978 5.0928C132.887 5.18166 132.751 5.35935 132.569 5.35935C132.387 5.35935 132.365 5.25274 132.365 5.0928L132.592 0.206712H128.138V7.95343C128.138 9.58806 129.706 9.73314 130.683 9.73314C131.66 9.73314 132.182 9.64434 132.932 8.91289L137.205 4.73746C137.364 4.59534 137.477 4.45319 137.614 4.45319C137.796 4.45319 137.796 4.59534 137.796 4.73746L137.569 9.62356H142.022ZM148.226 9.62356H152.998L155.771 6.33655C156.066 5.98121 156.384 5.48371 156.384 4.9329C156.384 4.31106 155.816 3.95569 154.93 3.95569H153.839C153.635 3.95569 153.362 3.97344 153.135 3.81354C152.93 3.67142 152.93 3.45819 152.93 3.29829C152.93 3.10285 152.93 2.92516 153.203 2.74748C153.453 2.58757 153.657 2.58758 153.93 2.58758H155.93C156.225 2.58758 156.566 2.60536 156.748 2.72973C156.975 2.88963 156.975 3.17392 156.975 3.38712V9.62356H161.429V2.26777C161.429 1.68144 161.338 1.05956 160.679 0.61535C160.361 0.402155 159.839 0.206712 159.043 0.206712H151.43C150.726 0.206712 149.999 0.419911 149.499 0.775286C148.59 1.41493 148.476 2.33885 148.476 3.04953C148.476 3.77801 148.544 4.68416 149.271 5.41264C149.771 5.91015 150.362 6.10557 150.999 6.10557H151.294C151.385 6.10557 151.589 6.10557 151.589 6.21218C151.589 6.26549 151.521 6.3721 151.476 6.4076L148.226 9.62356Z" fill="#22993A"/>
<path fill-rule="evenodd" clip-rule="evenodd" d="M156.594 44.022L7.33655 44.0656C5.99504 44.0672 4.81833 45.7293 4.81983 47.2971C4.8213 48.8649 6.06301 50.2586 7.09292 50.2586H156.991C156.736 48.3053 156.594 46.2268 156.594 44.022Z" fill="#22993A"/>
<path fill-rule="evenodd" clip-rule="evenodd" d="M19.63 13.3804C21.3992 13.3804 22.8338 14.8262 22.8338 16.6092C22.8338 18.3922 21.3992 19.838 19.63 19.838L19.571 19.8368V19.838H16.4262C12.8885 19.838 10.0185 22.7304 10.0185 26.2957C10.0185 29.861 12.8885 32.7533 16.4262 32.7533H22.8345V25.5414H22.8658C22.8447 25.2566 22.8345 24.9712 22.8345 24.6812C22.8345 18.4419 27.8568 13.3804 34.0479 13.3804C40.239 13.3804 45.2613 18.4419 45.2613 24.6812L45.2562 25.0067H45.2607V32.7533H51.6376H51.6683C52.2111 32.7533 52.7449 32.7172 53.2702 32.6513C50.2087 29.1525 48.4645 24.6102 48.4645 19.838V16.6686H48.4651L48.4645 16.6092C48.4645 14.8262 49.8992 13.3804 51.6683 13.3804C53.4375 13.3804 54.8722 14.8262 54.8722 16.6092L54.8709 16.6686H54.8722V19.838C54.8722 23.7927 56.667 27.4891 59.6759 29.9171C62.6053 27.5504 64.4836 23.9147 64.4836 19.838H64.4842V16.6912V16.6092H64.4836C64.4836 14.8262 65.9181 13.3804 67.6875 13.3804H96.522C98.2914 13.3804 99.7259 14.8262 99.7259 16.6092H99.7403V23.0655H109.338V16.6092C109.338 14.8262 110.772 13.3804 112.541 13.3804H122.153C123.922 13.3804 125.357 14.8262 125.357 16.6092V27.9101H125.356C125.356 30.5848 127.509 32.754 130.163 32.754C132.803 32.754 134.946 30.6068 134.968 27.9514V16.6092C134.968 14.8262 136.403 13.3804 138.172 13.3804C139.941 13.3804 141.376 14.8262 141.376 16.6092V27.9101V32.7533H144.58V16.6092C144.58 14.8262 146.014 13.3804 147.784 13.3804C149.553 13.3804 150.988 14.8262 150.988 16.6092V20.7782L158.492 14.1765C159.825 13.0045 161.85 13.1427 163.013 14.4859C164.176 15.8291 164.039 17.8697 162.706 19.0418L155.784 25.1313L163.788 33.5315C163.59 33.3244 165.89 35.9236 166.111 38.7736C166.756 47.0548 160.859 51.0007 155.588 50.0932C153.128 49.6698 152.654 47.0469 151.258 45.8329C151.123 45.7158 153.326 43.8902 155.932 44.0215C159.673 44.2103 160.046 38.873 158.944 37.7298L150.988 29.4825V35.9821C150.988 37.7651 149.553 39.211 147.784 39.211H138.172V39.2103L138.147 39.211C137.062 39.211 136.102 38.6653 135.522 37.8329C133.929 38.7092 132.105 39.211 130.163 39.211C123.97 39.211 118.949 34.1501 118.949 27.9101V19.838H115.745V23.0655V29.3573V35.9725V35.9828C115.745 37.7658 114.31 39.2116 112.541 39.2116C110.772 39.2116 109.338 37.7658 109.338 35.9828V35.9725V29.4935H99.7403V35.9821H99.7259C99.7259 37.7651 98.2914 39.211 96.522 39.211C94.7531 39.211 93.3186 37.7651 93.3186 35.9821C93.3186 35.8775 93.3231 35.7736 93.3325 35.6715V23.0655V19.838H85.3086V36.0868V36.0925C85.3086 37.8755 83.8736 39.3214 82.1048 39.3214C80.3359 39.3214 78.9009 37.8755 78.9009 36.0925V36.0868V19.838H70.892H70.8914C70.8914 30.3562 62.5642 38.921 52.1944 39.2026V39.211H51.6683H42.0568C40.2877 39.211 38.853 37.7651 38.853 35.9821V25.0067H38.8536V24.6812C38.8536 22.0071 36.7013 19.838 34.0479 19.838C31.3945 19.838 29.2421 22.0071 29.2421 24.6812V25.5414V34.8921V35.9821H29.2415C29.2415 37.7651 27.8068 39.211 26.0377 39.211H16.4262H16.3563V39.2097C9.31301 39.1716 3.61084 33.4023 3.61084 26.2957C3.61084 19.1651 9.35084 13.3804 16.4262 13.3804H19.571V13.381L19.63 13.3804Z" fill="#22993A"/>
</g>
<defs>
<clipPath id="clip0_0_290">
<rect width="170" height="50.3946" fill="white"/>
</clipPath>
</defs>
</svg>
