<svg width="141" height="30" viewBox="0 0 141 30" fill="none" xmlns="http://www.w3.org/2000/svg">
<path fill-rule="evenodd" clip-rule="evenodd" d="M8.65361 9.99489L21.9245 0.210688C22.0534 0.0953677 22.2164 0.0232263 22.3901 0.00472678C22.5637 -0.0137727 22.7388 0.0223268 22.89 0.1078C23.0413 0.193274 23.1607 0.323678 23.2311 0.480079C23.3015 0.63648 23.3191 0.810746 23.2814 0.977609L21.2563 17.1151C21.1821 18.6236 20.1394 18.5848 19.7026 17.9969C19.0552 16.5019 17.6741 14.9562 15.7802 13.7332C16.0644 13.7492 16.3481 13.6952 16.6054 13.5761C19.3452 12.1048 18.2334 9.85975 18.6288 7.29207C16.5571 8.90869 14.0106 9.09282 14.0797 12.1487C14.1022 12.4188 14.1923 12.6793 14.3421 12.9072L14.3559 12.9291C12.3395 11.9443 10.2885 11.5524 8.64843 11.7466C7.90435 11.6757 7.35536 10.8125 8.65361 9.99489Z" fill="white"/>
<path fill-rule="evenodd" clip-rule="evenodd" d="M5.52192 14.2856C1.90856 16.7519 -0.625802 20.4447 0.135541 21.3264C1.06089 22.3924 1.47005 20.9261 2.73378 22.34C3.9975 23.7539 2.60257 27.4939 5.61342 29.3859C8.79518 30.9924 11.4038 27.9416 13.2907 28.3031C15.1777 28.6646 14.0849 29.7457 15.4902 29.9924C16.6469 30.1984 18.6478 26.205 19.0258 21.9109C19.3055 18.7267 17.7207 16.4749 15.1259 14.816C15.371 15.3836 15.2347 16.534 13.5203 19.1321C11.1275 22.7606 9.2544 24.1999 8.81935 23.9465C8.38429 23.6931 8.71576 21.3974 10.7305 17.556C12.1737 14.8042 13.1215 14.1133 13.7482 14.0373C10.986 12.674 8.19957 12.4561 5.52192 14.2856Z" fill="white"/>
<path d="M34.3486 17.7112H36.8795L38.3258 14.3756H44.9746L46.4007 17.7112H49.012L42.8253 3.79669H40.5354L34.3486 17.7112ZM39.2297 12.2243L41.6401 6.69801L44.0707 12.2243H39.2297Z" fill="white"/>
<path d="M53.0302 17.7112H55.5009V13.7046L57.6903 11.4941L62.4911 17.7112H65.484L59.3776 9.83617L65.2229 3.89538H62.1898L55.5009 10.8427V3.89538H53.0302V17.7112Z" fill="white"/>
<path d="M73.2545 17.7112H75.7453V6.14538H80.2046V3.89538H68.7953V6.14538H73.2545V17.7112Z" fill="white"/>
<path d="M85.3757 17.7112H87.8464V3.89538H85.3757V17.7112Z" fill="white"/>
<path d="M99.7455 17.948C102.377 17.948 103.984 17.0006 105.45 15.5006L103.863 13.9217C102.658 15.027 101.553 15.7177 99.8259 15.7177C97.1342 15.7177 95.1858 13.5072 95.1858 10.8033C95.1858 8.05985 97.1342 5.8888 99.8259 5.8888C101.433 5.8888 102.638 6.57959 103.763 7.6059L105.35 5.80985C104.004 4.54669 102.437 3.65853 99.846 3.65853C95.5875 3.65853 92.5946 6.87564 92.5946 10.8033C92.5946 14.8099 95.6478 17.948 99.7455 17.948Z" fill="white"/>
<path d="M115.971 17.948C120.289 17.948 123.343 14.6914 123.343 10.8033C123.343 6.87564 120.33 3.65853 116.011 3.65853C111.692 3.65853 108.639 6.91511 108.639 10.8033C108.639 14.7309 111.652 17.948 115.971 17.948ZM116.011 15.7177C113.219 15.7177 111.23 13.4875 111.23 10.8033C111.23 8.07959 113.179 5.8888 115.971 5.8888C118.763 5.8888 120.751 8.11906 120.751 10.8033C120.751 13.527 118.803 15.7177 116.011 15.7177Z" fill="white"/>
<path d="M127.131 17.7112H129.562V7.84275L133.961 14.3164H134.041L138.48 7.80327V17.7112H140.951V3.89538H138.32L134.041 10.4283L129.763 3.89538H127.131V17.7112Z" fill="white"/>
<path d="M34.6471 25.8505H36.0944C36.7912 25.8505 37.2512 25.5563 37.2512 25.0076C37.2512 24.5817 36.9966 24.3754 36.6304 24.2524C36.8626 24.1339 37.077 23.9363 37.077 23.5676C37.077 23.3524 37.0056 23.1856 36.8671 23.0495C36.6884 22.8739 36.407 22.7773 36.0497 22.7773H34.6471V25.8505ZM35.1876 24.0724V23.2559H35.9782C36.3311 23.2559 36.5276 23.4051 36.5276 23.6466C36.5276 23.9363 36.2909 24.0724 35.938 24.0724H35.1876ZM35.1876 25.372V24.529H36.0586C36.4919 24.529 36.7018 24.6827 36.7018 24.9417C36.7018 25.2271 36.474 25.372 36.0988 25.372H35.1876Z" fill="white"/>
<path d="M41.8684 25.8505H42.4312L42.7529 25.1085H44.2314L44.5485 25.8505H45.1292L43.7534 22.7554H43.2442L41.8684 25.8505ZM42.9539 24.63L43.4899 23.4007L44.0303 24.63H42.9539Z" fill="white"/>
<path d="M52.227 25.8505V25.0339L52.7184 24.4851L53.6519 25.8505H54.313L53.0757 24.0856L54.2505 22.7773H53.5938L52.227 24.3754V22.7773H51.6821V24.3754L50.3152 22.7773H49.6586L50.8289 24.0856L49.5961 25.8505H50.2572L51.1907 24.4851L51.6821 25.0339V25.8505H52.227Z" fill="white"/>
<path d="M59.0475 25.8505H61.3881V25.3676H59.5969V24.5422H61.1647V24.0593H59.5969V23.2603H61.3657V22.7773H59.0475V25.8505Z" fill="white"/>
<path d="M66.3056 25.8505H66.855V24.5554H68.3469V25.8505H68.8963V22.7773H68.3469V24.0549H66.855V22.7773H66.3056V25.8505Z" fill="white"/>
<path d="M79.5699 25.8505H80.1194V24.8627H80.7402C81.4281 24.8627 81.9909 24.5027 81.9909 23.8134C81.9909 23.1856 81.5308 22.7773 80.8028 22.7773H79.5699V25.8505ZM80.1194 24.3754V23.269H80.7581C81.169 23.269 81.4326 23.4578 81.4326 23.8178C81.4326 24.1471 81.1735 24.3754 80.7581 24.3754H80.1194Z" fill="white"/>
<path d="M86.8193 25.8505H89.1599V25.3676H87.3688V24.5422H88.9366V24.0593H87.3688V23.2603H89.1376V22.7773H86.8193V25.8505Z" fill="white"/>
<path d="M95.1406 22.7246C94.5867 22.7246 94.2338 22.909 93.9345 23.19L94.2293 23.5412C94.4661 23.3173 94.7341 23.1988 95.1048 23.1988C95.4532 23.1988 95.6944 23.37 95.6944 23.629C95.6944 23.9188 95.4488 24.0768 95.0512 24.0768H94.7028V24.5246H95.0557C95.4622 24.5246 95.7704 24.6563 95.7704 24.9724C95.7704 25.2622 95.489 25.4334 95.1584 25.4334C94.7341 25.4334 94.3991 25.2885 94.1177 25.0251L93.8184 25.3983C94.1668 25.7276 94.5643 25.9032 95.1718 25.9032C95.8686 25.9032 96.3198 25.5124 96.3198 25.0032C96.3198 24.6037 96.0562 24.371 95.7078 24.2656C95.9848 24.1515 96.2394 23.9451 96.2394 23.55C96.2394 23.0715 95.7882 22.7246 95.1406 22.7246Z" fill="white"/>
<path d="M101.771 25.8988C102.178 25.8988 102.499 25.7012 102.763 25.1788L103.982 22.7773H103.388L102.531 24.5642L101.557 22.7773H100.941L102.245 25.1042C102.089 25.3544 101.892 25.4378 101.754 25.4378C101.615 25.4378 101.494 25.4115 101.369 25.3412L101.159 25.7451C101.343 25.8417 101.53 25.8988 101.771 25.8988Z" fill="white"/>
<path d="M108.768 25.8856C109.385 25.8856 109.746 25.4949 109.746 23.5412V23.2646H110.827V25.8505H111.377V22.7773H109.233V23.3832C109.233 25.2227 108.938 25.4203 108.621 25.4203C108.554 25.4203 108.482 25.4071 108.442 25.3939L108.389 25.8373C108.473 25.8593 108.648 25.8856 108.768 25.8856Z" fill="white"/>
<path d="M116.449 25.8505H117.709C118.433 25.8505 118.888 25.4642 118.888 24.8451C118.888 24.2261 118.415 23.8837 117.714 23.8837H116.994V22.7773H116.449V25.8505ZM116.994 25.3676V24.3534H117.691C118.107 24.3534 118.343 24.5246 118.343 24.8407C118.343 25.1876 118.107 25.3676 117.7 25.3676H116.994Z" fill="white"/>
<path d="M124.498 25.8505H125.052V23.2778H126.043V22.7773H123.506V23.2778H124.498V25.8505Z" fill="white"/>
<path d="M130.624 25.8505H131.186L131.508 25.1085H132.986L133.304 25.8505H133.884L132.509 22.7554H131.999L130.624 25.8505ZM131.709 24.63L132.245 23.4007L132.785 24.63H131.709Z" fill="white"/>
<path d="M139.454 25.8505H140.008V23.2778H141V22.7773H138.463V23.2778H139.454V25.8505Z" fill="white"/>
</svg>
