<svg width="52" height="32" viewBox="0 0 52 32" fill="none" xmlns="http://www.w3.org/2000/svg">
<path d="M5.90143 4.59073C11.137 -0.308907 20.4498 -0.233617 25.6564 4.75C26.3803 5.74325 22.6824 6.92472 26.2123 6.37163C27.2809 6.23263 28.3552 7.06951 28.5811 8.09171C26.8465 8.19017 25.1062 7.99326 23.3832 8.17569C22.8735 8.59847 22.5637 9.20079 22.3986 9.83207C24.7934 9.89867 27.194 9.79442 29.5946 9.91604C29.7162 10.4228 30.6313 11.2076 29.8929 11.529C27.1448 11.7375 24.3851 11.4508 21.6428 11.6419C21.5965 12.0879 21.0868 12.7076 21.6573 12.9913C24.6023 13.139 27.5531 12.9537 30.5039 13.0811C30.666 13.3157 30.8137 13.5589 30.9498 13.8137C30.3678 13.9035 29.8292 14.3958 29.2297 14.1873C27.9614 13.0898 27.9353 14.3726 27.5965 14.9923C27.3736 15.4122 27.1564 15.8321 26.9855 16.2751C26.7538 15.5975 26.722 14.7636 26.1342 14.2829C25.1119 13.64 23.6699 13.7182 22.7809 14.5406C22.222 15.3195 21.9671 16.2549 21.6515 17.1468C20.8957 15.9248 21.3764 18.2616 21.2751 18.8698C19.6245 19.1941 20.832 16.8804 21.0173 16.2346C22.4652 15.2153 21.6718 12.2327 19.61 13.0637C19.332 14.2742 19.1409 15.5049 18.9382 16.7298C18.5994 16.8311 18.4025 17.0541 18.3503 17.4016C17.832 16.9614 17.2702 16.5821 16.7519 16.1477C16.0945 15.0155 18.2635 16.1072 18.6602 15.2935C19.72 13.1188 17.4353 13.9817 16.387 13.9354C15.7557 14.0715 15.359 14.6651 14.8841 15.0589C14.7625 15.056 14.5163 15.0502 14.3947 15.0473C13.7721 14.39 13.2219 13.3273 12.026 13.9093C10.7953 13.3359 9.73834 14.4885 9.98737 15.5917C10.1177 15.5831 10.3783 15.5628 10.5086 15.5512C11.053 15.7163 12.081 15.3659 12.0868 16.2114C10.9719 16.2433 10.0134 16.7993 9.14759 17.4479C9.0752 15.7655 9.58196 14.1439 9.70648 12.4759C8.82327 12.4759 8.00955 12.4006 7.14951 12.4933C6.44873 13.8109 6.55299 15.4962 5.44392 16.6168C5.35704 15.2327 5.42364 13.8485 5.33098 12.4672C4.58966 12.4151 3.85414 12.4267 3.1244 12.5107C2.9883 12.9537 2.86957 13.4025 2.75664 13.8543C1.48829 14.0454 2.46417 15.8987 2.16591 16.7964C1.41011 18.0155 1.71416 19.5184 1.3493 20.8591L2.59157 20.7549C2.66686 20.6796 2.82034 20.529 2.89852 20.4537C3.51532 19.9817 3.62827 19.1767 3.85124 18.4846C3.85124 19.2781 3.8802 20.0744 3.94391 20.8678C4.32615 20.836 4.80394 20.9663 5.12247 20.6854C6.11282 19.9557 6.30684 18.6815 6.71804 17.6043C6.77596 18.0358 6.83677 18.4672 6.89758 18.8987C6.82518 19.3591 6.75279 19.8196 6.66302 20.28C6.09256 21.114 7.47383 21.2443 7.96322 20.6246C8.09932 20.5088 8.37152 20.2829 8.51052 20.17C9.39373 20.4711 10.6013 21.3456 11.4353 20.5898C11.554 20.5001 11.7885 20.3205 11.9044 20.2337C11.9536 20.3727 12.052 20.6564 12.0984 20.7983C13.6563 20.6507 15.5067 21.3456 16.9575 20.6043C17.3947 20.3263 17.8407 20.0541 18.2403 19.7153C18.4662 20.7404 19.4913 21.4036 20.4729 20.6593C20.8639 20.4074 21.2924 20.1555 21.3967 19.6603C22.5521 20.8649 24.3967 21.3775 25.9286 20.5956C26.056 20.5088 26.3108 20.335 26.4382 20.2452C26.4961 21.0532 27.0261 21.1893 28.0309 20.6535C29.5714 19.9528 28.3292 17.2105 29.7336 16.1564C29.7684 17.5927 30.2838 18.9161 30.8369 20.2163C30.5879 20.4856 30.3533 20.7636 30.113 21.0329C27.4923 21.3427 24.8426 20.9721 22.2278 21.2124C21.4778 21.5686 22.1988 22.4171 22.5087 22.8572C24.8108 22.9644 27.1245 22.808 29.4324 22.918C29.2992 23.5609 28.9662 24.1574 28.4566 24.5773C26.8262 24.6642 25.193 24.586 23.5685 24.6526C23.6988 25.1507 24.0116 25.5677 24.2953 25.9904C25.0743 26.0223 26.6351 26.0831 27.4141 26.115C27.1998 26.8765 26.4845 27.3399 26.082 27.9943C24.3967 28.9036 22.9662 30.2907 21.1013 30.8409C16.7345 32.4248 11.6003 32.1787 7.69391 29.5435C1.39852 26.1526 -1.28006 17.9634 1.06262 11.3379C1.84448 9.92473 2.19486 8.16121 3.41688 7.04344C4.47962 6.44402 4.58676 4.88899 5.90143 4.59073Z" fill="#C30607"/>
<path d="M14.3536 17.3579C15.0312 17.8791 15.6972 18.4236 16.4414 18.8492C15.8072 19.217 15.1209 18.9158 14.452 18.8898C14.3014 19.2199 14.148 19.55 13.9945 19.8772L13.8584 19.7035C13.9945 18.9158 14.1885 18.1398 14.3536 17.3579Z" fill="#C30607"/>
<path d="M10.8586 17.9752C11.2495 17.9549 11.6405 17.9549 12.0343 17.9752C12.0632 18.4095 12.0401 19.1306 11.4464 19.1103C10.8499 19.1306 10.8238 18.4095 10.8586 17.9752Z" fill="#C30607"/>
<path d="M23.8603 18.8418C23.5823 17.4055 25.3545 18.0454 26.2754 17.8891C26.4115 17.9093 26.6808 17.947 26.8169 17.9673L27.1383 18.0339C27.118 18.1497 27.0804 18.3842 27.0601 18.503C26.8951 18.7231 26.73 18.9431 26.5707 19.1632C26.5505 19.0271 26.5099 18.7491 26.4897 18.6101C25.6412 18.8128 24.6769 19.4817 23.8603 18.8418Z" fill="#C30607"/>
<path d="M31.9021 1.59813C37.546 -0.133543 44.0064 1.65604 47.8549 6.16764C48.8105 7.73715 50.1686 9.03445 50.6493 10.9254C53.9071 18.4631 49.6705 28.161 41.8867 30.7817C38.8983 32.1948 35.1425 32.4091 32.0122 31.2653C29.8809 30.5326 27.599 29.7566 26.0816 27.9959C26.4841 27.3415 27.1994 26.8782 27.4137 26.1166C26.6347 26.0847 25.0739 26.0239 24.2949 25.9921C24.0112 25.5693 23.6984 25.1523 23.5681 24.6542C25.1926 24.5876 26.8258 24.6658 28.4562 24.5789C28.9658 24.159 29.2988 23.5625 29.432 22.9197C27.1241 22.8096 24.8104 22.966 22.5083 22.8588C22.1984 22.4187 21.4774 21.5702 22.2274 21.214C24.8422 20.9737 27.4919 21.3444 30.1125 21.0345C30.3529 20.7652 30.5875 20.4872 30.8365 20.2179C31.7487 20.9737 33.3761 21.6195 34.3114 20.5799C34.5691 20.4554 34.8355 20.3482 35.1135 20.2584C35.6463 21.1417 36.6859 21.2864 37.5547 20.8231C37.6705 20.826 37.8993 20.8289 38.0151 20.8318C38.5305 20.7247 39.657 21.2256 39.5441 20.3424C39.8394 20.493 40.1203 20.6783 40.4186 20.8376C40.8761 20.8347 41.49 21.0461 41.8404 20.6436C42.9408 19.6677 42.3327 17.8781 43.2246 16.7372C43.2651 16.992 43.352 17.4959 43.3954 17.7478C43.0364 19.2333 44.0528 21.4196 45.9032 20.8723C46.6039 20.5306 47.8607 21.2633 48.518 20.6175C48.6281 20.4988 48.8453 20.2642 48.9553 20.1455C49.3752 17.7015 49.6474 15.2314 50.2121 12.8134C49.9167 12.3385 49.3144 12.463 48.8481 12.4804C48.4369 13.0422 48.3675 13.7603 48.1647 14.4061C47.5016 13.992 46.6937 13.8617 45.9292 13.9138C45.3356 14.2961 44.325 15.3993 44.3713 13.9949C43.4678 14.1368 42.5383 14.0991 41.6377 13.9659C41.6116 14.1686 41.5595 14.577 41.5335 14.7797L40.989 14.826C39.9292 13.5345 37.934 13.6503 36.5846 14.4351C35.9736 14.7623 34.9079 14.9795 35.768 16.1928C36.4398 16.0712 37.1174 15.8714 37.8066 16.0277C37.0508 16.4708 36.379 17.0326 35.823 17.7044C35.377 16.966 35.4176 18.2662 35.212 18.576C34.3635 18.6426 33.4079 19.0277 32.6724 18.4631C32.0266 17.4206 32.1251 15.993 32.7593 14.9708C32.9127 14.3829 33.6135 14.7536 34.0508 14.6522C34.6039 14.6551 35.461 15.3298 35.6724 14.519C36.0257 14.0268 36.1473 13.4592 36.0373 12.8134C34.9079 12.3211 33.5209 12.2574 32.4465 12.9061C32.0411 13.3665 31.6415 13.8298 31.2071 14.2642C31.1434 14.1542 31.0131 13.9283 30.9494 13.8154C30.8133 13.5605 30.6656 13.3173 30.5035 13.0827C27.5527 12.9553 24.6019 13.1407 21.6569 12.993C21.0864 12.7092 21.5961 12.0895 21.6424 11.6435C24.3847 11.4524 27.1444 11.7391 29.8925 11.5306C30.6309 11.2092 29.7158 10.4244 29.5942 9.91766C27.1936 9.79604 24.793 9.90029 22.3982 9.83369C22.5633 9.20241 22.8731 8.60009 23.3828 8.17731C25.1058 7.99487 26.8461 8.19179 28.5807 8.09333C28.3548 7.07112 27.2805 6.23425 26.2119 6.37324C22.682 6.92634 26.3799 5.74486 25.656 4.75162C27.8452 3.98713 29.4784 1.8877 31.9021 1.59813Z" fill="#F8990D"/>
<path d="M45.6135 17.0909C45.6106 16.3148 46.0363 15.7357 46.8239 16.1932C47.2583 16.6826 47.3828 17.3168 47.3915 17.9538C47.4871 19.422 44.3538 18.7328 45.6135 17.0909Z" fill="#F8990D"/>
<path d="M38.1373 19.1732C37.4742 18.901 36.8227 18.1278 37.8883 17.8672C38.0099 18.2929 38.0707 18.7359 38.1373 19.1732Z" fill="#F8990D"/>
<path d="M3.12442 12.5087C3.85416 12.4247 4.58968 12.4131 5.331 12.4653C5.42366 13.8465 5.35706 15.2307 5.44393 16.6149C6.55301 15.4942 6.44875 13.8089 7.14953 12.4913C8.00957 12.3986 8.82329 12.4739 9.70649 12.4739C9.58198 14.1419 9.07522 15.7635 9.14761 17.446C10.0134 16.7973 10.972 16.2413 12.0868 16.2095C12.8252 16.4006 12.637 15.6882 12.2548 15.3784C11.8175 15.4218 10.9459 15.5058 10.5086 15.5492C10.3783 15.5608 10.1177 15.5811 9.98739 15.5898C9.73836 14.4865 10.7953 13.334 12.026 13.9073C13.222 13.3253 13.7722 14.388 14.3947 15.0454C14.3716 15.8157 14.3571 16.5859 14.3542 17.3562C14.1891 18.1381 13.9951 18.9141 13.859 19.7018C14.027 21.2771 12.5675 20.1217 11.9044 20.2317C11.7886 20.3186 11.554 20.4981 11.4353 20.5879C10.5289 20.7211 9.68334 20.4402 9.2258 19.612C9.18526 19.111 9.10418 18.1062 9.06074 17.6023C8.66402 18.3929 8.60321 19.3022 8.51054 20.168C8.37154 20.2809 8.09934 20.5068 7.96324 20.6226C7.59547 20.3128 7.09741 20.391 6.66304 20.278C6.75281 19.8176 6.8252 19.3572 6.8976 18.8967C7.05107 17.889 7.39277 16.8987 7.36961 15.8678C6.94393 16.3543 6.79045 16.9769 6.71806 17.6023C6.30686 18.6796 6.11284 19.9537 5.12249 20.6834C4.98929 20.6342 4.71999 20.5329 4.58678 20.4836C4.33774 19.0415 4.49121 17.5097 4.0192 16.1139C3.96418 16.9016 3.90628 17.6921 3.85126 18.4827C3.62829 19.1747 3.51534 19.9798 2.89854 20.4518C0.857029 20.556 2.50183 17.8543 2.16592 16.7944C2.35415 15.8128 2.62634 14.8456 2.75665 13.8523C2.86959 13.4006 2.98832 12.9517 3.12442 12.5087ZM10.859 17.973C10.8243 18.4074 10.8503 19.1284 11.4469 19.1081C12.0405 19.1284 12.0637 18.4074 12.0347 17.973C11.6409 17.9527 11.2499 17.9527 10.859 17.973Z" fill="#F5EEEC"/>
<path d="M32.4472 12.9044C33.5215 12.2558 34.9086 12.3195 36.0379 12.8118C36.1479 13.4575 36.0263 14.0251 35.673 14.5174C34.9114 14.3523 34.1499 14.2481 33.3883 14.2017C33.5533 14.3118 33.8863 14.5376 34.0514 14.6506C33.6141 14.7519 32.9134 14.3813 32.7599 14.9691C32.1257 15.9913 32.0273 17.4189 32.673 18.4614C33.4085 19.0261 34.3642 18.6409 35.2126 18.5743C35.1837 19.1361 35.1576 19.6979 35.1141 20.2568C34.8362 20.3465 34.5698 20.4537 34.312 20.5782C33.2985 20.6448 32.3487 20.4334 31.4973 19.9122C30.0668 18.3485 30.3622 16.0319 31.2078 14.2625C31.6421 13.8282 32.0418 13.3649 32.4472 12.9044Z" fill="#F5EEEC"/>
<path d="M48.8482 12.4782C49.3144 12.4608 49.9167 12.3363 50.2121 12.8112C49.6474 15.2292 49.3752 17.6992 48.9553 20.1433C48.8453 20.262 48.6281 20.4966 48.5181 20.6153C48.1011 20.4676 47.7014 20.291 47.2873 20.152C46.5229 20.1693 45.7323 20.8672 45.0258 20.3025C43.4534 19.4686 43.8008 17.4068 44.1339 15.9473C42.7381 15.5564 43.8588 17.0274 43.3954 17.7456C43.352 17.4936 43.2651 16.9898 43.2246 16.735C42.3327 17.8759 42.9408 19.6655 41.8404 20.6413C41.1512 20.4734 40.63 20.0506 40.4244 19.3643C40.407 19.8537 40.407 20.3431 40.4186 20.8354C40.1203 20.6761 39.8394 20.4908 39.5441 20.3402C38.9649 19.9232 38.1917 20.0912 38.0151 20.8296C37.8993 20.8267 37.6705 20.8238 37.5547 20.8209C37.0827 20.6124 36.6049 20.4271 36.156 20.1809C35.6058 19.4715 35.8433 18.539 35.823 17.7021C36.379 17.0303 37.0508 16.4686 37.8066 16.0255C38.2902 16.1124 38.7738 16.2108 39.2719 16.2369C39.2979 14.789 37.6068 15.5361 36.6773 15.5969C36.6338 15.2089 36.602 14.8209 36.5846 14.4328C37.934 13.6481 39.9292 13.5322 40.9891 14.8238C40.9659 16.1761 40.7487 17.5139 40.685 18.8633C41.3192 17.7832 41.2815 16.1355 41.5335 14.7774C41.5595 14.5747 41.6116 14.1664 41.6377 13.9637C42.5383 14.0969 43.4678 14.1346 44.3713 13.9927C44.325 15.3971 45.3356 14.2938 45.9292 13.9116C46.6937 13.8595 47.5016 13.9898 48.1648 14.4039C48.3675 13.7581 48.437 13.04 48.8482 12.4782ZM46.824 16.1906C46.0364 15.733 45.6107 16.3122 45.6136 17.0882C44.3539 18.7301 47.4872 19.4193 47.3916 17.9512L47.6522 17.9628C47.6406 17.4734 47.6175 16.4946 47.603 16.0023C47.2815 15.4492 45.9698 15.4898 46.824 16.1906ZM37.8877 17.8643C36.822 18.1249 37.4736 18.8981 38.1367 19.1703C38.6406 18.817 39.1213 18.374 38.9649 17.6906C38.6811 17.7861 37.7371 17.3981 37.8877 17.8643Z" fill="#F5EEEC"/>
<path d="M19.61 13.0626C21.6718 12.2315 22.4652 15.2142 21.0173 16.2335C20.832 16.8793 19.6245 19.193 21.2751 18.8686C21.304 19.0656 21.3648 19.4623 21.3967 19.6592C21.2924 20.1544 20.8639 20.4063 20.4729 20.6582C19.7982 20.6351 19.1177 20.5221 18.7268 19.914C18.5444 18.8368 18.8195 17.7885 18.9382 16.7287C19.1409 15.5038 19.332 14.2731 19.61 13.0626Z" fill="#F5EEEC"/>
<path d="M14.8841 15.0596C15.359 14.6657 15.7557 14.0721 16.387 13.936C17.4353 13.9823 19.72 13.1194 18.6602 15.2941C18.2635 16.1078 16.0946 15.0161 16.7519 16.1484C17.2702 16.5827 17.832 16.9621 18.3504 17.4022C18.3098 18.1725 18.3243 18.9486 18.2403 19.716C17.8407 20.0548 17.3948 20.327 16.9575 20.605C15.9729 20.5586 14.6032 20.9003 13.9951 19.8781C14.1486 19.5509 14.3021 19.2208 14.4527 18.8907C15.1216 18.9167 15.8079 19.2179 16.442 18.8501C17.3079 18.2565 15.2403 17.5123 15.0144 17.0055C14.5048 16.4408 14.7104 15.7111 14.8841 15.0596Z" fill="#F5EEEC"/>
<path d="M22.7802 14.5398C23.6692 13.7174 25.1113 13.6392 26.1335 14.2821C26.7214 14.7628 26.7532 15.5968 26.9849 16.2744C26.9125 16.8361 26.8343 17.3979 26.8169 17.9655C26.6808 17.9452 26.4115 17.9076 26.2754 17.8873C25.5225 17.8381 24.0196 17.7367 23.2667 17.6846C23.4028 18.0842 23.4926 18.5823 23.8603 18.84C24.677 19.48 25.6412 18.8111 26.4897 18.6084C26.51 18.7474 26.5505 19.0253 26.5708 19.1614C26.5244 19.5234 26.4781 19.8854 26.4376 20.2445C26.3102 20.3342 26.0553 20.508 25.9279 20.5949C23.7271 21.2174 21.037 19.6132 21.6509 17.146C21.9665 16.2541 22.2213 15.3188 22.7802 14.5398ZM24.1673 15.3564C24.2542 15.8603 24.4916 16.9722 25.1548 16.3236C25.7658 15.7039 24.758 15.1363 24.1673 15.3564Z" fill="#F5EEEC"/>
<path d="M27.5954 14.9915C27.9342 14.3718 27.9603 13.0889 29.2286 14.1864C29.828 14.3949 30.3667 13.9026 30.9487 13.8129C30.6794 14.6584 30.442 15.5648 29.7325 16.1555C28.3281 17.2096 29.5703 19.9519 28.0298 20.6527C27.6649 20.4992 27.303 20.3544 26.9468 20.1951C26.9844 19.6305 27.0365 19.0658 27.0597 18.5011C27.08 18.3824 27.1176 18.1478 27.1379 18.032C27.3319 17.0272 27.6533 16.0281 27.5954 14.9915Z" fill="#F5EEEC"/>
</svg>
