<svg width="81" height="23" viewBox="0 0 81 23" fill="none" xmlns="http://www.w3.org/2000/svg">
<path opacity="0.98" d="M0.369869 0.394402C3.05135 0.400193 5.73572 0.313319 8.4172 0.408879C10.9713 0.959075 11.4664 3.73901 11.9616 5.87319C12.8101 8.44753 13.7773 11.019 14.2898 13.686C14.4114 13.6889 14.6547 13.6947 14.7792 13.6976C15.6016 10.9697 16.2589 8.1956 17.3101 5.54307C17.7734 3.5392 18.312 1.0083 20.6171 0.400192C23.4057 0.382818 26.1972 0.33359 28.9887 0.403089C29.0032 7.72938 29.0061 15.0557 28.9858 22.382C26.6779 22.3791 24.3671 22.4457 22.0563 22.3704C22.0128 18.0325 22.0852 13.6918 22.036 9.35101L21.2368 9.39734C19.7281 13.6773 18.6711 18.1049 17.0611 22.353C15.3613 22.3848 13.6556 22.4688 11.9558 22.3617C10.8757 18.3597 9.41624 14.4678 8.22029 10.489C8.15369 9.96491 8.00601 9.19174 7.29365 9.34232C7.23863 13.686 7.31681 18.0325 7.26758 22.3791C4.97703 22.3501 2.67779 22.5036 0.390139 22.3443C0.311954 22.2661 0.155583 22.1155 0.0802926 22.0374C0.138208 14.8269 -0.281678 7.58459 0.369869 0.394402Z" fill="#409F38"/>
<path opacity="0.98" d="M32.1948 0.390354C34.5027 0.390354 36.8135 0.326648 39.1244 0.401937C39.1881 4.71663 39.052 9.03422 39.1823 13.3489C39.4834 14.012 39.9583 13.3981 40.1784 13.0304C41.3251 10.2881 42.6746 7.64135 44.0558 5.01489C44.8869 3.46276 45.4429 1.68187 46.7286 0.430895C49.4043 0.355605 52.0829 0.344022 54.7615 0.399041C54.776 7.72533 54.7789 15.0545 54.7586 22.3808C52.4478 22.3779 50.137 22.4445 47.829 22.3692C47.7856 18.0314 47.858 13.6906 47.8088 9.34986C46.5607 9.02843 46.497 10.6211 46.051 11.374C44.6582 14.4059 43.3609 17.4841 41.8435 20.4551C41.3859 21.1356 41.0732 22.0623 40.2045 22.3026C37.5375 22.4503 34.8618 22.4156 32.1919 22.3721C32.1745 15.0458 32.1745 7.71664 32.1948 0.390354Z" fill="#409F38"/>
<path opacity="0.98" d="M58.26 10.2366C65.1085 10.2105 71.9599 10.2395 78.8113 10.2221C79.3064 10.1873 79.7669 10.3814 80.2215 10.5609C79.57 12.4171 78.2003 13.9431 76.3991 14.7511C72.8576 16.1613 68.9077 15.1072 65.2041 15.4576C65.1404 17.7627 65.2591 20.0735 65.1751 22.3785C62.8672 22.3785 60.5593 22.4451 58.2542 22.3698C58.2426 18.3273 58.2224 14.282 58.26 10.2366Z" fill="#409F38"/>
<path d="M57.3638 0.394028C63.1466 0.382445 68.9295 0.356383 74.7152 0.405611C75.8214 1.32067 77.7587 1.3728 78.7461 2.75697C80.3996 4.32358 80.9759 6.81105 80.7992 9.01183C80.7182 9.09002 80.556 9.24059 80.4749 9.31588C75.4855 9.3072 70.47 9.61704 65.5038 9.02631C63.054 8.10256 60.4825 7.12668 58.8638 4.97513C58.2152 3.51277 57.358 2.04172 57.3638 0.394028Z" fill="#088BCE"/>
</svg>
