<svg width="162" height="46" viewBox="0 0 162 46" fill="none" xmlns="http://www.w3.org/2000/svg">
<path d="M136.112 7.592C136.112 7.90133 136.101 8.2 136.08 8.488C136.059 8.776 136.032 9.04267 136 9.288H136.112C136.336 8.92533 136.635 8.62133 137.008 8.376C137.381 8.12 137.867 7.992 138.464 7.992C139.381 7.992 140.133 8.38133 140.72 9.16C141.307 9.93867 141.6 11.0693 141.6 12.552C141.6 14.0667 141.301 15.2133 140.704 15.992C140.107 16.7707 139.328 17.16 138.368 17.16C137.749 17.16 137.275 17.0533 136.944 16.84C136.613 16.616 136.336 16.3813 136.112 16.136H135.92L135.44 17H133.056V4.84H136.112V7.592ZM137.344 10.392C136.917 10.392 136.603 10.5413 136.4 10.84C136.208 11.1387 136.112 11.6027 136.112 12.232V12.664C136.112 13.3467 136.203 13.8587 136.384 14.2C136.576 14.5307 136.907 14.696 137.376 14.696C138.123 14.696 138.496 13.9707 138.496 12.52C138.496 11.1013 138.112 10.392 137.344 10.392ZM151.049 17H142.761V14.968L145.545 12.152C146.121 11.544 146.569 11.0587 146.889 10.696C147.22 10.3333 147.449 10.024 147.577 9.768C147.705 9.512 147.769 9.24533 147.769 8.968C147.769 8.62667 147.657 8.38133 147.433 8.232C147.22 8.08267 146.964 8.008 146.665 8.008C146.303 8.008 145.94 8.10933 145.577 8.312C145.215 8.51467 144.799 8.81867 144.329 9.224L142.633 7.24C142.975 6.93067 143.337 6.63733 143.721 6.36C144.116 6.08267 144.575 5.85867 145.097 5.688C145.62 5.50667 146.26 5.416 147.017 5.416C147.796 5.416 148.468 5.55467 149.033 5.832C149.599 6.09867 150.036 6.46667 150.345 6.936C150.665 7.40533 150.825 7.93867 150.825 8.536C150.825 9.19733 150.703 9.78933 150.457 10.312C150.223 10.824 149.86 11.3413 149.369 11.864C148.889 12.376 148.287 12.9627 147.561 13.624L146.729 14.376V14.456H151.049V17ZM155.768 7.592C155.768 7.90133 155.758 8.2 155.736 8.488C155.715 8.776 155.688 9.04267 155.656 9.288H155.768C155.992 8.92533 156.291 8.62133 156.664 8.376C157.038 8.12 157.523 7.992 158.12 7.992C159.038 7.992 159.79 8.38133 160.376 9.16C160.963 9.93867 161.256 11.0693 161.256 12.552C161.256 14.0667 160.958 15.2133 160.36 15.992C159.763 16.7707 158.984 17.16 158.024 17.16C157.406 17.16 156.931 17.0533 156.6 16.84C156.27 16.616 155.992 16.3813 155.768 16.136H155.576L155.096 17H152.712V4.84H155.768V7.592ZM157 10.392C156.574 10.392 156.259 10.5413 156.056 10.84C155.864 11.1387 155.768 11.6027 155.768 12.232V12.664C155.768 13.3467 155.859 13.8587 156.04 14.2C156.232 14.5307 156.563 14.696 157.032 14.696C157.779 14.696 158.152 13.9707 158.152 12.52C158.152 11.1013 157.768 10.392 157 10.392Z" fill="white"/>
<g clip-path="url(#clip0_70_7911)">
<path fill-rule="evenodd" clip-rule="evenodd" d="M8.33763 14.3593V7.15819H4.93164V14.3593H8.33763ZM15.6535 14.3593L12.4213 11.2751C12.2476 11.0984 12.0216 10.8675 12.0216 10.6501C12.0216 10.4734 12.178 10.256 12.5256 9.90277L15.2539 7.15819H11.5003L9.24126 9.71257C8.8937 10.1066 8.68519 10.4055 8.68519 10.6637C8.68519 10.949 8.92845 11.2343 9.13701 11.4653L11.8305 14.3593H15.6535ZM24.8114 7.07666C23.3517 7.07666 21.7183 7.11744 20.7104 7.81036C19.5635 8.61199 19.494 10.0386 19.494 10.7588C19.494 11.4788 19.5635 12.9055 20.7104 13.7071C21.7183 14.4023 23.3517 14.4431 24.8114 14.4431C26.2711 14.4431 27.9046 14.4023 28.9125 13.7071C30.0594 12.9055 30.129 11.4788 30.129 10.7588C30.129 10.0386 30.0594 8.61199 28.9125 7.81036C27.9046 7.11744 26.2711 7.07666 24.8114 7.07666ZM22.9694 10.7588C22.9694 9.91635 23.178 9.60384 23.2996 9.46799C23.4734 9.29136 23.8731 9.00602 24.8114 9.00602C25.7499 9.00602 26.1495 9.29136 26.3233 9.46799C26.4971 9.6582 26.6535 9.99788 26.6535 10.7588C26.6535 11.2751 26.5839 11.7234 26.3059 12.0224C26.1495 12.199 25.7324 12.5115 24.8114 12.5115C23.7688 12.5115 23.3691 12.1039 23.2996 12.0224C23.1606 11.8729 22.9694 11.5468 22.9694 10.7588ZM44.6739 10.5006C44.726 10.3783 44.7955 10.3104 44.865 10.3104C44.8998 10.3104 44.9867 10.3375 44.9867 10.4734L44.8129 14.3593H48.2189V8.44896C48.2189 7.49788 47.0026 7.07666 45.7685 7.07666C44.5001 7.07666 43.7529 7.38917 43.388 8.1908L41.9456 11.3158C41.8588 11.5061 41.7197 11.6283 41.6154 11.6283C41.5112 11.6283 41.3722 11.5061 41.2853 11.3158L39.843 8.1908C39.478 7.38917 38.7308 7.07666 37.4622 7.07666C36.2285 7.07666 35.012 7.49788 35.012 8.44896V14.3593H38.418L38.2442 10.487C38.2442 10.3647 38.3137 10.324 38.3659 10.324C38.4354 10.324 38.5049 10.3919 38.557 10.5142L40.0167 13.7343C40.2948 14.3593 40.9378 14.4431 41.6154 14.4431C42.2932 14.4431 42.9362 14.3593 43.2142 13.7343L44.6739 10.5006ZM55.3957 7.15819C54.8396 7.15819 54.2316 7.17177 53.7448 7.55223C53.3624 7.86471 53.3106 8.17722 53.3106 8.54408V14.3593H56.7165V9.42724C56.7165 9.29135 56.7339 9.16906 56.8903 9.07395C57.0292 8.97885 57.2378 8.97885 57.3249 8.97885H59.2014C59.2885 8.97885 59.4971 8.97885 59.636 9.07395C59.7923 9.16906 59.8097 9.29135 59.8097 9.42724V14.3593H63.2157V8.54408C63.2157 8.17722 63.1634 7.86471 62.7811 7.55223C62.2946 7.17177 61.6862 7.15819 61.1301 7.15819H55.3957ZM68.7245 7.15819V8.95167H73.3467C73.6943 8.95167 74.1289 8.96527 74.3893 9.237C74.5456 9.40005 74.563 9.59027 74.563 9.71257V9.82125H70.5318C69.9931 9.82125 69.4021 9.83485 68.8983 10.1338C68.1684 10.5685 68.0987 11.3294 68.0987 11.9544C68.0987 12.5251 68.1336 13.4762 68.846 13.9789C69.3325 14.3321 69.9582 14.3593 70.5318 14.3593H75.9535C76.4748 14.3593 77.0827 14.3321 77.5174 13.9789C77.9345 13.6392 77.969 13.2044 77.969 12.824V9.80767C77.969 9.22343 77.8649 8.36743 77.1002 7.78319C76.7004 7.47068 75.9535 7.15819 74.8239 7.15819H68.7245ZM74.563 11.5332V11.9816C74.563 12.1039 74.5456 12.2398 74.3893 12.3349C74.2852 12.4028 74.0592 12.43 73.8854 12.43H72.113C71.9567 12.43 71.7655 12.3892 71.6436 12.3077C71.5221 12.2126 71.5046 12.1039 71.5046 11.9952C71.5046 11.8729 71.5221 11.7506 71.6436 11.6555C71.7999 11.5468 72.0433 11.5332 72.1479 11.5332H74.563ZM92.8964 14.3593V7.15819H89.4905V9.6854H86.4665V7.15819H83.0606V14.3593H86.4665V11.6147H89.4905V14.3593H92.8964ZM108.606 14.3593V8.51688C108.606 8.15005 108.571 7.07666 106.625 7.07666C105.582 7.07666 105.304 7.3484 105.026 7.62015L101.689 10.8946C101.62 10.9626 101.516 11.0984 101.377 11.0984C101.238 11.0984 101.22 11.0169 101.22 10.8946L101.394 7.15819H97.9881V13.0821C97.9881 14.3322 99.187 14.4431 99.9343 14.4431C100.682 14.4431 101.081 14.3752 101.654 13.8159L104.921 10.6229C105.043 10.5142 105.13 10.4055 105.235 10.4055C105.373 10.4055 105.373 10.5142 105.373 10.6229L105.2 14.3593H108.606ZM113.35 14.3593H116.999L119.119 11.8457C119.345 11.574 119.588 11.1935 119.588 10.7723C119.588 10.2968 119.154 10.0251 118.476 10.0251H117.642C117.486 10.0251 117.277 10.0386 117.103 9.91635C116.947 9.80767 116.947 9.64462 116.947 9.52234C116.947 9.37288 116.947 9.237 117.155 9.10113C117.347 8.97885 117.503 8.97885 117.712 8.97885H119.241C119.467 8.97885 119.727 8.99245 119.866 9.08755C120.04 9.20983 120.04 9.42723 120.04 9.59027V14.3593H123.446V8.73429C123.446 8.28592 123.376 7.81036 122.872 7.47068C122.629 7.30765 122.23 7.15819 121.621 7.15819H115.8C115.261 7.15819 114.705 7.32122 114.323 7.59298C113.628 8.08212 113.541 8.78864 113.541 9.33211C113.541 9.88918 113.593 10.5821 114.149 11.1392C114.531 11.5196 114.983 11.6691 115.47 11.6691H115.696C115.765 11.6691 115.921 11.6691 115.921 11.7506C115.921 11.7914 115.869 11.8729 115.835 11.9L113.35 14.3593Z" fill="white"/>
<path fill-rule="evenodd" clip-rule="evenodd" d="M119.748 40.6641L5.6101 40.6975C4.58424 40.6986 3.6844 41.9697 3.68555 43.1686C3.68667 44.3675 4.63622 45.4333 5.4238 45.4333H120.052C119.856 43.9395 119.748 42.3501 119.748 40.6641Z" fill="white"/>
<path fill-rule="evenodd" clip-rule="evenodd" d="M15.0117 17.2324C16.3646 17.2324 17.4616 18.3381 17.4616 19.7015C17.4616 21.065 16.3646 22.1706 15.0117 22.1706L14.9666 22.1697V22.1706H12.5617C9.85636 22.1706 7.6617 24.3825 7.6617 27.1088C7.6617 29.8352 9.85636 32.047 12.5617 32.047H17.4621V26.532H17.4861C17.47 26.3143 17.4621 26.096 17.4621 25.8743C17.4621 21.103 21.3027 17.2324 26.0371 17.2324C30.7715 17.2324 34.6121 21.103 34.6121 25.8743L34.6082 26.1232H34.6116V32.047H39.488H39.5115C39.9266 32.047 40.3348 32.0194 40.7366 31.969C38.3954 29.2935 37.0616 25.82 37.0616 22.1706V19.7469H37.0621L37.0616 19.7015C37.0616 18.3381 38.1587 17.2324 39.5115 17.2324C40.8644 17.2324 41.9616 18.3381 41.9616 19.7015L41.9605 19.7469H41.9616V22.1706C41.9616 25.1948 43.334 28.0214 45.635 29.8782C47.8751 28.0683 49.3115 25.2881 49.3115 22.1706H49.3119V19.7642V19.7015H49.3115C49.3115 18.3381 50.4084 17.2324 51.7615 17.2324H73.8114C75.1645 17.2324 76.2614 18.3381 76.2614 19.7015H76.2725V24.6387H83.6115V19.7015C83.6115 18.3381 84.7085 17.2324 86.0616 17.2324H93.4117C94.7644 17.2324 95.8617 18.3381 95.8617 19.7015V28.3434H95.8609C95.8609 30.3888 97.5071 32.0475 99.5365 32.0475C101.555 32.0475 103.194 30.4055 103.211 28.375V19.7015C103.211 18.3381 104.309 17.2324 105.661 17.2324C107.015 17.2324 108.111 18.3381 108.111 19.7015V28.3434V32.047H110.561V19.7015C110.561 18.3381 111.658 17.2324 113.012 17.2324C114.364 17.2324 115.462 18.3381 115.462 19.7015V22.8896L121.2 17.8413C122.219 16.945 123.768 17.0507 124.657 18.0778C125.547 19.105 125.442 20.6655 124.423 21.5617L119.13 26.2184L125.25 32.6421C125.099 32.4837 126.857 34.4713 127.027 36.6508C127.52 42.9835 123.01 46.0009 118.979 45.3069C117.098 44.9832 116.736 42.9774 115.668 42.049C115.565 41.9595 117.25 40.5634 119.243 40.6638C122.103 40.8082 122.389 36.7268 121.546 35.8526L115.462 29.5458V34.5161C115.462 35.8796 114.364 36.9852 113.012 36.9852H105.661V36.9847L105.642 36.9852C104.813 36.9852 104.078 36.568 103.635 35.9314C102.417 36.6015 101.022 36.9852 99.5365 36.9852C94.8013 36.9852 90.9616 33.1152 90.9616 28.3434V22.1706H88.5116V24.6387V29.45V34.5088V34.5166C88.5116 35.8801 87.4143 36.9857 86.0616 36.9857C84.7085 36.9857 83.6115 35.8801 83.6115 34.5166V34.5088V29.5542H76.2725V34.5161H76.2614C76.2614 35.8796 75.1645 36.9852 73.8114 36.9852C72.4587 36.9852 71.3618 35.8796 71.3618 34.5161C71.3618 34.4361 71.3652 34.3566 71.3724 34.2786V24.6387V22.1706H65.2365V34.5961V34.6006C65.2365 35.964 64.1392 37.0697 62.7865 37.0697C61.4338 37.0697 60.3364 35.964 60.3364 34.6006V34.5961V22.1706H54.212H54.2116C54.2116 30.214 47.8437 36.7635 39.9139 36.9788V36.9852H39.5115H32.1616C30.8087 36.9852 29.7116 35.8796 29.7116 34.5161V26.1232H29.7121V25.8743C29.7121 23.8294 28.0662 22.1706 26.0371 22.1706C24.008 22.1706 22.3621 23.8294 22.3621 25.8743V26.532V33.6826V34.5161H22.3616C22.3616 35.8796 21.2645 36.9852 19.9117 36.9852H12.5617H12.5083V36.9842C7.1222 36.9551 2.76172 32.5433 2.76172 27.1088C2.76172 21.656 7.15113 17.2324 12.5617 17.2324H14.9666V17.2329L15.0117 17.2324Z" fill="white"/>
</g>
<defs>
<clipPath id="clip0_70_7911">
<rect width="130" height="38.537" fill="white" transform="translate(0 7)"/>
</clipPath>
</defs>
</svg>
