<svg width="18" height="23" viewBox="0 0 18 23" fill="none" xmlns="http://www.w3.org/2000/svg">
<path d="M9 0C7.97185 0 7.24862 0.730887 6.88583 1.63636H4.90909H4.09091H0V22.0909H18V1.63636H13.9091H13.0909H11.1142C10.7514 0.730887 10.0281 0 9 0ZM9 1.63636C9.4623 1.63636 9.81818 1.99225 9.81818 2.45455V3.27273H10.6364H12.2727V4.90909H5.72727V3.27273H8.18182V2.45455C8.18182 1.99225 8.5377 1.63636 9 1.63636ZM1.63636 3.27273H4.09091V6.54545H13.9091V3.27273H16.3636V20.4545H1.63636V3.27273ZM13.3306 10.0579L8.18182 15.2067L5.48757 12.5124L4.33061 13.6694L8.18182 17.5206L14.4876 11.2148L13.3306 10.0579Z" fill="white"/>
</svg>
