<svg width="15" height="17" viewBox="0 0 15 17" fill="none" xmlns="http://www.w3.org/2000/svg">
<path d="M14.7894 15.4786L12.0085 12.5564C13.088 11.1306 13.6107 9.32083 13.4693 7.49924C13.3278 5.67764 12.533 3.98269 11.2481 2.76289C9.96328 1.54309 8.2861 0.891158 6.56147 0.941153C4.83683 0.991148 3.19582 1.73927 1.97586 3.03168C0.755897 4.32409 0.049719 6.06256 0.00252672 7.88962C-0.0446655 9.71668 0.570716 11.4935 1.72213 12.8546C2.87355 14.2158 4.47349 15.0578 6.19297 15.2077C7.91245 15.3575 9.62076 14.8037 10.9667 13.6602L13.725 16.5824C13.7947 16.6568 13.8776 16.7159 13.9689 16.7562C14.0603 16.7965 14.1582 16.8172 14.2572 16.8172C14.3561 16.8172 14.4541 16.7965 14.5455 16.7562C14.6368 16.7159 14.7197 16.6568 14.7894 16.5824C14.9245 16.4343 15 16.2364 15 16.0305C15 15.8245 14.9245 15.6267 14.7894 15.4786ZM6.76166 13.6602C5.72392 13.6602 4.70949 13.3342 3.84664 12.7234C2.9838 12.1126 2.31129 11.2445 1.91417 10.2288C1.51705 9.21316 1.41314 8.09553 1.61559 7.01729C1.81804 5.93905 2.31776 4.94862 3.05155 4.17125C3.78534 3.39389 4.72024 2.86449 5.73804 2.65002C6.75584 2.43554 7.81081 2.54562 8.76955 2.96633C9.72829 3.38703 10.5477 4.09948 11.1243 5.01357C11.7008 5.92766 12.0085 7.00233 12.0085 8.1017C12.0085 9.5759 11.4557 10.9897 10.4718 12.0321C9.48778 13.0746 8.15321 13.6602 6.76166 13.6602Z" fill="#7F8081"/>
</svg>
